Grandstander-Bold.ufo
<glyph name="exclam" format="2">
  <advance width="708.0"/>
  <unicode hex="0021"/>
  <outline>
    <contour>
      <point x="445.75" y="437.0" type="curve"/>
      <point x="454.0" y="688.0"/>
      <point x="501.0" y="1321.75"/>
      <point x="517.75" y="1457.25" type="curve"/>
      <point x="149.0" y="1472.75" type="line"/>
      <point x="143.5" y="1175.5"/>
      <point x="154.75" y="766.5"/>
      <point x="175.0" y="450.75" type="curve"/>
      <point x="240.5" y="442.75"/>
      <point x="386.5" y="437.0"/>
    </contour>
    <contour>
      <point x="322.5" y="-26.25" type="curve" smooth="yes"/>
      <point x="439.5" y="-26.25"/>
      <point x="528.5" y="52.0"/>
      <point x="528.5" y="175.25" type="curve" smooth="yes"/>
      <point x="528.5" y="280.5"/>
      <point x="434.75" y="357.75"/>
      <point x="319.0" y="357.75" type="curve" smooth="yes"/>
      <point x="203.75" y="357.75"/>
      <point x="108.0" y="288.0"/>
      <point x="108.0" y="173.0" type="curve" smooth="yes"/>
      <point x="108.0" y="56.75"/>
      <point x="199.25" y="-26.25"/>
    </contour>
  </outline>
</glyph>
<glyph name="quotedbl" format="2">
  <advance width="764.0"/>
  <unicode hex="0022"/>
  <outline>
    <contour>
      <point x="290.75" y="1020.75" type="curve"/>
      <point x="311.75" y="1116.5"/>
      <point x="325.25" y="1290.0"/>
      <point x="325.25" y="1391.25" type="curve" smooth="yes"/>
      <point x="325.25" y="1417.75"/>
      <point x="323.75" y="1438.75"/>
      <point x="320.75" y="1453.0" type="curve"/>
      <point x="292.0" y="1457.0"/>
      <point x="260.25" y="1458.5"/>
      <point x="227.75" y="1458.5" type="curve" smooth="yes"/>
      <point x="169.25" y="1458.5"/>
      <point x="122.0" y="1452.5"/>
      <point x="66.75" y="1442.0" type="curve"/>
      <point x="66.75" y="1363.75"/>
      <point x="86.0" y="1163.0"/>
      <point x="117.75" y="1037.75" type="curve"/>
      <point x="167.5" y="1027.75"/>
      <point x="233.0" y="1020.75"/>
    </contour>
    <contour>
      <point x="416.25" y="1027.25" type="curve"/>
      <point x="446.75" y="1027.0"/>
      <point x="509.75" y="1030.5"/>
      <point x="600.5" y="1041.75" type="curve"/>
      <point x="624.25" y="1130.5"/>
      <point x="658.5" y="1316.25"/>
      <point x="658.5" y="1399.0" type="curve" smooth="yes"/>
      <point x="658.5" y="1420.0"/>
      <point x="657.75" y="1437.0"/>
      <point x="656.75" y="1443.75" type="curve"/>
      <point x="585.5" y="1452.75"/>
      <point x="491.25" y="1455.5"/>
      <point x="400.25" y="1455.0" type="curve"/>
      <point x="398.5" y="1435.0"/>
      <point x="398.0" y="1391.0"/>
      <point x="398.0" y="1352.75" type="curve" smooth="yes"/>
      <point x="398.0" y="1271.25"/>
      <point x="408.5" y="1091.75"/>
    </contour>
  </outline>
</glyph>
<glyph name="numbersign" format="2">
  <advance width="1511.0"/>
  <unicode hex="0023"/>
  <outline>
    <contour>
      <point x="47.5" y="817.5" type="curve"/>
      <point x="257.0" y="822.0"/>
      <point x="564.25" y="833.25"/>
      <point x="868.75" y="845.75" type="curve" smooth="yes"/>
      <point x="1083.25" y="854.75"/>
      <point x="1302.5" y="865.5"/>
      <point x="1483.0" y="873.0" type="curve"/>
      <point x="1491.5" y="914.75"/>
      <point x="1502.5" y="1098.75"/>
      <point x="1502.5" y="1141.5" type="curve"/>
      <point x="1292.0" y="1137.75"/>
      <point x="1024.75" y="1124.25"/>
      <point x="751.0" y="1108.5" type="curve" smooth="yes"/>
      <point x="515.5" y="1095.0"/>
      <point x="231.0" y="1078.5"/>
      <point x="59.0" y="1071.75" type="curve"/>
      <point x="56.5" y="1050.25"/>
      <point x="47.5" y="880.25"/>
    </contour>
    <contour>
      <point x="1402.0" y="377.75" type="curve"/>
      <point x="1411.0" y="416.75"/>
      <point x="1436.0" y="599.25"/>
      <point x="1436.0" y="645.25" type="curve"/>
      <point x="1261.25" y="656.5"/>
      <point x="1077.75" y="661.5"/>
      <point x="895.25" y="662.25" type="curve" smooth="yes"/>
      <point x="751.0" y="663.0"/>
      <point x="607.75" y="662.0"/>
      <point x="467.5" y="658.25" type="curve" smooth="yes"/>
      <point x="316.5" y="653.75"/>
      <point x="170.75" y="648.25"/>
      <point x="35.5" y="641.75" type="curve"/>
      <point x="30.5" y="612.0"/>
      <point x="17.0" y="445.75"/>
      <point x="17.0" y="407.5" type="curve"/>
      <point x="110.5" y="414.0"/>
      <point x="217.5" y="416.5"/>
      <point x="332.75" y="416.5" type="curve" smooth="yes"/>
      <point x="473.5" y="416.5"/>
      <point x="628.25" y="414.25"/>
      <point x="783.25" y="407.75" type="curve" smooth="yes"/>
      <point x="996.25" y="399.0"/>
      <point x="1211.5" y="387.5"/>
    </contour>
    <contour>
      <point x="339.75" y="14.5" type="curve"/>
      <point x="394.0" y="14.5"/>
      <point x="590.75" y="28.5"/>
      <point x="631.75" y="36.5" type="curve"/>
      <point x="631.75" y="503.25"/>
      <point x="662.5" y="1154.0"/>
      <point x="684.25" y="1475.5" type="curve"/>
      <point x="589.0" y="1475.5"/>
      <point x="447.0" y="1473.0"/>
      <point x="414.25" y="1466.25" type="curve"/>
      <point x="375.25" y="1113.75"/>
      <point x="339.75" y="583.5"/>
    </contour>
    <contour>
      <point x="890.0" y="59.25" type="curve"/>
      <point x="933.25" y="59.25"/>
      <point x="1138.5" y="90.25"/>
      <point x="1179.75" y="98.75" type="curve"/>
      <point x="1147.25" y="406.75"/>
      <point x="1129.0" y="773.25"/>
      <point x="1129.0" y="1095.5" type="curve" smooth="yes"/>
      <point x="1129.0" y="1236.0"/>
      <point x="1131.75" y="1367.75"/>
      <point x="1138.25" y="1482.5" type="curve"/>
      <point x="1097.25" y="1482.5"/>
      <point x="919.25" y="1470.75"/>
      <point x="890.25" y="1465.75" type="curve"/>
      <point x="873.25" y="1248.75"/>
      <point x="865.5" y="1020.0"/>
      <point x="865.5" y="787.75" type="curve" smooth="yes"/>
      <point x="865.5" y="545.75"/>
      <point x="873.75" y="298.0"/>
    </contour>
  </outline>
</glyph>
<glyph name="dollar" format="2">
  <advance width="1027.0"/>
  <unicode hex="0024"/>
  <anchor x="540.0" y="68.0" name="bottom"/>
  <anchor x="545.0" y="1251.75" name="top"/>
  <outline>
    <contour>
      <point x="649.5" y="-82.0" type="line"/>
      <point x="650.25" y="-15.75"/>
      <point x="650.5" y="109.25"/>
      <point x="650.5" y="153.25" type="curve"/>
      <point x="381.0" y="168.75" type="line"/>
      <point x="374.25" y="134.75"/>
      <point x="355.5" y="-55.75"/>
      <point x="355.0" y="-86.25" type="curve"/>
    </contour>
    <contour>
      <point x="395.75" y="1204.0" type="curve"/>
      <point x="640.25" y="1205.5" type="line"/>
      <point x="641.0" y="1258.5"/>
      <point x="641.25" y="1375.0"/>
      <point x="639.75" y="1419.0" type="curve"/>
      <point x="406.0" y="1408.75" type="line"/>
      <point x="403.0" y="1374.0"/>
      <point x="397.75" y="1245.0"/>
    </contour>
    <component base="s" xOffset="37.5" yOffset="135.5"/>
  </outline>
</glyph>
<glyph name="percent" format="2">
  <advance width="1385.0"/>
  <unicode hex="0025"/>
  <outline>
    <contour>
      <point x="186.0" y="-37.25" type="curve"/>
      <point x="446.75" y="227.5"/>
      <point x="985.75" y="867.75"/>
      <point x="1263.75" y="1286.0" type="curve"/>
      <point x="1230.0" y="1333.25"/>
      <point x="1157.25" y="1410.25"/>
      <point x="1088.25" y="1441.25" type="curve"/>
      <point x="842.5" y="1053.75"/>
      <point x="308.75" y="394.0"/>
      <point x="13.5" y="88.25" type="curve"/>
      <point x="50.5" y="55.25"/>
      <point x="148.25" y="-12.25"/>
    </contour>
    <contour>
      <point x="1019.5" y="274.75" type="curve" smooth="yes"/>
      <point x="952.25" y="274.75"/>
      <point x="917.5" y="319.5"/>
      <point x="917.5" y="385.0" type="curve" smooth="yes"/>
      <point x="917.5" y="445.0"/>
      <point x="970.75" y="480.25"/>
      <point x="1025.5" y="480.25" type="curve" smooth="yes"/>
      <point x="1081.5" y="480.25"/>
      <point x="1126.0" y="448.75"/>
      <point x="1126.0" y="380.5" type="curve" smooth="yes"/>
      <point x="1126.0" y="312.25"/>
      <point x="1071.25" y="274.75"/>
    </contour>
    <contour>
      <point x="1001.0" y="98.0" type="curve" smooth="yes"/>
      <point x="1187.0" y="98.0"/>
      <point x="1302.75" y="197.0"/>
      <point x="1302.75" y="378.25" type="curve" smooth="yes"/>
      <point x="1302.75" y="541.5"/>
      <point x="1195.25" y="648.5"/>
      <point x="1026.5" y="648.5" type="curve" smooth="yes"/>
      <point x="849.5" y="648.5"/>
      <point x="734.5" y="515.5"/>
      <point x="734.5" y="347.25" type="curve" smooth="yes"/>
      <point x="734.5" y="175.75"/>
      <point x="858.75" y="98.0"/>
    </contour>
    <contour>
      <point x="337.5" y="749.75" type="curve" smooth="yes"/>
      <point x="494.0" y="749.75"/>
      <point x="640.25" y="865.25"/>
      <point x="640.25" y="1041.0" type="curve" smooth="yes"/>
      <point x="640.25" y="1220.5"/>
      <point x="528.0" y="1328.5"/>
      <point x="353.75" y="1328.5" type="curve" smooth="yes"/>
      <point x="174.5" y="1328.5"/>
      <point x="41.5" y="1207.0"/>
      <point x="41.5" y="1024.75" type="curve" smooth="yes"/>
      <point x="41.5" y="863.25"/>
      <point x="169.0" y="749.75"/>
    </contour>
    <contour>
      <point x="346.0" y="948.25" type="curve" smooth="yes"/>
      <point x="290.5" y="948.25"/>
      <point x="241.5" y="977.5"/>
      <point x="241.5" y="1044.75" type="curve" smooth="yes"/>
      <point x="241.5" y="1112.75"/>
      <point x="280.5" y="1154.25"/>
      <point x="352.25" y="1154.25" type="curve" smooth="yes"/>
      <point x="415.5" y="1154.25"/>
      <point x="450.25" y="1111.5"/>
      <point x="450.25" y="1052.0" type="curve" smooth="yes"/>
      <point x="450.25" y="977.5"/>
      <point x="410.25" y="948.25"/>
    </contour>
  </outline>
</glyph>
<glyph name="ampersand" format="2">
  <advance width="1395.0"/>
  <unicode hex="0026"/>
  <outline>
    <contour>
      <point x="547.25" y="-92.5" type="curve" smooth="yes"/>
      <point x="805.25" y="-92.5"/>
      <point x="971.75" y="45.25"/>
      <point x="1031.5" y="119.25" type="curve"/>
      <point x="1067.25" y="73.0"/>
      <point x="1132.25" y="-9.75"/>
      <point x="1170.0" y="-56.0" type="curve"/>
      <point x="1230.5" y="-20.0"/>
      <point x="1307.0" y="63.0"/>
      <point x="1349.75" y="125.5" type="curve"/>
      <point x="1300.75" y="179.75"/>
      <point x="1236.75" y="246.25"/>
      <point x="1184.25" y="299.0" type="curve"/>
      <point x="1230.5" y="353.25"/>
      <point x="1305.5" y="449.0"/>
      <point x="1322.75" y="493.0" type="curve"/>
      <point x="1275.25" y="543.0"/>
      <point x="1183.5" y="615.75"/>
      <point x="1131.5" y="640.75" type="curve"/>
      <point x="1117.75" y="612.25"/>
      <point x="1051.5" y="506.75"/>
      <point x="1019.5" y="472.5" type="curve"/>
      <point x="914.0" y="592.25"/>
      <point x="791.5" y="730.75"/>
      <point x="722.5" y="805.5" type="curve"/>
      <point x="843.75" y="911.0"/>
      <point x="914.5" y="990.25"/>
      <point x="914.5" y="1139.5" type="curve" smooth="yes"/>
      <point x="914.5" y="1307.0"/>
      <point x="770.75" y="1424.5"/>
      <point x="582.0" y="1424.5" type="curve" smooth="yes"/>
      <point x="387.0" y="1424.5"/>
      <point x="212.75" y="1339.5"/>
      <point x="212.75" y="1129.75" type="curve" smooth="yes"/>
      <point x="212.75" y="988.5"/>
      <point x="316.25" y="878.75"/>
      <point x="361.0" y="836.75" type="curve"/>
      <point x="219.5" y="747.5"/>
      <point x="38.0" y="601.0"/>
      <point x="38.0" y="347.0" type="curve" smooth="yes"/>
      <point x="38.0" y="57.25"/>
      <point x="241.5" y="-92.5"/>
    </contour>
    <contour>
      <point x="560.75" y="141.75" type="curve" smooth="yes"/>
      <point x="423.25" y="141.75"/>
      <point x="324.0" y="215.5"/>
      <point x="324.0" y="351.5" type="curve" smooth="yes"/>
      <point x="324.0" y="503.5"/>
      <point x="414.25" y="605.75"/>
      <point x="522.5" y="683.5" type="curve"/>
      <point x="611.5" y="577.5"/>
      <point x="769.0" y="400.5"/>
      <point x="868.5" y="295.25" type="curve"/>
      <point x="822.5" y="239.0"/>
      <point x="699.0" y="141.75"/>
    </contour>
    <contour>
      <point x="556.75" y="950.5" type="curve"/>
      <point x="517.75" y="990.5"/>
      <point x="469.25" y="1064.5"/>
      <point x="469.25" y="1134.5" type="curve" smooth="yes"/>
      <point x="469.25" y="1199.25"/>
      <point x="518.5" y="1231.5"/>
      <point x="569.75" y="1231.5" type="curve" smooth="yes"/>
      <point x="632.25" y="1231.5"/>
      <point x="668.0" y="1195.75"/>
      <point x="668.0" y="1140.75" type="curve" smooth="yes"/>
      <point x="668.0" y="1065.25"/>
      <point x="612.5" y="989.25"/>
    </contour>
  </outline>
</glyph>
<glyph name="quotesingle" format="2">
  <advance width="462.0"/>
  <unicode hex="0027"/>
  <outline>
    <contour>
      <point x="359.5" y="1380.5" type="curve" smooth="yes"/>
      <point x="359.5" y="1411.25"/>
      <point x="358.75" y="1437.0"/>
      <point x="356.25" y="1453.25" type="curve"/>
      <point x="324.75" y="1457.25"/>
      <point x="291.0" y="1459.0"/>
      <point x="255.75" y="1459.0" type="curve" smooth="yes"/>
      <point x="198.5" y="1459.0"/>
      <point x="138.75" y="1454.0"/>
      <point x="80.75" y="1443.0" type="curve"/>
      <point x="80.75" y="1350.5"/>
      <point x="123.5" y="1082.25"/>
      <point x="146.5" y="991.75" type="curve"/>
      <point x="180.0" y="988.5"/>
      <point x="209.5" y="985.75"/>
      <point x="239.0" y="985.75" type="curve" smooth="yes"/>
      <point x="264.0" y="985.75"/>
      <point x="289.75" y="987.25"/>
      <point x="323.0" y="990.5" type="curve"/>
      <point x="346.5" y="1098.5"/>
      <point x="359.5" y="1272.0"/>
    </contour>
  </outline>
</glyph>
<glyph name="parenleft" format="2">
  <advance width="677.0"/>
  <unicode hex="0028"/>
  <outline>
    <contour>
      <point x="339.25" y="-528.5" type="curve"/>
      <point x="400.0" y="-501.0"/>
      <point x="545.25" y="-409.25"/>
      <point x="597.75" y="-369.5" type="curve"/>
      <point x="448.0" y="-178.25"/>
      <point x="353.75" y="169.25"/>
      <point x="353.75" y="524.5" type="curve" smooth="yes"/>
      <point x="353.75" y="862.25"/>
      <point x="461.75" y="1213.75"/>
      <point x="589.75" y="1477.5" type="curve"/>
      <point x="521.25" y="1512.25"/>
      <point x="400.25" y="1551.25"/>
      <point x="285.75" y="1567.25" type="curve"/>
      <point x="138.75" y="1328.75"/>
      <point x="38.0" y="933.75"/>
      <point x="38.0" y="542.75" type="curve" smooth="yes"/>
      <point x="38.0" y="116.75"/>
      <point x="152.5" y="-304.75"/>
    </contour>
  </outline>
</glyph>
<glyph name="parenright" format="2">
  <advance width="651.0"/>
  <unicode hex="0029"/>
  <outline>
    <contour>
      <point x="266.75" y="624.25" type="curve" smooth="yes"/>
      <point x="266.75" y="173.5"/>
      <point x="175.25" y="-151.75"/>
      <point x="37.75" y="-345.25" type="curve"/>
      <point x="80.0" y="-386.75"/>
      <point x="223.5" y="-469.5"/>
      <point x="287.75" y="-490.75" type="curve"/>
      <point x="470.25" y="-259.5"/>
      <point x="590.75" y="235.25"/>
      <point x="590.75" y="581.5" type="curve" smooth="yes"/>
      <point x="590.75" y="923.0"/>
      <point x="494.75" y="1339.75"/>
      <point x="309.0" y="1571.75" type="curve"/>
      <point x="217.0" y="1552.0"/>
      <point x="100.5" y="1515.0"/>
      <point x="21.5" y="1470.75" type="curve"/>
      <point x="170.25" y="1280.25"/>
      <point x="266.75" y="926.25"/>
    </contour>
  </outline>
</glyph>
<glyph name="asterisk" format="2">
  <advance width="957.75"/>
  <unicode hex="002A"/>
  <outline>
    <contour>
      <point x="777.75" y="944.0" type="curve"/>
      <point x="800.5" y="976.0"/>
      <point x="885.5" y="1105.5"/>
      <point x="899.25" y="1142.5" type="curve"/>
      <point x="803.25" y="1195.5"/>
      <point x="627.25" y="1268.75"/>
      <point x="539.25" y="1300.75" type="curve"/>
      <point x="447.25" y="1363.75"/>
      <point x="233.75" y="1487.5"/>
      <point x="148.75" y="1534.0" type="curve"/>
      <point x="123.0" y="1499.75"/>
      <point x="50.0" y="1380.5"/>
      <point x="33.0" y="1339.25" type="curve"/>
      <point x="133.25" y="1287.0"/>
      <point x="345.5" y="1199.25"/>
      <point x="445.75" y="1161.25" type="curve"/>
      <point x="529.0" y="1096.75"/>
      <point x="692.25" y="990.0"/>
    </contour>
    <contour>
      <point x="481.25" y="848.0" type="curve" smooth="yes"/>
      <point x="532.5" y="848.0"/>
      <point x="582.75" y="852.25"/>
      <point x="601.5" y="855.75" type="curve"/>
      <point x="599.25" y="944.25"/>
      <point x="583.25" y="1148.25"/>
      <point x="574.5" y="1249.5" type="curve"/>
      <point x="584.75" y="1334.25"/>
      <point x="594.0" y="1474.75"/>
      <point x="594.0" y="1590.5" type="curve"/>
      <point x="574.5" y="1594.25"/>
      <point x="527.0" y="1597.0"/>
      <point x="478.75" y="1597.0" type="curve" smooth="yes"/>
      <point x="430.5" y="1597.0"/>
      <point x="381.5" y="1594.25"/>
      <point x="361.25" y="1590.5" type="curve"/>
      <point x="365.75" y="1504.5"/>
      <point x="376.75" y="1360.5"/>
      <point x="388.75" y="1249.5" type="curve"/>
      <point x="376.5" y="1121.0"/>
      <point x="361.0" y="954.0"/>
      <point x="359.75" y="855.75" type="curve"/>
      <point x="378.75" y="852.0"/>
      <point x="430.5" y="848.0"/>
    </contour>
    <contour>
      <point x="171.0" y="920.5" type="curve"/>
      <point x="275.0" y="978.5"/>
      <point x="412.0" y="1063.5"/>
      <point x="511.0" y="1126.75" type="curve"/>
      <point x="609.0" y="1171.0"/>
      <point x="821.5" y="1281.25"/>
      <point x="914.25" y="1333.25" type="curve"/>
      <point x="897.5" y="1374.25"/>
      <point x="823.5" y="1498.75"/>
      <point x="797.5" y="1531.75" type="curve"/>
      <point x="712.25" y="1481.75"/>
      <point x="539.75" y="1364.75"/>
      <point x="454.5" y="1301.5" type="curve"/>
      <point x="355.25" y="1261.0"/>
      <point x="148.25" y="1176.75"/>
      <point x="52.25" y="1123.75" type="curve"/>
      <point x="66.25" y="1088.25"/>
      <point x="151.0" y="950.0"/>
    </contour>
  </outline>
</glyph>
<glyph name="plus" format="2">
  <advance width="1050.0"/>
  <unicode hex="002B"/>
  <outline>
    <contour>
      <point x="981.75" y="587.75" type="curve"/>
      <point x="985.5" y="615.5"/>
      <point x="998.75" y="769.0"/>
      <point x="998.25" y="873.75" type="curve"/>
      <point x="895.5" y="856.0"/>
      <point x="673.75" y="846.5"/>
      <point x="452.75" y="846.5" type="curve" smooth="yes"/>
      <point x="277.75" y="846.5"/>
      <point x="109.0" y="852.25"/>
      <point x="36.25" y="860.75" type="curve"/>
      <point x="36.25" y="827.5"/>
      <point x="45.5" y="639.75"/>
      <point x="54.0" y="598.5" type="curve"/>
      <point x="188.0" y="579.75"/>
      <point x="435.25" y="565.75"/>
      <point x="635.5" y="565.75" type="curve" smooth="yes"/>
      <point x="788.75" y="565.75"/>
      <point x="911.75" y="573.75"/>
    </contour>
    <contour>
      <point x="653.25" y="1181.75" type="curve"/>
      <point x="626.25" y="1182.0"/>
      <point x="381.75" y="1172.0"/>
      <point x="348.0" y="1169.75" type="curve"/>
      <point x="371.0" y="1041.25"/>
      <point x="403.0" y="733.0"/>
      <point x="403.0" y="491.25" type="curve" smooth="yes"/>
      <point x="403.0" y="410.5"/>
      <point x="399.75" y="334.0"/>
      <point x="392.75" y="271.75" type="curve"/>
      <point x="428.0" y="268.0"/>
      <point x="625.25" y="261.25"/>
      <point x="662.5" y="262.0" type="curve"/>
      <point x="684.25" y="380.5"/>
      <point x="693.0" y="538.25"/>
      <point x="693.0" y="684.5" type="curve" smooth="yes"/>
      <point x="693.0" y="889.0"/>
      <point x="676.25" y="1087.0"/>
    </contour>
  </outline>
</glyph>
<glyph name="comma" format="2">
  <advance width="667.0"/>
  <unicode hex="002C"/>
  <outline>
    <contour>
      <point x="332.75" y="-309.0" type="curve"/>
      <point x="467.0" y="-213.75"/>
      <point x="559.0" y="-67.5"/>
      <point x="559.0" y="113.25" type="curve" smooth="yes"/>
      <point x="559.0" y="280.5"/>
      <point x="435.75" y="343.75"/>
      <point x="315.25" y="343.75" type="curve" smooth="yes"/>
      <point x="200.0" y="343.75"/>
      <point x="77.5" y="284.0"/>
      <point x="77.5" y="155.5" type="curve" smooth="yes"/>
      <point x="77.5" y="68.25"/>
      <point x="131.75" y="-19.0"/>
      <point x="229.0" y="-19.0" type="curve" smooth="yes"/>
      <point x="285.25" y="-19.0"/>
      <point x="311.0" y="-1.5"/>
      <point x="328.0" y="17.5" type="curve"/>
      <point x="329.5" y="15.25"/>
      <point x="331.0" y="10.5"/>
      <point x="331.0" y="5.0" type="curve" smooth="yes"/>
      <point x="330.25" y="-38.0"/>
      <point x="246.0" y="-128.5"/>
      <point x="196.75" y="-155.75" type="curve"/>
      <point x="229.75" y="-211.25"/>
      <point x="309.5" y="-301.25"/>
    </contour>
  </outline>
</glyph>
<glyph name="hyphen" format="2">
  <advance width="915.75"/>
  <unicode hex="002D"/>
  <outline>
    <contour>
      <point x="871.5" y="815.5" type="curve"/>
      <point x="778.75" y="826.5"/>
      <point x="658.75" y="830.25"/>
      <point x="508.5" y="830.25" type="curve" smooth="yes"/>
      <point x="360.0" y="830.25"/>
      <point x="187.5" y="818.25"/>
      <point x="51.75" y="802.5" type="curve"/>
      <point x="42.75" y="761.0"/>
      <point x="30.5" y="595.75"/>
      <point x="31.25" y="521.75" type="curve"/>
      <point x="222.75" y="533.5"/>
      <point x="753.5" y="548.75"/>
      <point x="885.25" y="548.75" type="curve"/>
      <point x="885.75" y="621.5"/>
      <point x="885.0" y="732.75"/>
    </contour>
  </outline>
</glyph>
<glyph name="period" format="2">
  <advance width="632.0"/>
  <unicode hex="002E"/>
  <outline>
    <contour>
      <point x="263.0" y="357.0" type="curve" smooth="yes"/>
      <point x="149.75" y="357.0"/>
      <point x="52.0" y="270.0"/>
      <point x="52.0" y="161.0" type="curve" smooth="yes"/>
      <point x="52.0" y="43.75"/>
      <point x="158.0" y="-38.0"/>
      <point x="273.5" y="-38.0" type="curve" smooth="yes"/>
      <point x="375.0" y="-38.0"/>
      <point x="461.0" y="38.25"/>
      <point x="461.0" y="146.0" type="curve" smooth="yes"/>
      <point x="461.0" y="263.75"/>
      <point x="380.5" y="357.0"/>
    </contour>
  </outline>
</glyph>
<glyph name="slash" format="2">
  <advance width="969.0"/>
  <unicode hex="002F"/>
  <outline>
    <contour>
      <point x="734.25" y="1527.5" type="curve"/>
      <point x="579.25" y="1127.25"/>
      <point x="230.0" y="338.5"/>
      <point x="-16.5" y="-52.75" type="curve"/>
      <point x="35.25" y="-102.75"/>
      <point x="130.0" y="-159.25"/>
      <point x="218.25" y="-179.5" type="curve"/>
      <point x="454.75" y="154.75"/>
      <point x="762.75" y="766.0"/>
      <point x="972.25" y="1423.25" type="curve"/>
      <point x="934.25" y="1466.75"/>
      <point x="867.25" y="1500.25"/>
    </contour>
  </outline>
</glyph>
<glyph name="zero" format="2">
  <advance width="1087.0"/>
  <unicode hex="0030"/>
  <outline>
    <contour>
      <point x="531.75" y="-32.0" type="curve" smooth="yes"/>
      <point x="832.25" y="-32.0"/>
      <point x="964.75" y="280.25"/>
      <point x="964.75" y="641.0" type="curve" smooth="yes"/>
      <point x="964.75" y="1036.25"/>
      <point x="853.0" y="1338.0"/>
      <point x="531.75" y="1338.0" type="curve" smooth="yes"/>
      <point x="198.75" y="1338.0"/>
      <point x="83.5" y="1049.0"/>
      <point x="83.5" y="697.5" type="curve" smooth="yes"/>
      <point x="83.5" y="317.5"/>
      <point x="210.25" y="-32.0"/>
    </contour>
    <contour>
      <point x="531.25" y="269.25" type="curve" smooth="yes"/>
      <point x="433.25" y="269.25"/>
      <point x="370.0" y="373.5"/>
      <point x="370.0" y="699.25" type="curve" smooth="yes"/>
      <point x="370.0" y="865.5"/>
      <point x="414.0" y="1069.5"/>
      <point x="530.5" y="1069.5" type="curve" smooth="yes"/>
      <point x="648.0" y="1069.5"/>
      <point x="690.5" y="873.75"/>
      <point x="690.5" y="692.25" type="curve" smooth="yes"/>
      <point x="690.5" y="445.25"/>
      <point x="645.5" y="269.25"/>
    </contour>
  </outline>
</glyph>
<glyph name="one" format="2">
  <advance width="809.0"/>
  <unicode hex="0031"/>
  <outline>
    <contour>
      <point x="524.25" y="261.25" type="curve"/>
      <point x="532.25" y="399.5"/>
      <point x="535.25" y="536.75"/>
      <point x="535.25" y="662.0" type="curve" smooth="yes"/>
      <point x="535.25" y="995.75"/>
      <point x="523.25" y="1253.5"/>
      <point x="517.5" y="1299.25" type="curve"/>
      <point x="467.25" y="1307.75"/>
      <point x="354.75" y="1312.75"/>
      <point x="299.0" y="1312.75" type="curve"/>
      <point x="212.5" y="1239.0"/>
      <point x="46.5" y="1073.25"/>
      <point x="6.5" y="1032.25" type="curve"/>
      <point x="42.25" y="961.0"/>
      <point x="104.5" y="862.25"/>
      <point x="143.0" y="818.25" type="curve"/>
      <point x="160.0" y="839.5"/>
      <point x="249.0" y="940.5"/>
      <point x="278.0" y="965.25" type="curve"/>
      <point x="270.5" y="852.75"/>
      <point x="261.25" y="345.25"/>
      <point x="261.5" y="250.0" type="curve"/>
      <point x="225.75" y="246.75"/>
      <point x="122.0" y="234.5"/>
      <point x="79.25" y="225.25" type="curve"/>
      <point x="76.25" y="172.0"/>
      <point x="76.5" y="42.25"/>
      <point x="77.25" y="-12.0" type="curve"/>
      <point x="150.25" y="-4.0"/>
      <point x="600.0" y="9.0"/>
      <point x="686.75" y="9.0" type="curve"/>
      <point x="694.75" y="54.5"/>
      <point x="702.5" y="211.25"/>
      <point x="702.75" y="248.5" type="curve"/>
      <point x="665.5" y="255.0"/>
      <point x="589.25" y="261.25"/>
    </contour>
  </outline>
</glyph>
<glyph name="two" format="2">
  <advance width="995.0"/>
  <unicode hex="0032"/>
  <outline>
    <contour>
      <point x="873.5" y="337.0" type="curve"/>
      <point x="745.0" y="329.0"/>
      <point x="530.5" y="307.75"/>
      <point x="447.25" y="297.0" type="curve"/>
      <point x="482.0" y="330.5"/>
      <point x="561.0" y="424.0"/>
      <point x="684.75" y="581.0" type="curve" smooth="yes"/>
      <point x="809.25" y="740.25"/>
      <point x="871.0" y="901.0"/>
      <point x="871.0" y="1038.25" type="curve" smooth="yes"/>
      <point x="871.0" y="1238.5"/>
      <point x="742.5" y="1364.0"/>
      <point x="539.5" y="1364.0" type="curve" smooth="yes"/>
      <point x="326.75" y="1364.0"/>
      <point x="121.5" y="1219.5"/>
      <point x="27.5" y="1026.75" type="curve"/>
      <point x="71.25" y="982.75"/>
      <point x="191.25" y="899.0"/>
      <point x="254.25" y="868.5" type="curve"/>
      <point x="303.5" y="976.75"/>
      <point x="402.75" y="1074.0"/>
      <point x="504.0" y="1074.0" type="curve" smooth="yes"/>
      <point x="548.0" y="1074.0"/>
      <point x="587.25" y="1053.25"/>
      <point x="587.25" y="999.75" type="curve" smooth="yes"/>
      <point x="587.25" y="905.0"/>
      <point x="485.5" y="755.0"/>
      <point x="352.75" y="592.0" type="curve" smooth="yes"/>
      <point x="226.0" y="435.75"/>
      <point x="120.0" y="325.75"/>
      <point x="53.75" y="263.75" type="curve"/>
      <point x="57.5" y="170.0"/>
      <point x="94.75" y="5.0"/>
      <point x="99.75" y="-17.0" type="curve"/>
      <point x="897.5" y="27.0" type="line"/>
      <point x="899.0" y="64.0"/>
      <point x="896.0" y="276.75"/>
    </contour>
  </outline>
</glyph>
<glyph name="three" format="2">
  <advance width="1032.0"/>
  <unicode hex="0033"/>
  <outline>
    <contour>
      <point x="477.0" y="-3.0" type="curve" smooth="yes"/>
      <point x="723.0" y="-3.0"/>
      <point x="931.75" y="145.0"/>
      <point x="931.75" y="398.0" type="curve" smooth="yes"/>
      <point x="931.75" y="589.25"/>
      <point x="795.5" y="701.25"/>
      <point x="634.5" y="731.75" type="curve"/>
      <point x="756.75" y="767.0"/>
      <point x="865.25" y="882.75"/>
      <point x="865.25" y="1010.5" type="curve" smooth="yes"/>
      <point x="865.25" y="1216.5"/>
      <point x="692.5" y="1335.0"/>
      <point x="494.0" y="1335.0" type="curve" smooth="yes"/>
      <point x="234.25" y="1335.0"/>
      <point x="76.25" y="1194.75"/>
      <point x="26.0" y="1132.75" type="curve"/>
      <point x="37.0" y="1118.75"/>
      <point x="126.5" y="1027.75"/>
      <point x="214.25" y="959.25" type="curve"/>
      <point x="255.25" y="1009.0"/>
      <point x="364.0" y="1082.0"/>
      <point x="461.0" y="1082.0" type="curve" smooth="yes"/>
      <point x="536.5" y="1082.0"/>
      <point x="573.25" y="1037.5"/>
      <point x="573.25" y="975.5" type="curve" smooth="yes"/>
      <point x="573.25" y="863.5"/>
      <point x="405.25" y="787.0"/>
      <point x="252.0" y="787.0" type="curve"/>
      <point x="252.0" y="698.0"/>
      <point x="265.75" y="608.0"/>
      <point x="276.75" y="573.0" type="curve"/>
      <point x="507.25" y="573.0"/>
      <point x="650.0" y="525.0"/>
      <point x="650.0" y="380.25" type="curve" smooth="yes"/>
      <point x="650.0" y="286.25"/>
      <point x="582.0" y="237.5"/>
      <point x="482.25" y="237.5" type="curve" smooth="yes"/>
      <point x="381.0" y="237.5"/>
      <point x="327.0" y="292.5"/>
      <point x="298.25" y="369.0" type="curve"/>
      <point x="222.75" y="342.5"/>
      <point x="106.5" y="288.25"/>
      <point x="44.0" y="243.0" type="curve"/>
      <point x="103.75" y="82.0"/>
      <point x="260.75" y="-3.0"/>
    </contour>
  </outline>
</glyph>
<glyph name="four" format="2">
  <advance width="1104.0"/>
  <unicode hex="0034"/>
  <outline>
    <contour>
      <point x="996.5" y="324.75" type="curve"/>
      <point x="996.5" y="406.75"/>
      <point x="984.0" y="554.5"/>
      <point x="979.75" y="573.25" type="curve"/>
      <point x="962.75" y="574.0"/>
      <point x="866.0" y="573.75"/>
      <point x="808.25" y="572.5" type="curve"/>
      <point x="808.25" y="855.0"/>
      <point x="826.0" y="1252.75"/>
      <point x="832.5" y="1341.75" type="curve"/>
      <point x="764.0" y="1342.0"/>
      <point x="608.5" y="1330.75"/>
      <point x="567.75" y="1324.75" type="curve"/>
      <point x="513.75" y="1255.5"/>
      <point x="183.0" y="719.5"/>
      <point x="67.75" y="516.25" type="curve"/>
      <point x="78.25" y="429.5"/>
      <point x="93.25" y="346.75"/>
      <point x="111.5" y="264.5" type="curve"/>
      <point x="164.0" y="270.75"/>
      <point x="398.5" y="295.5"/>
      <point x="538.75" y="305.0" type="curve"/>
      <point x="528.5" y="181.0"/>
      <point x="521.0" y="63.5"/>
      <point x="521.0" y="-10.5" type="curve"/>
      <point x="570.5" y="-10.25"/>
      <point x="742.75" y="2.0"/>
      <point x="811.0" y="15.25" type="curve"/>
      <point x="808.25" y="68.75"/>
      <point x="806.0" y="171.5"/>
      <point x="806.0" y="321.75" type="curve"/>
      <point x="869.25" y="324.0"/>
      <point x="937.0" y="324.75"/>
    </contour>
    <contour>
      <point x="609.5" y="1010.5" type="curve"/>
      <point x="595.5" y="923.0"/>
      <point x="571.75" y="622.5"/>
      <point x="570.25" y="560.25" type="curve"/>
      <point x="504.25" y="559.25"/>
      <point x="360.75" y="542.75"/>
      <point x="333.0" y="538.5" type="curve"/>
      <point x="360.5" y="600.0"/>
      <point x="532.75" y="887.75"/>
    </contour>
  </outline>
</glyph>
<glyph name="five" format="2">
  <advance width="1137.0"/>
  <unicode hex="0035"/>
  <outline>
    <contour>
      <point x="26.5" y="226.75" type="curve"/>
      <point x="140.5" y="64.25"/>
      <point x="345.5" y="2.25"/>
      <point x="524.5" y="2.25" type="curve" smooth="yes"/>
      <point x="822.75" y="2.25"/>
      <point x="1039.75" y="200.0"/>
      <point x="1039.75" y="500.0" type="curve" smooth="yes"/>
      <point x="1039.75" y="736.0"/>
      <point x="896.0" y="945.75"/>
      <point x="660.5" y="945.75" type="curve" smooth="yes"/>
      <point x="543.5" y="945.75"/>
      <point x="451.75" y="878.25"/>
      <point x="428.25" y="828.75" type="curve"/>
      <point x="428.25" y="872.75"/>
      <point x="422.75" y="972.25"/>
      <point x="419.25" y="1029.0" type="curve"/>
      <point x="514.25" y="1046.0"/>
      <point x="763.0" y="1073.75"/>
      <point x="934.0" y="1080.5" type="curve"/>
      <point x="934.0" y="1185.5"/>
      <point x="892.0" y="1311.5"/>
      <point x="885.25" y="1329.75" type="curve"/>
      <point x="706.0" y="1314.75"/>
      <point x="252.75" y="1245.25"/>
      <point x="98.5" y="1210.75" type="curve"/>
      <point x="124.0" y="1013.25"/>
      <point x="139.25" y="798.5"/>
      <point x="139.25" y="571.25" type="curve"/>
      <point x="163.25" y="569.5"/>
      <point x="228.25" y="568.75"/>
      <point x="273.0" y="568.75" type="curve" smooth="yes"/>
      <point x="322.25" y="568.75"/>
      <point x="378.75" y="572.75"/>
      <point x="412.5" y="577.75" type="curve"/>
      <point x="417.5" y="633.25"/>
      <point x="481.5" y="723.75"/>
      <point x="599.25" y="723.75" type="curve" smooth="yes"/>
      <point x="720.5" y="723.75"/>
      <point x="769.5" y="619.75"/>
      <point x="769.5" y="516.5" type="curve" smooth="yes"/>
      <point x="769.5" y="362.75"/>
      <point x="677.75" y="265.0"/>
      <point x="528.5" y="265.0" type="curve" smooth="yes"/>
      <point x="388.5" y="265.0"/>
      <point x="287.5" y="341.25"/>
      <point x="240.75" y="421.0" type="curve"/>
      <point x="199.5" y="397.25"/>
      <point x="69.75" y="293.25"/>
    </contour>
  </outline>
</glyph>
<glyph name="six" format="2">
  <advance width="1154.0"/>
  <unicode hex="0036"/>
  <outline>
    <contour>
      <point x="852.75" y="1159.25" type="curve"/>
      <point x="835.25" y="1240.0"/>
      <point x="761.75" y="1348.75"/>
      <point x="718.0" y="1384.25" type="curve"/>
      <point x="321.5" y="1245.25"/>
      <point x="83.25" y="902.5"/>
      <point x="83.25" y="508.25" type="curve" smooth="yes"/>
      <point x="83.25" y="200.5"/>
      <point x="246.25" y="-9.0"/>
      <point x="545.5" y="-9.0" type="curve" smooth="yes"/>
      <point x="819.75" y="-9.0"/>
      <point x="1037.25" y="183.0"/>
      <point x="1037.25" y="473.0" type="curve" smooth="yes"/>
      <point x="1037.25" y="717.0"/>
      <point x="902.25" y="838.25"/>
      <point x="693.25" y="838.25" type="curve" smooth="yes"/>
      <point x="576.5" y="838.25"/>
      <point x="442.0" y="793.75"/>
      <point x="374.0" y="716.5" type="curve"/>
      <point x="442.25" y="898.5"/>
      <point x="653.25" y="1097.75"/>
    </contour>
    <contour>
      <point x="424.25" y="518.5" type="curve" smooth="yes"/>
      <point x="467.25" y="568.0"/>
      <point x="541.75" y="601.0"/>
      <point x="622.0" y="601.0" type="curve" smooth="yes"/>
      <point x="710.5" y="601.0"/>
      <point x="767.0" y="547.5"/>
      <point x="767.0" y="453.0" type="curve" smooth="yes"/>
      <point x="767.0" y="349.25"/>
      <point x="686.0" y="255.0"/>
      <point x="565.5" y="255.0" type="curve" smooth="yes"/>
      <point x="457.5" y="255.0"/>
      <point x="387.25" y="317.75"/>
      <point x="387.25" y="418.25" type="curve" smooth="yes"/>
      <point x="387.25" y="453.5"/>
      <point x="400.25" y="491.0"/>
    </contour>
  </outline>
</glyph>
<glyph name="seven" format="2">
  <advance width="1012.0"/>
  <unicode hex="0037"/>
  <outline>
    <contour>
      <point x="406.5" y="-38.5" type="curve"/>
      <point x="515.0" y="321.75"/>
      <point x="635.0" y="602.25"/>
      <point x="964.25" y="1125.0" type="curve"/>
      <point x="961.25" y="1154.0"/>
      <point x="929.5" y="1343.5"/>
      <point x="921.75" y="1374.5" type="curve"/>
      <point x="749.0" y="1374.5"/>
      <point x="348.75" y="1314.25"/>
      <point x="71.75" y="1251.25" type="curve"/>
      <point x="71.75" y="1189.5"/>
      <point x="90.0" y="998.5"/>
      <point x="101.25" y="951.5" type="curve"/>
      <point x="149.5" y="966.75"/>
      <point x="398.75" y="1026.0"/>
      <point x="615.5" y="1060.0" type="curve"/>
      <point x="397.75" y="797.5"/>
      <point x="192.25" y="391.75"/>
      <point x="74.5" y="67.75" type="curve"/>
      <point x="92.5" y="60.0"/>
      <point x="315.25" y="-12.75"/>
    </contour>
  </outline>
</glyph>
<glyph name="eight" format="2">
  <advance width="1243.0"/>
  <unicode hex="0038"/>
  <outline>
    <contour>
      <point x="610.75" y="-10.5" type="curve" smooth="yes"/>
      <point x="884.5" y="-10.5"/>
      <point x="1096.0" y="144.25"/>
      <point x="1096.0" y="384.5" type="curve" smooth="yes"/>
      <point x="1096.0" y="581.25"/>
      <point x="977.25" y="677.5"/>
      <point x="857.0" y="695.75" type="curve"/>
      <point x="983.25" y="741.25"/>
      <point x="1049.0" y="867.0"/>
      <point x="1049.0" y="1022.25" type="curve" smooth="yes"/>
      <point x="1049.0" y="1258.75"/>
      <point x="861.75" y="1374.25"/>
      <point x="618.0" y="1374.25" type="curve" smooth="yes"/>
      <point x="329.75" y="1374.25"/>
      <point x="102.75" y="1253.0"/>
      <point x="102.75" y="999.5" type="curve" smooth="yes"/>
      <point x="102.75" y="859.25"/>
      <point x="177.75" y="756.0"/>
      <point x="285.0" y="709.25" type="curve"/>
      <point x="155.75" y="649.0"/>
      <point x="60.0" y="533.75"/>
      <point x="60.0" y="377.0" type="curve" smooth="yes"/>
      <point x="60.0" y="113.25"/>
      <point x="284.25" y="-10.5"/>
    </contour>
    <contour>
      <point x="586.75" y="248.0" type="curve" smooth="yes"/>
      <point x="476.75" y="248.0"/>
      <point x="369.75" y="290.75"/>
      <point x="369.75" y="404.25" type="curve" smooth="yes"/>
      <point x="369.75" y="529.5"/>
      <point x="493.5" y="564.75"/>
      <point x="592.5" y="564.75" type="curve" smooth="yes"/>
      <point x="711.75" y="564.75"/>
      <point x="807.0" y="531.0"/>
      <point x="807.0" y="410.25" type="curve" smooth="yes"/>
      <point x="807.0" y="296.75"/>
      <point x="699.75" y="248.0"/>
    </contour>
    <contour>
      <point x="588.25" y="840.75" type="curve" smooth="yes"/>
      <point x="474.0" y="840.75"/>
      <point x="397.75" y="879.0"/>
      <point x="397.75" y="977.25" type="curve" smooth="yes"/>
      <point x="397.75" y="1067.25"/>
      <point x="464.0" y="1141.25"/>
      <point x="578.75" y="1141.25" type="curve" smooth="yes"/>
      <point x="684.25" y="1141.25"/>
      <point x="761.75" y="1101.25"/>
      <point x="761.75" y="999.75" type="curve" smooth="yes"/>
      <point x="761.75" y="913.75"/>
      <point x="695.0" y="840.75"/>
    </contour>
  </outline>
</glyph>
<glyph name="nine" format="2">
  <advance width="1067.0"/>
  <unicode hex="0039"/>
  <outline>
    <contour>
      <point x="878.25" y="23.25" type="curve"/>
      <point x="933.75" y="209.0"/>
      <point x="999.5" y="526.75"/>
      <point x="999.5" y="820.75" type="curve" smooth="yes"/>
      <point x="999.5" y="1152.75"/>
      <point x="852.25" y="1364.0"/>
      <point x="534.75" y="1364.0" type="curve" smooth="yes"/>
      <point x="272.75" y="1364.0"/>
      <point x="44.75" y="1190.25"/>
      <point x="44.75" y="890.25" type="curve" smooth="yes"/>
      <point x="44.75" y="649.5"/>
      <point x="198.25" y="484.75"/>
      <point x="452.0" y="484.75" type="curve" smooth="yes"/>
      <point x="573.75" y="484.75"/>
      <point x="668.5" y="529.25"/>
      <point x="695.0" y="568.75" type="curve"/>
      <point x="682.25" y="329.75"/>
      <point x="557.5" y="62.0"/>
      <point x="525.75" y="-0.5" type="curve"/>
      <point x="665.0" y="-0.5"/>
      <point x="808.25" y="9.0"/>
    </contour>
    <contour>
      <point x="539.25" y="1134.75" type="curve" smooth="yes"/>
      <point x="641.5" y="1134.75"/>
      <point x="699.5" y="1067.5"/>
      <point x="699.5" y="961.75" type="curve" smooth="yes"/>
      <point x="699.5" y="836.5"/>
      <point x="626.75" y="749.75"/>
      <point x="494.0" y="749.75" type="curve" smooth="yes"/>
      <point x="387.25" y="749.75"/>
      <point x="330.75" y="825.25"/>
      <point x="330.75" y="929.75" type="curve" smooth="yes"/>
      <point x="330.75" y="1055.75"/>
      <point x="417.5" y="1134.75"/>
    </contour>
  </outline>
</glyph>
<glyph name="colon" format="2">
  <advance width="564.0"/>
  <unicode hex="003A"/>
  <outline>
    <contour>
      <point x="258.25" y="-9.75" type="curve" smooth="yes"/>
      <point x="365.25" y="-9.75"/>
      <point x="452.75" y="65.25"/>
      <point x="452.75" y="173.25" type="curve" smooth="yes"/>
      <point x="452.75" y="287.0"/>
      <point x="372.75" y="377.75"/>
      <point x="256.25" y="377.75" type="curve" smooth="yes"/>
      <point x="144.75" y="377.75"/>
      <point x="54.5" y="280.0"/>
      <point x="54.5" y="172.0" type="curve" smooth="yes"/>
      <point x="54.5" y="72.5"/>
      <point x="145.5" y="-9.75"/>
    </contour>
    <component base="period" xOffset="-3.25" yOffset="673.25"/>
  </outline>
</glyph>
<glyph name="semicolon" format="2">
  <advance width="593.0"/>
  <unicode hex="003B"/>
  <outline>
    <contour>
      <point x="264.75" y="1022.5" type="curve" smooth="yes"/>
      <point x="151.5" y="1022.5"/>
      <point x="53.75" y="935.5"/>
      <point x="53.75" y="826.5" type="curve" smooth="yes"/>
      <point x="53.75" y="709.25"/>
      <point x="159.75" y="627.5"/>
      <point x="275.25" y="627.5" type="curve" smooth="yes"/>
      <point x="376.75" y="627.5"/>
      <point x="462.75" y="703.75"/>
      <point x="462.75" y="811.5" type="curve" smooth="yes"/>
      <point x="462.75" y="929.25"/>
      <point x="382.25" y="1022.5"/>
    </contour>
    <contour>
      <point x="298.0" y="-321.0" type="curve"/>
      <point x="424.75" y="-230.25"/>
      <point x="512.25" y="-90.75"/>
      <point x="512.25" y="80.25" type="curve" smooth="yes"/>
      <point x="512.25" y="238.5"/>
      <point x="395.75" y="298.75"/>
      <point x="281.25" y="298.75" type="curve" smooth="yes"/>
      <point x="171.25" y="298.75"/>
      <point x="56.25" y="242.0"/>
      <point x="56.25" y="120.25" type="curve" smooth="yes"/>
      <point x="56.25" y="37.5"/>
      <point x="106.75" y="-45.25"/>
      <point x="199.5" y="-45.25" type="curve" smooth="yes"/>
      <point x="253.5" y="-45.25"/>
      <point x="278.5" y="-27.75"/>
      <point x="294.0" y="-9.5" type="curve"/>
      <point x="295.5" y="-11.75"/>
      <point x="297.0" y="-16.5"/>
      <point x="297.0" y="-21.25" type="curve" smooth="yes"/>
      <point x="296.25" y="-62.75"/>
      <point x="216.5" y="-150.25"/>
      <point x="169.5" y="-176.75" type="curve"/>
      <point x="200.25" y="-228.5"/>
      <point x="275.5" y="-313.25"/>
    </contour>
  </outline>
</glyph>
<glyph name="less" format="2">
  <advance width="807.0"/>
  <unicode hex="003C"/>
  <outline>
    <contour>
      <point x="627.25" y="1134.75" type="curve"/>
      <point x="542.25" y="1087.75"/>
      <point x="231.75" y="825.5"/>
      <point x="21.0" y="640.5" type="curve"/>
      <point x="17.0" y="409.25" type="line"/>
      <point x="235.75" y="341.5"/>
      <point x="447.75" y="255.0"/>
      <point x="646.5" y="169.0" type="curve"/>
      <point x="666.75" y="236.75"/>
      <point x="689.5" y="346.0"/>
      <point x="690.0" y="411.25" type="curve"/>
      <point x="618.25" y="467.25"/>
      <point x="333.5" y="573.75"/>
      <point x="233.5" y="606.25" type="curve"/>
      <point x="232.5" y="527.75" type="line"/>
      <point x="420.5" y="684.75"/>
      <point x="574.0" y="806.0"/>
      <point x="764.5" y="945.5" type="curve"/>
      <point x="745.0" y="1003.5"/>
      <point x="693.75" y="1095.25"/>
    </contour>
  </outline>
</glyph>
<glyph name="equal" format="2">
  <advance width="1050.0"/>
  <unicode hex="003D"/>
  <outline>
    <contour>
      <point x="78.75" y="1077.25" type="curve"/>
      <point x="62.0" y="1045.5"/>
      <point x="50.75" y="888.75"/>
      <point x="50.75" y="834.5" type="curve"/>
      <point x="215.5" y="839.75"/>
      <point x="833.75" y="848.5"/>
      <point x="1016.25" y="848.5" type="curve"/>
      <point x="1016.25" y="883.0"/>
      <point x="999.25" y="1101.75"/>
      <point x="992.5" y="1142.5" type="curve"/>
      <point x="757.5" y="1142.5"/>
      <point x="222.5" y="1106.25"/>
    </contour>
    <contour>
      <point x="21.5" y="647.5" type="curve"/>
      <point x="20.5" y="592.5"/>
      <point x="26.5" y="433.5"/>
      <point x="33.25" y="401.75" type="curve"/>
      <point x="225.5" y="404.75"/>
      <point x="872.5" y="402.75"/>
      <point x="1021.75" y="402.75" type="curve"/>
      <point x="1021.75" y="437.25"/>
      <point x="1007.25" y="632.25"/>
      <point x="999.5" y="673.25" type="curve"/>
      <point x="929.5" y="677.5"/>
      <point x="835.5" y="680.0"/>
      <point x="733.0" y="680.0" type="curve" smooth="yes"/>
      <point x="506.5" y="680.0"/>
      <point x="230.25" y="667.75"/>
    </contour>
  </outline>
</glyph>
<glyph name="greater" format="2">
  <advance width="790.0"/>
  <unicode hex="003E"/>
  <outline>
    <contour>
      <point x="55.25" y="966.5" type="curve"/>
      <point x="159.75" y="893.25"/>
      <point x="424.75" y="715.25"/>
      <point x="514.0" y="655.5" type="curve"/>
      <point x="544.0" y="756.25" type="line"/>
      <point x="384.25" y="647.0"/>
      <point x="49.5" y="432.25"/>
      <point x="16.5" y="418.5" type="curve"/>
      <point x="16.5" y="383.0"/>
      <point x="61.75" y="228.75"/>
      <point x="91.0" y="200.25" type="curve"/>
      <point x="130.75" y="210.25"/>
      <point x="500.75" y="388.5"/>
      <point x="763.5" y="522.0" type="curve"/>
      <point x="757.0" y="797.0" type="line"/>
      <point x="561.5" y="935.0"/>
      <point x="284.0" y="1120.5"/>
      <point x="231.0" y="1134.5" type="curve"/>
      <point x="176.5" y="1105.75"/>
      <point x="98.75" y="1022.25"/>
    </contour>
  </outline>
</glyph>
<glyph name="question" format="2">
  <advance width="1036.0"/>
  <unicode hex="003F"/>
  <outline>
    <contour>
      <point x="651.5" y="440.25" type="curve"/>
      <point x="656.0" y="594.25"/>
      <point x="730.25" y="706.0"/>
      <point x="809.25" y="775.5" type="curve" smooth="yes"/>
      <point x="894.0" y="850.5"/>
      <point x="973.0" y="936.25"/>
      <point x="973.0" y="1113.75" type="curve" smooth="yes"/>
      <point x="973.0" y="1353.75"/>
      <point x="771.75" y="1472.0"/>
      <point x="511.25" y="1472.0" type="curve" smooth="yes"/>
      <point x="267.0" y="1472.0"/>
      <point x="46.75" y="1347.25"/>
      <point x="-3.75" y="1122.25" type="curve"/>
      <point x="248.5" y="977.5" type="line"/>
      <point x="296.0" y="1110.25"/>
      <point x="373.75" y="1193.75"/>
      <point x="507.25" y="1193.75" type="curve" smooth="yes"/>
      <point x="591.75" y="1193.75"/>
      <point x="646.0" y="1151.25"/>
      <point x="646.0" y="1075.5" type="curve" smooth="yes"/>
      <point x="646.0" y="1014.0"/>
      <point x="599.0" y="954.75"/>
      <point x="525.5" y="889.75" type="curve" smooth="yes"/>
      <point x="393.75" y="772.25"/>
      <point x="320.0" y="634.0"/>
      <point x="320.0" y="456.0" type="curve"/>
      <point x="432.5" y="444.25"/>
      <point x="515.0" y="440.25"/>
    </contour>
    <contour>
      <point x="508.0" y="-10.0" type="curve" smooth="yes"/>
      <point x="617.5" y="-10.0"/>
      <point x="713.25" y="75.25"/>
      <point x="713.25" y="183.25" type="curve" smooth="yes"/>
      <point x="713.25" y="283.0"/>
      <point x="621.75" y="351.5"/>
      <point x="501.0" y="351.5" type="curve" smooth="yes"/>
      <point x="398.0" y="351.5"/>
      <point x="301.75" y="266.0"/>
      <point x="301.75" y="170.5" type="curve" smooth="yes"/>
      <point x="301.75" y="56.5"/>
      <point x="397.75" y="-10.0"/>
    </contour>
  </outline>
</glyph>
<glyph name="at" format="2">
  <advance width="1920.0"/>
  <unicode hex="0040"/>
  <outline>
    <contour>
      <point x="834.0" y="-41.0" type="curve" smooth="yes"/>
      <point x="1124.5" y="-41.0"/>
      <point x="1346.0" y="43.0"/>
      <point x="1428.0" y="178.0" type="curve"/>
      <point x="1230.5" y="332.5" type="line"/>
      <point x="1171.5" y="254.5"/>
      <point x="1041.25" y="184.0"/>
      <point x="850.25" y="184.0" type="curve" smooth="yes"/>
      <point x="548.5" y="184.0"/>
      <point x="297.5" y="350.75"/>
      <point x="297.5" y="645.5" type="curve" smooth="yes"/>
      <point x="297.5" y="1020.0"/>
      <point x="624.75" y="1264.5"/>
      <point x="1013.75" y="1264.5" type="curve" smooth="yes"/>
      <point x="1342.0" y="1264.5"/>
      <point x="1558.0" y="1072.75"/>
      <point x="1558.0" y="754.0" type="curve" smooth="yes"/>
      <point x="1558.0" y="660.5"/>
      <point x="1530.0" y="572.25"/>
      <point x="1457.5" y="572.25" type="curve" smooth="yes"/>
      <point x="1409.0" y="572.25"/>
      <point x="1381.25" y="593.0"/>
      <point x="1366.0" y="660.5" type="curve" smooth="yes"/>
      <point x="1359.5" y="689.25"/>
      <point x="1314.25" y="909.0"/>
      <point x="1274.5" y="1117.75" type="curve"/>
      <point x="1225.0" y="1115.5"/>
      <point x="1116.75" y="1110.75"/>
      <point x="1076.25" y="1110.0" type="curve"/>
      <point x="1077.75" y="1093.5"/>
      <point x="1081.75" y="1055.75"/>
      <point x="1086.25" y="1032.0" type="curve"/>
      <point x="1043.25" y="1072.5"/>
      <point x="975.0" y="1089.25"/>
      <point x="879.75" y="1089.25" type="curve" smooth="yes"/>
      <point x="660.25" y="1089.25"/>
      <point x="493.0" y="911.5"/>
      <point x="493.0" y="694.5" type="curve" smooth="yes"/>
      <point x="493.0" y="481.75"/>
      <point x="632.5" y="351.5"/>
      <point x="857.75" y="351.5" type="curve" smooth="yes"/>
      <point x="1003.25" y="351.5"/>
      <point x="1154.75" y="403.25"/>
      <point x="1204.5" y="504.0" type="curve"/>
      <point x="1239.0" y="406.25"/>
      <point x="1349.0" y="345.0"/>
      <point x="1470.0" y="345.0" type="curve" smooth="yes"/>
      <point x="1699.5" y="345.0"/>
      <point x="1815.25" y="515.25"/>
      <point x="1815.25" y="738.0" type="curve" smooth="yes"/>
      <point x="1815.25" y="1204.75"/>
      <point x="1485.0" y="1497.0"/>
      <point x="1003.5" y="1497.0" type="curve" smooth="yes"/>
      <point x="463.25" y="1497.0"/>
      <point x="18.0" y="1158.25"/>
      <point x="18.0" y="631.25" type="curve" smooth="yes"/>
      <point x="18.0" y="190.75"/>
      <point x="380.0" y="-41.0"/>
    </contour>
    <contour>
      <point x="906.75" y="584.0" type="curve" smooth="yes"/>
      <point x="828.25" y="584.0"/>
      <point x="760.75" y="624.25"/>
      <point x="760.75" y="716.5" type="curve" smooth="yes"/>
      <point x="760.75" y="803.0"/>
      <point x="825.75" y="868.75"/>
      <point x="950.5" y="868.75" type="curve" smooth="yes"/>
      <point x="1014.75" y="868.75"/>
      <point x="1066.0" y="859.75"/>
      <point x="1098.75" y="840.75" type="curve"/>
      <point x="1128.75" y="703.0" type="line"/>
      <point x="1083.25" y="635.25"/>
      <point x="1010.0" y="584.0"/>
    </contour>
  </outline>
</glyph>
<glyph name="A" format="2">
  <advance width="1158.5"/>
  <unicode hex="0041"/>
  <anchor x="576.25" y="0.0" name="bottom"/>
  <anchor x="1107.25" y="4.0" name="ogonek"/>
  <anchor x="644.0" y="1326.0" name="top"/>
  <outline>
    <contour>
      <point x="377.75" y="-15.0" type="curve"/>
      <point x="387.75" y="65.5"/>
      <point x="414.0" y="213.0"/>
      <point x="444.25" y="349.5" type="curve"/>
      <point x="482.25" y="357.5"/>
      <point x="646.0" y="370.0"/>
      <point x="752.0" y="371.5" type="curve"/>
      <point x="754.75" y="259.25"/>
      <point x="761.0" y="80.0"/>
      <point x="766.75" y="-15.0" type="curve"/>
      <point x="869.25" y="-15.0"/>
      <point x="1040.5" y="-6.0"/>
      <point x="1107.25" y="4.0" type="curve"/>
      <point x="1051.25" y="742.5"/>
      <point x="996.25" y="1089.0"/>
      <point x="944.5" y="1323.0" type="curve"/>
      <point x="875.0" y="1331.5"/>
      <point x="804.5" y="1335.75"/>
      <point x="734.25" y="1335.75" type="curve" smooth="yes"/>
      <point x="609.25" y="1335.75"/>
      <point x="477.75" y="1323.0"/>
      <point x="342.5" y="1305.5" type="curve"/>
      <point x="243.75" y="954.0"/>
      <point x="80.5" y="244.5"/>
      <point x="37.75" y="-3.25" type="curve"/>
      <point x="121.5" y="-8.25"/>
      <point x="312.25" y="-15.0"/>
    </contour>
    <contour>
      <point x="485.25" y="627.0" type="curve"/>
      <point x="507.5" y="753.5"/>
      <point x="551.0" y="976.5"/>
      <point x="567.75" y="1054.0" type="curve"/>
      <point x="591.0" y="1057.0"/>
      <point x="686.75" y="1064.0"/>
      <point x="720.25" y="1064.0" type="curve"/>
      <point x="727.5" y="1006.0"/>
      <point x="741.25" y="705.25"/>
      <point x="744.75" y="647.75" type="curve"/>
      <point x="678.5" y="646.25"/>
      <point x="530.25" y="635.25"/>
    </contour>
  </outline>
</glyph>
<glyph name="B" format="2">
  <advance width="1174.0"/>
  <unicode hex="0042"/>
  <anchor x="587.0" y="0.0" name="bottom"/>
  <anchor x="587.0" y="1291.0" name="top"/>
  <outline>
    <contour>
      <point x="105.75" y="23.25" type="curve"/>
      <point x="170.5" y="9.0"/>
      <point x="266.75" y="2.5"/>
      <point x="366.5" y="2.5" type="curve" smooth="yes"/>
      <point x="792.0" y="2.5"/>
      <point x="1087.25" y="73.75"/>
      <point x="1087.25" y="429.5" type="curve" smooth="yes"/>
      <point x="1087.25" y="595.0"/>
      <point x="964.5" y="707.25"/>
      <point x="786.5" y="718.5" type="curve" smooth="yes"/>
      <point x="775.5" y="719.25"/>
      <point x="768.5" y="719.25"/>
      <point x="761.75" y="719.0" type="curve"/>
      <point x="859.0" y="737.75"/>
      <point x="990.5" y="843.25"/>
      <point x="990.5" y="1002.5" type="curve" smooth="yes"/>
      <point x="990.5" y="1220.75"/>
      <point x="823.5" y="1306.0"/>
      <point x="589.0" y="1306.0" type="curve" smooth="yes"/>
      <point x="428.25" y="1306.0"/>
      <point x="242.0" y="1293.0"/>
      <point x="131.25" y="1285.0" type="curve"/>
      <point x="131.25" y="1256.0"/>
      <point x="105.75" y="205.0"/>
    </contour>
    <contour>
      <point x="434.75" y="299.75" type="curve"/>
      <point x="429.75" y="559.75" type="line"/>
      <point x="474.5" y="564.75"/>
      <point x="539.25" y="566.75"/>
      <point x="573.25" y="566.75" type="curve" smooth="yes"/>
      <point x="727.5" y="566.75"/>
      <point x="791.25" y="525.0"/>
      <point x="791.25" y="445.25" type="curve" smooth="yes"/>
      <point x="791.25" y="329.25"/>
      <point x="630.0" y="299.0"/>
      <point x="485.5" y="299.0" type="curve" smooth="yes"/>
      <point x="464.5" y="299.0"/>
      <point x="446.25" y="299.0"/>
    </contour>
    <contour>
      <point x="425.5" y="812.75" type="curve"/>
      <point x="420.0" y="1064.25" type="line"/>
      <point x="462.0" y="1069.75"/>
      <point x="526.5" y="1077.5"/>
      <point x="575.5" y="1077.5" type="curve" smooth="yes"/>
      <point x="660.75" y="1077.5"/>
      <point x="721.75" y="1038.75"/>
      <point x="721.75" y="959.5" type="curve" smooth="yes"/>
      <point x="721.75" y="884.5"/>
      <point x="645.0" y="838.5"/>
      <point x="566.5" y="827.0" type="curve" smooth="yes"/>
      <point x="535.25" y="815.75"/>
      <point x="496.25" y="813.25"/>
    </contour>
  </outline>
</glyph>
<glyph name="C" format="2">
  <advance width="1137.0"/>
  <unicode hex="0043"/>
  <anchor x="569.0" y="0.0" name="bottom"/>
  <anchor x="561.5" y="1293.5" name="top"/>
  <outline>
    <contour>
      <point x="1097.0" y="233.5" type="curve"/>
      <point x="1053.75" y="305.75"/>
      <point x="944.0" y="408.5"/>
      <point x="872.5" y="458.75" type="curve"/>
      <point x="802.5" y="379.75"/>
      <point x="711.25" y="310.5"/>
      <point x="603.0" y="310.5" type="curve" smooth="yes"/>
      <point x="452.0" y="310.5"/>
      <point x="380.0" y="481.25"/>
      <point x="380.0" y="686.75" type="curve" smooth="yes"/>
      <point x="380.0" y="902.75"/>
      <point x="469.5" y="1046.75"/>
      <point x="607.75" y="1046.75" type="curve" smooth="yes"/>
      <point x="755.75" y="1046.75"/>
      <point x="822.75" y="913.75"/>
      <point x="833.75" y="885.0" type="curve"/>
      <point x="899.5" y="926.0"/>
      <point x="1019.75" y="1016.0"/>
      <point x="1074.0" y="1075.75" type="curve"/>
      <point x="978.25" y="1242.0"/>
      <point x="798.0" y="1326.0"/>
      <point x="600.5" y="1326.0" type="curve" smooth="yes"/>
      <point x="237.75" y="1326.0"/>
      <point x="35.0" y="1045.25"/>
      <point x="35.0" y="663.25" type="curve" smooth="yes"/>
      <point x="35.0" y="270.25"/>
      <point x="238.0" y="-12.25"/>
      <point x="608.75" y="-12.25" type="curve" smooth="yes"/>
      <point x="826.0" y="-12.25"/>
      <point x="996.0" y="109.0"/>
    </contour>
  </outline>
</glyph>
<glyph name="D" format="2">
  <advance width="1198.0"/>
  <unicode hex="0044"/>
  <anchor x="599.0" y="0.0" name="bottom"/>
  <anchor x="318.0" y="646.0" name="center"/>
  <anchor x="525.25" y="1291.0" name="top"/>
  <outline>
    <contour>
      <point x="167.25" y="-32.25" type="curve"/>
      <point x="817.75" y="-27.5"/>
      <point x="1103.0" y="90.0"/>
      <point x="1103.0" y="637.5" type="curve" smooth="yes"/>
      <point x="1103.0" y="1111.5"/>
      <point x="929.5" y="1325.0"/>
      <point x="436.5" y="1325.0" type="curve" smooth="yes"/>
      <point x="307.75" y="1325.0"/>
      <point x="138.5" y="1308.75"/>
      <point x="58.25" y="1299.0" type="curve"/>
      <point x="66.0" y="1181.0"/>
      <point x="141.0" y="188.25"/>
    </contour>
    <contour>
      <point x="466.25" y="299.0" type="curve"/>
      <point x="448.5" y="522.25"/>
      <point x="427.5" y="826.5"/>
      <point x="412.75" y="1046.25" type="curve"/>
      <point x="433.5" y="1047.75"/>
      <point x="463.5" y="1048.25"/>
      <point x="488.25" y="1048.25" type="curve" smooth="yes"/>
      <point x="704.75" y="1048.25"/>
      <point x="778.5" y="840.25"/>
      <point x="778.5" y="616.0" type="curve" smooth="yes"/>
      <point x="778.5" y="414.25"/>
      <point x="704.25" y="307.25"/>
    </contour>
  </outline>
</glyph>
<glyph name="E" format="2">
  <advance width="957.0"/>
  <unicode hex="0045"/>
  <anchor x="494.0" y="0.0" name="bottom"/>
  <anchor x="691.75" y="0.25" name="ogonek"/>
  <anchor x="494.0" y="1318.5" name="top"/>
  <anchor x="35.0" y="1291.0" name="topleft"/>
  <outline>
    <contour>
      <point x="816.5" y="-13.5" type="curve"/>
      <point x="826.75" y="18.75"/>
      <point x="848.5" y="210.0"/>
      <point x="849.0" y="316.75" type="curve"/>
      <point x="793.25" y="321.25"/>
      <point x="686.75" y="327.5"/>
      <point x="585.5" y="327.5" type="curve" smooth="yes"/>
      <point x="506.25" y="327.5"/>
      <point x="416.25" y="327.25"/>
      <point x="398.75" y="326.75" type="curve"/>
      <point x="398.75" y="379.75"/>
      <point x="401.0" y="556.5"/>
      <point x="402.5" y="590.25" type="curve"/>
      <point x="450.25" y="591.0"/>
      <point x="663.25" y="580.75"/>
      <point x="708.75" y="578.5" type="curve"/>
      <point x="712.0" y="838.0" type="line"/>
      <point x="623.75" y="836.5"/>
      <point x="487.25" y="831.25"/>
      <point x="409.75" y="830.5" type="curve"/>
      <point x="409.75" y="866.0"/>
      <point x="410.5" y="998.0"/>
      <point x="414.0" y="1032.75" type="curve"/>
      <point x="841.5" y="1067.75" type="line"/>
      <point x="849.75" y="1160.0"/>
      <point x="856.0" y="1240.5"/>
      <point x="856.0" y="1327.0" type="curve"/>
      <point x="801.0" y="1327.0"/>
      <point x="477.25" y="1320.75"/>
      <point x="100.75" y="1251.0" type="curve"/>
      <point x="95.5" y="1159.5"/>
      <point x="88.5" y="945.25"/>
      <point x="88.5" y="647.5" type="curve" smooth="yes"/>
      <point x="88.5" y="461.75"/>
      <point x="92.25" y="248.75"/>
      <point x="100.75" y="23.75" type="curve"/>
      <point x="208.0" y="18.25"/>
      <point x="320.75" y="12.5"/>
      <point x="428.0" y="7.25" type="curve" smooth="yes"/>
      <point x="559.5" y="2.0"/>
      <point x="685.75" y="-5.25"/>
    </contour>
  </outline>
</glyph>
<glyph name="F" format="2">
  <advance width="949.0"/>
  <unicode hex="0046"/>
  <anchor x="475.0" y="0.0" name="bottom"/>
  <anchor x="475.0" y="1291.0" name="top"/>
  <outline>
    <contour>
      <point x="474.75" y="-6.5" type="line"/>
      <point x="467.25" y="170.75"/>
      <point x="452.25" y="386.75"/>
      <point x="436.0" y="552.25" type="curve"/>
      <point x="545.5" y="552.25"/>
      <point x="691.5" y="541.5"/>
      <point x="777.75" y="532.0" type="curve"/>
      <point x="784.75" y="625.5"/>
      <point x="785.5" y="711.25"/>
      <point x="785.5" y="789.5" type="curve"/>
      <point x="732.5" y="799.0"/>
      <point x="551.0" y="817.25"/>
      <point x="413.25" y="817.25" type="curve"/>
      <point x="409.5" y="883.75"/>
      <point x="403.25" y="978.0"/>
      <point x="397.75" y="1026.75" type="curve"/>
      <point x="594.0" y="1026.75"/>
      <point x="793.0" y="1010.0"/>
      <point x="870.25" y="1005.25" type="curve"/>
      <point x="870.25" y="1076.25"/>
      <point x="865.5" y="1185.75"/>
      <point x="857.75" y="1280.0" type="curve"/>
      <point x="768.75" y="1297.25"/>
      <point x="646.75" y="1310.25"/>
      <point x="495.25" y="1311.25" type="curve" smooth="yes"/>
      <point x="372.75" y="1312.0"/>
      <point x="234.25" y="1310.75"/>
      <point x="89.0" y="1302.5" type="curve"/>
      <point x="107.25" y="886.75"/>
      <point x="124.75" y="441.25"/>
      <point x="132.25" y="9.75" type="curve"/>
    </contour>
  </outline>
</glyph>
<glyph name="G" format="2">
  <advance width="1275.0"/>
  <unicode hex="0047"/>
  <anchor x="648.0" y="0.0" name="bottom"/>
  <anchor x="648.0" y="1291.0" name="top"/>
  <outline>
    <contour>
      <point x="687.0" y="-48.0" type="curve" smooth="yes"/>
      <point x="1026.0" y="-48.0"/>
      <point x="1188.75" y="196.25"/>
      <point x="1188.75" y="486.75" type="curve" smooth="yes"/>
      <point x="1188.75" y="537.75"/>
      <point x="1184.0" y="605.75"/>
      <point x="1171.0" y="654.5" type="curve"/>
      <point x="1023.25" y="692.75"/>
      <point x="755.75" y="725.25"/>
      <point x="615.0" y="727.75" type="curve"/>
      <point x="608.25" y="674.0"/>
      <point x="604.5" y="553.5"/>
      <point x="605.0" y="498.75" type="curve"/>
      <point x="672.0" y="496.75"/>
      <point x="841.25" y="475.75"/>
      <point x="886.75" y="464.25" type="curve"/>
      <point x="888.75" y="451.0"/>
      <point x="889.75" y="436.0"/>
      <point x="889.75" y="418.25" type="curve" smooth="yes"/>
      <point x="889.75" y="319.5"/>
      <point x="816.75" y="233.25"/>
      <point x="690.25" y="233.25" type="curve" smooth="yes"/>
      <point x="484.0" y="233.25"/>
      <point x="387.0" y="396.5"/>
      <point x="387.0" y="628.0" type="curve" smooth="yes"/>
      <point x="387.0" y="857.5"/>
      <point x="492.25" y="1030.0"/>
      <point x="642.0" y="1030.0" type="curve" smooth="yes"/>
      <point x="757.0" y="1030.0"/>
      <point x="825.75" y="972.0"/>
      <point x="871.5" y="903.75" type="curve"/>
      <point x="964.25" y="960.75"/>
      <point x="1086.0" y="1070.75"/>
      <point x="1122.0" y="1113.75" type="curve"/>
      <point x="1028.0" y="1251.0"/>
      <point x="841.5" y="1338.0"/>
      <point x="640.5" y="1338.0" type="curve" smooth="yes"/>
      <point x="272.75" y="1338.0"/>
      <point x="67.5" y="1051.0"/>
      <point x="67.5" y="646.0" type="curve" smooth="yes"/>
      <point x="67.5" y="211.0"/>
      <point x="295.0" y="-48.0"/>
    </contour>
  </outline>
</glyph>
<glyph name="H" format="2">
  <advance width="1094.0"/>
  <unicode hex="0048"/>
  <anchor x="547.0" y="0.0" name="bottom"/>
  <anchor x="523.75" y="1063.0" name="center"/>
  <anchor x="547.0" y="1291.0" name="top"/>
  <anchor x="20.0" y="1291.0" name="topleft"/>
  <outline>
    <contour>
      <point x="115.75" y="3.25" type="curve"/>
      <point x="183.5" y="3.25"/>
      <point x="371.0" y="9.5"/>
      <point x="433.25" y="17.5" type="curve"/>
      <point x="432.0" y="72.25"/>
      <point x="419.0" y="367.25"/>
      <point x="413.0" y="511.25" type="curve"/>
      <point x="474.75" y="511.25"/>
      <point x="594.25" y="513.75"/>
      <point x="662.75" y="515.75" type="curve"/>
      <point x="662.75" y="367.0"/>
      <point x="663.5" y="184.75"/>
      <point x="663.5" y="1.0" type="curve"/>
      <point x="775.75" y="1.0"/>
      <point x="907.75" y="5.0"/>
      <point x="953.25" y="9.5" type="curve"/>
      <point x="953.75" y="110.0"/>
      <point x="958.0" y="323.0"/>
      <point x="965.5" y="538.0" type="curve" smooth="yes"/>
      <point x="974.5" y="847.25"/>
      <point x="992.25" y="1204.5"/>
      <point x="1006.25" y="1299.0" type="curve"/>
      <point x="967.0" y="1303.75"/>
      <point x="884.5" y="1306.5"/>
      <point x="801.25" y="1306.5" type="curve" smooth="yes"/>
      <point x="759.25" y="1306.5"/>
      <point x="711.75" y="1305.75"/>
      <point x="680.75" y="1304.0" type="curve"/>
      <point x="673.5" y="1164.5"/>
      <point x="668.25" y="878.5"/>
      <point x="664.75" y="795.25" type="curve"/>
      <point x="604.5" y="794.5"/>
      <point x="474.0" y="789.0"/>
      <point x="400.75" y="781.0" type="curve"/>
      <point x="398.25" y="824.0"/>
      <point x="394.5" y="947.25"/>
      <point x="394.5" y="1048.25" type="curve" smooth="yes"/>
      <point x="394.5" y="1127.0"/>
      <point x="394.5" y="1224.5"/>
      <point x="396.5" y="1295.0" type="curve"/>
      <point x="316.75" y="1295.0"/>
      <point x="106.5" y="1285.0"/>
      <point x="81.0" y="1282.0" type="curve"/>
      <point x="77.0" y="1230.75"/>
      <point x="75.25" y="1153.75"/>
      <point x="75.25" y="1061.0" type="curve" smooth="yes"/>
      <point x="75.25" y="711.75"/>
      <point x="98.75" y="147.5"/>
    </contour>
  </outline>
</glyph>
<glyph name="I" format="2">
  <advance width="578.5"/>
  <unicode hex="0049"/>
  <anchor x="297.5" y="0.0" name="bottom"/>
  <anchor x="432.0" y="-18.0" name="ogonek"/>
  <anchor x="297.5" y="1291.0" name="top"/>
  <anchor x="50.25" y="1291.0" name="topleft"/>
  <outline>
    <contour>
      <point x="432.0" y="-18.0" type="curve"/>
      <point x="447.75" y="82.0"/>
      <point x="452.25" y="352.0"/>
      <point x="452.25" y="556.75" type="curve" smooth="yes"/>
      <point x="452.25" y="806.0"/>
      <point x="444.0" y="1106.75"/>
      <point x="434.25" y="1322.25" type="curve"/>
      <point x="355.0" y="1322.25"/>
      <point x="177.5" y="1317.5"/>
      <point x="133.0" y="1315.5" type="curve"/>
      <point x="127.25" y="1055.0"/>
      <point x="124.25" y="809.75"/>
      <point x="124.25" y="597.25" type="curve" smooth="yes"/>
      <point x="124.25" y="388.0"/>
      <point x="128.75" y="124.5"/>
      <point x="133.0" y="-5.0" type="curve"/>
      <point x="219.25" y="-16.75"/>
      <point x="353.25" y="-18.0"/>
    </contour>
  </outline>
</glyph>
<glyph name="J" format="2">
  <advance width="1178.0"/>
  <unicode hex="004A"/>
  <anchor x="589.0" y="0.0" name="bottom"/>
  <anchor x="805.5" y="1297.75" name="top"/>
  <outline>
    <contour>
      <point x="532.75" y="-19.0" type="curve" smooth="yes"/>
      <point x="845.5" y="-19.0"/>
      <point x="1036.5" y="147.25"/>
      <point x="1036.5" y="606.75" type="curve" smooth="yes"/>
      <point x="1036.5" y="781.75"/>
      <point x="1017.25" y="1110.0"/>
      <point x="1002.0" y="1286.5" type="curve"/>
      <point x="954.25" y="1292.75"/>
      <point x="907.75" y="1294.75"/>
      <point x="847.75" y="1294.75" type="curve" smooth="yes"/>
      <point x="791.25" y="1294.75"/>
      <point x="720.5" y="1287.5"/>
      <point x="669.0" y="1277.0" type="curve"/>
      <point x="672.25" y="1255.0"/>
      <point x="709.0" y="835.5"/>
      <point x="709.0" y="628.75" type="curve" smooth="yes"/>
      <point x="709.0" y="401.5"/>
      <point x="668.25" y="288.75"/>
      <point x="551.25" y="288.75" type="curve" smooth="yes"/>
      <point x="443.0" y="288.75"/>
      <point x="349.5" y="400.75"/>
      <point x="312.0" y="547.75" type="curve"/>
      <point x="238.0" y="520.0"/>
      <point x="61.25" y="437.0"/>
      <point x="13.5" y="401.25" type="curve"/>
      <point x="65.0" y="140.0"/>
      <point x="256.0" y="-19.0"/>
    </contour>
  </outline>
</glyph>
<glyph name="K" format="2">
  <advance width="1101.5"/>
  <unicode hex="004B"/>
  <anchor x="558.0" y="0.0" name="bottom"/>
  <anchor x="558.0" y="1291.0" name="top"/>
  <outline>
    <contour>
      <point x="111.75" y="-32.0" type="curve"/>
      <point x="247.25" y="-17.0"/>
      <point x="407.5" y="-0.75"/>
      <point x="445.25" y="1.5" type="curve"/>
      <point x="445.25" y="41.25"/>
      <point x="429.0" y="299.25"/>
      <point x="417.25" y="462.0" type="curve"/>
      <point x="436.25" y="472.0"/>
      <point x="456.5" y="485.25"/>
      <point x="478.5" y="502.25" type="curve"/>
      <point x="582.75" y="372.75"/>
      <point x="742.0" y="81.25"/>
      <point x="777.0" y="-3.25" type="curve"/>
      <point x="866.5" y="25.75"/>
      <point x="1009.0" y="98.75"/>
      <point x="1060.25" y="133.5" type="curve"/>
      <point x="1028.75" y="207.25"/>
      <point x="840.75" y="507.0"/>
      <point x="675.75" y="693.75" type="curve"/>
      <point x="836.5" y="832.0"/>
      <point x="1002.5" y="1069.75"/>
      <point x="1035.25" y="1144.5" type="curve"/>
      <point x="991.0" y="1167.25"/>
      <point x="876.0" y="1233.0"/>
      <point x="772.25" y="1312.5" type="curve"/>
      <point x="654.0" y="1084.5"/>
      <point x="501.0" y="874.75"/>
      <point x="397.0" y="783.75" type="curve"/>
      <point x="387.5" y="959.5"/>
      <point x="378.5" y="1229.25"/>
      <point x="376.0" y="1297.0" type="curve"/>
      <point x="345.0" y="1302.75"/>
      <point x="286.0" y="1308.25"/>
      <point x="222.5" y="1308.25" type="curve" smooth="yes"/>
      <point x="170.25" y="1308.25"/>
      <point x="103.5" y="1304.25"/>
      <point x="58.0" y="1296.0" type="curve"/>
      <point x="79.5" y="927.0"/>
      <point x="111.75" y="197.25"/>
    </contour>
  </outline>
</glyph>
<glyph name="L" format="2">
  <advance width="961.0"/>
  <unicode hex="004C"/>
  <anchor x="506.0" y="0.0" name="bottom"/>
  <anchor x="506.0" y="646.0" name="center"/>
  <anchor x="275.75" y="1300.5" name="top"/>
  <anchor x="555.5" y="912.25" name="topright"/>
  <outline>
    <contour>
      <point x="97.5" y="23.75" type="curve"/>
      <point x="187.75" y="15.5"/>
      <point x="303.5" y="10.75"/>
      <point x="425.0" y="12.0" type="curve" smooth="yes"/>
      <point x="571.75" y="13.25"/>
      <point x="739.5" y="23.0"/>
      <point x="899.5" y="43.75" type="curve"/>
      <point x="900.5" y="137.25"/>
      <point x="894.5" y="304.0"/>
      <point x="886.0" y="355.75" type="curve"/>
      <point x="728.75" y="355.75"/>
      <point x="576.75" y="350.0"/>
      <point x="420.0" y="340.75" type="curve"/>
      <point x="425.0" y="392.5"/>
      <point x="430.5" y="471.0"/>
      <point x="433.5" y="549.5" type="curve" smooth="yes"/>
      <point x="447.75" y="847.75"/>
      <point x="455.25" y="1154.0"/>
      <point x="451.25" y="1292.0" type="curve"/>
      <point x="430.0" y="1296.0"/>
      <point x="361.25" y="1299.0"/>
      <point x="318.0" y="1299.0" type="curve" smooth="yes"/>
      <point x="229.0" y="1299.0"/>
      <point x="136.0" y="1290.5"/>
      <point x="97.5" y="1285.0" type="curve"/>
      <point x="104.0" y="1143.0"/>
      <point x="111.25" y="882.5"/>
      <point x="111.25" y="630.75" type="curve" smooth="yes"/>
      <point x="111.25" y="378.25"/>
      <point x="104.0" y="133.75"/>
    </contour>
  </outline>
</glyph>
<glyph name="M" format="2">
  <advance width="1463.75"/>
  <unicode hex="004D"/>
  <anchor x="740.5" y="0.0" name="bottom"/>
  <anchor x="740.5" y="1291.0" name="top"/>
  <outline>
    <contour>
      <point x="104.75" y="-0.25" type="curve"/>
      <point x="209.25" y="-0.25"/>
      <point x="347.25" y="2.0"/>
      <point x="419.25" y="4.75" type="curve"/>
      <point x="419.25" y="45.75"/>
      <point x="417.75" y="501.0"/>
      <point x="416.0" y="819.25" type="curve"/>
      <point x="461.5" y="652.5"/>
      <point x="601.0" y="117.25"/>
      <point x="613.5" y="55.25" type="curve"/>
      <point x="661.5" y="45.75"/>
      <point x="744.5" y="43.5"/>
      <point x="818.0" y="43.5" type="curve"/>
      <point x="855.5" y="123.75"/>
      <point x="1023.25" y="585.25"/>
      <point x="1065.5" y="740.75" type="curve"/>
      <point x="1063.25" y="678.5"/>
      <point x="1060.0" y="528.75"/>
      <point x="1056.25" y="395.0" type="curve" smooth="yes"/>
      <point x="1052.5" y="249.75"/>
      <point x="1046.0" y="103.5"/>
      <point x="1038.75" y="16.75" type="curve"/>
      <point x="1099.25" y="12.25"/>
      <point x="1237.0" y="4.25"/>
      <point x="1335.25" y="4.25" type="curve"/>
      <point x="1348.25" y="160.75"/>
      <point x="1360.5" y="447.75"/>
      <point x="1360.5" y="703.75" type="curve" smooth="yes"/>
      <point x="1360.5" y="916.25"/>
      <point x="1351.25" y="1117.75"/>
      <point x="1324.5" y="1238.25" type="curve"/>
      <point x="1235.5" y="1253.0"/>
      <point x="1057.75" y="1258.0"/>
      <point x="973.5" y="1258.0" type="curve"/>
      <point x="946.5" y="1131.5"/>
      <point x="805.5" y="655.5"/>
      <point x="747.25" y="469.0" type="curve"/>
      <point x="702.75" y="666.0"/>
      <point x="536.75" y="1245.0"/>
      <point x="530.0" y="1262.0" type="curve"/>
      <point x="516.75" y="1262.0"/>
      <point x="259.0" y="1260.25"/>
      <point x="130.5" y="1247.0" type="curve"/>
      <point x="112.0" y="888.5"/>
      <point x="104.75" y="258.5"/>
    </contour>
  </outline>
</glyph>
<glyph name="N" format="2">
  <advance width="1282.0"/>
  <unicode hex="004E"/>
  <anchor x="641.0" y="0.0" name="bottom"/>
  <anchor x="641.0" y="1291.0" name="top"/>
  <outline>
    <contour>
      <point x="459.5" y="-6.5" type="curve"/>
      <point x="459.5" y="123.75"/>
      <point x="447.75" y="642.0"/>
      <point x="435.75" y="752.5" type="curve"/>
      <point x="573.25" y="505.0"/>
      <point x="804.5" y="78.0"/>
      <point x="840.5" y="10.0" type="curve"/>
      <point x="880.75" y="3.0"/>
      <point x="944.0" y="0.75"/>
      <point x="1007.0" y="0.75" type="curve" smooth="yes"/>
      <point x="1049.75" y="0.75"/>
      <point x="1092.25" y="1.5"/>
      <point x="1129.5" y="3.25" type="curve"/>
      <point x="1145.25" y="52.25"/>
      <point x="1159.75" y="335.0"/>
      <point x="1159.75" y="604.0" type="curve" smooth="yes"/>
      <point x="1159.75" y="811.0"/>
      <point x="1152.25" y="1075.25"/>
      <point x="1139.75" y="1216.75" type="curve"/>
      <point x="1085.5" y="1233.5"/>
      <point x="910.0" y="1248.5"/>
      <point x="831.0" y="1248.5" type="curve"/>
      <point x="871.5" y="465.75" type="line"/>
      <point x="760.0" y="720.0"/>
      <point x="612.5" y="991.0"/>
      <point x="437.5" y="1243.25" type="curve"/>
      <point x="350.25" y="1257.0"/>
      <point x="163.25" y="1266.5"/>
      <point x="109.5" y="1266.5" type="curve"/>
      <point x="117.5" y="1144.75"/>
      <point x="119.75" y="913.5"/>
      <point x="119.75" y="697.25" type="curve" smooth="yes"/>
      <point x="119.75" y="402.25"/>
      <point x="119.0" y="47.75"/>
      <point x="118.5" y="13.5" type="curve"/>
      <point x="181.0" y="6.0"/>
      <point x="338.25" y="-7.0"/>
    </contour>
  </outline>
</glyph>
<glyph name="O" format="2">
  <advance width="1354.0"/>
  <unicode hex="004F"/>
  <anchor x="677.0" y="0.0" name="bottom"/>
  <anchor x="612.5" y="646.0" name="center"/>
  <anchor x="905.0" y="0.0" name="ogonek"/>
  <anchor x="677.0" y="1291.0" name="top"/>
  <anchor x="20.0" y="1291.0" name="topleft"/>
  <anchor x="999.0" y="1185.75" name="topright"/>
  <outline>
    <contour>
      <point x="664.25" y="-51.0" type="curve" smooth="yes"/>
      <point x="1086.25" y="-51.0"/>
      <point x="1264.25" y="274.25"/>
      <point x="1264.25" y="634.0" type="curve" smooth="yes"/>
      <point x="1264.25" y="1016.5"/>
      <point x="1087.0" y="1320.0"/>
      <point x="664.25" y="1320.0" type="curve" smooth="yes"/>
      <point x="281.75" y="1320.0"/>
      <point x="65.0" y="1032.0"/>
      <point x="65.0" y="632.5" type="curve" smooth="yes"/>
      <point x="65.0" y="244.25"/>
      <point x="246.25" y="-51.0"/>
    </contour>
    <contour>
      <point x="667.25" y="269.25" type="curve" smooth="yes"/>
      <point x="460.5" y="269.25"/>
      <point x="384.0" y="429.0"/>
      <point x="384.0" y="638.0" type="curve" smooth="yes"/>
      <point x="384.0" y="870.75"/>
      <point x="497.75" y="1056.0"/>
      <point x="684.0" y="1056.0" type="curve" smooth="yes"/>
      <point x="902.25" y="1056.0"/>
      <point x="973.75" y="869.0"/>
      <point x="973.75" y="664.75" type="curve" smooth="yes"/>
      <point x="973.75" y="458.0"/>
      <point x="870.75" y="269.25"/>
    </contour>
  </outline>
</glyph>
<glyph name="P" format="2">
  <advance width="1010.0"/>
  <unicode hex="0050"/>
  <anchor x="505.0" y="0.0" name="bottom"/>
  <anchor x="505.0" y="1291.0" name="top"/>
  <outline>
    <contour>
      <point x="70.75" y="-9.5" type="curve"/>
      <point x="141.75" y="-14.25"/>
      <point x="330.5" y="-17.5"/>
      <point x="394.5" y="-17.5" type="curve"/>
      <point x="396.75" y="126.75"/>
      <point x="406.25" y="460.5"/>
      <point x="407.5" y="535.25" type="curve"/>
      <point x="435.75" y="526.5"/>
      <point x="496.25" y="519.75"/>
      <point x="534.0" y="519.75" type="curve" smooth="yes"/>
      <point x="813.25" y="519.75"/>
      <point x="949.75" y="677.75"/>
      <point x="949.75" y="933.25" type="curve" smooth="yes"/>
      <point x="949.75" y="1183.25"/>
      <point x="771.75" y="1290.0"/>
      <point x="507.5" y="1290.0" type="curve" smooth="yes"/>
      <point x="363.5" y="1290.0"/>
      <point x="232.75" y="1278.5"/>
      <point x="113.25" y="1254.0" type="curve"/>
      <point x="91.5" y="1046.5"/>
      <point x="70.75" y="108.75"/>
    </contour>
    <contour>
      <point x="401.75" y="795.0" type="curve"/>
      <point x="402.25" y="833.0"/>
      <point x="402.25" y="1031.5"/>
      <point x="401.5" y="1050.5" type="curve"/>
      <point x="447.25" y="1056.25"/>
      <point x="488.75" y="1060.0"/>
      <point x="525.5" y="1060.0" type="curve" smooth="yes"/>
      <point x="621.5" y="1060.0"/>
      <point x="683.75" y="1031.75"/>
      <point x="683.75" y="933.25" type="curve" smooth="yes"/>
      <point x="683.75" y="831.25"/>
      <point x="600.25" y="785.5"/>
      <point x="503.5" y="785.5" type="curve" smooth="yes"/>
      <point x="469.25" y="785.5"/>
      <point x="429.5" y="789.75"/>
    </contour>
  </outline>
</glyph>
<glyph name="Q" format="2">
  <advance width="1291.0"/>
  <unicode hex="0051"/>
  <anchor x="646.0" y="0.0" name="bottom"/>
  <anchor x="646.0" y="1291.0" name="top"/>
  <outline>
    <contour>
      <point x="1085.75" y="-148.0" type="curve"/>
      <point x="1143.0" y="-104.0"/>
      <point x="1212.0" y="-34.25"/>
      <point x="1250.5" y="26.25" type="curve"/>
      <point x="1177.75" y="58.25"/>
      <point x="1091.5" y="110.75"/>
      <point x="1039.5" y="172.75" type="curve"/>
      <point x="1171.0" y="280.25"/>
      <point x="1201.5" y="463.75"/>
      <point x="1201.5" y="665.75" type="curve" smooth="yes"/>
      <point x="1201.5" y="1035.25"/>
      <point x="1027.5" y="1299.0"/>
      <point x="631.75" y="1299.0" type="curve" smooth="yes"/>
      <point x="270.25" y="1299.0"/>
      <point x="48.25" y="1011.5"/>
      <point x="48.25" y="622.5" type="curve" smooth="yes"/>
      <point x="48.25" y="269.0"/>
      <point x="263.75" y="-13.75"/>
      <point x="606.0" y="-13.75" type="curve" smooth="yes"/>
      <point x="719.75" y="-13.75"/>
      <point x="803.75" y="27.0"/>
      <point x="834.75" y="50.0" type="curve"/>
      <point x="866.0" y="7.0"/>
      <point x="1022.75" y="-121.25"/>
    </contour>
    <contour>
      <point x="694.25" y="286.0" type="curve"/>
      <point x="685.75" y="278.25"/>
      <point x="661.25" y="262.25"/>
      <point x="608.25" y="262.25" type="curve" smooth="yes"/>
      <point x="423.75" y="262.25"/>
      <point x="350.5" y="475.25"/>
      <point x="350.5" y="671.75" type="curve" smooth="yes"/>
      <point x="350.5" y="889.75"/>
      <point x="453.5" y="1046.0"/>
      <point x="644.25" y="1046.0" type="curve" smooth="yes"/>
      <point x="843.25" y="1046.0"/>
      <point x="926.5" y="882.0"/>
      <point x="926.5" y="637.25" type="curve" smooth="yes"/>
      <point x="926.5" y="501.25"/>
      <point x="908.0" y="418.25"/>
      <point x="880.25" y="376.75" type="curve"/>
      <point x="835.25" y="429.25"/>
      <point x="793.75" y="518.5"/>
      <point x="770.0" y="578.0" type="curve"/>
      <point x="714.25" y="545.75"/>
      <point x="623.5" y="486.0"/>
      <point x="587.75" y="456.75" type="curve"/>
      <point x="608.5" y="405.0"/>
      <point x="665.0" y="313.25"/>
    </contour>
  </outline>
</glyph>
<glyph name="R" format="2">
  <advance width="1094.0"/>
  <unicode hex="0052"/>
  <anchor x="547.0" y="0.0" name="bottom"/>
  <anchor x="500.25" y="1327.5" name="top"/>
  <outline>
    <contour>
      <point x="130.5" y="-25.25" type="curve"/>
      <point x="238.25" y="-25.25"/>
      <point x="382.75" y="-21.75"/>
      <point x="462.75" y="-4.5" type="curve"/>
      <point x="459.0" y="134.75"/>
      <point x="433.5" y="498.25"/>
      <point x="423.25" y="576.25" type="curve"/>
      <point x="455.0" y="577.0"/>
      <point x="504.0" y="582.5"/>
      <point x="550.75" y="593.75" type="curve"/>
      <point x="587.25" y="500.25"/>
      <point x="704.5" y="114.75"/>
      <point x="730.75" y="-19.5" type="curve"/>
      <point x="750.75" y="-17.75"/>
      <point x="963.75" y="24.25"/>
      <point x="1042.0" y="72.25" type="curve"/>
      <point x="1007.75" y="189.5"/>
      <point x="879.75" y="523.5"/>
      <point x="802.75" y="663.5" type="curve"/>
      <point x="919.0" y="719.0"/>
      <point x="995.0" y="852.5"/>
      <point x="995.0" y="990.25" type="curve" smooth="yes"/>
      <point x="995.0" y="1269.25"/>
      <point x="761.25" y="1328.5"/>
      <point x="555.5" y="1328.5" type="curve" smooth="yes"/>
      <point x="414.25" y="1328.5"/>
      <point x="168.25" y="1312.5"/>
      <point x="63.5" y="1303.0" type="curve"/>
      <point x="83.25" y="894.75"/>
      <point x="114.5" y="274.25"/>
    </contour>
    <contour>
      <point x="395.5" y="816.25" type="curve"/>
      <point x="392.25" y="864.25"/>
      <point x="377.75" y="1030.25"/>
      <point x="371.5" y="1087.5" type="curve"/>
      <point x="395.0" y="1090.5"/>
      <point x="476.75" y="1098.5"/>
      <point x="519.75" y="1098.5" type="curve" smooth="yes"/>
      <point x="635.0" y="1098.5"/>
      <point x="715.25" y="1089.0"/>
      <point x="715.25" y="981.0" type="curve" smooth="yes"/>
      <point x="715.25" y="897.25"/>
      <point x="665.75" y="852.0"/>
      <point x="537.0" y="828.5" type="curve" smooth="yes"/>
      <point x="477.0" y="818.25"/>
      <point x="436.75" y="816.25"/>
    </contour>
  </outline>
</glyph>
<glyph name="S" format="2">
  <advance width="1152.0"/>
  <unicode hex="0053"/>
  <anchor x="576.0" y="0.0" name="bottom"/>
  <anchor x="527.0" y="1334.0" name="top"/>
  <outline>
    <contour>
      <point x="560.25" y="-15.75" type="curve" smooth="yes"/>
      <point x="852.25" y="-15.75"/>
      <point x="1059.75" y="165.5"/>
      <point x="1059.75" y="418.5" type="curve" smooth="yes"/>
      <point x="1059.75" y="688.75"/>
      <point x="821.75" y="772.5"/>
      <point x="547.5" y="865.25" type="curve" smooth="yes"/>
      <point x="453.0" y="896.0"/>
      <point x="388.5" y="933.75"/>
      <point x="388.5" y="1001.0" type="curve" smooth="yes"/>
      <point x="388.5" y="1073.5"/>
      <point x="454.75" y="1110.75"/>
      <point x="540.5" y="1110.75" type="curve" smooth="yes"/>
      <point x="650.25" y="1110.75"/>
      <point x="762.25" y="1049.0"/>
      <point x="841.75" y="971.75" type="curve"/>
      <point x="891.75" y="1016.25"/>
      <point x="989.0" y="1119.5"/>
      <point x="1017.5" y="1163.5" type="curve"/>
      <point x="908.25" y="1288.5"/>
      <point x="727.5" y="1349.0"/>
      <point x="542.75" y="1349.0" type="curve" smooth="yes"/>
      <point x="296.0" y="1349.0"/>
      <point x="75.5" y="1226.25"/>
      <point x="75.5" y="993.25" type="curve" smooth="yes"/>
      <point x="75.5" y="771.75"/>
      <point x="265.5" y="679.75"/>
      <point x="505.0" y="588.0" type="curve" smooth="yes"/>
      <point x="664.25" y="529.75"/>
      <point x="744.0" y="466.25"/>
      <point x="744.0" y="386.75" type="curve" smooth="yes"/>
      <point x="744.0" y="312.5"/>
      <point x="699.0" y="233.25"/>
      <point x="577.25" y="233.25" type="curve" smooth="yes"/>
      <point x="431.25" y="233.25"/>
      <point x="325.0" y="338.0"/>
      <point x="238.5" y="439.0" type="curve"/>
      <point x="181.25" y="410.0"/>
      <point x="41.0" y="287.0"/>
      <point x="24.0" y="259.5" type="curve"/>
      <point x="132.25" y="80.0"/>
      <point x="360.25" y="-15.75"/>
    </contour>
  </outline>
</glyph>
<glyph name="T" format="2">
  <advance width="1039.0"/>
  <unicode hex="0054"/>
  <anchor x="548.5" y="0.0" name="bottom"/>
  <anchor x="520.0" y="646.0" name="center"/>
  <anchor x="520.0" y="1291.0" name="top"/>
  <outline>
    <contour>
      <point x="53.75" y="1036.75" type="curve"/>
      <point x="151.0" y="1038.0"/>
      <point x="277.5" y="1042.25"/>
      <point x="370.0" y="1048.0" type="curve"/>
      <point x="369.25" y="1005.5"/>
      <point x="368.5" y="951.5"/>
      <point x="368.5" y="890.0" type="curve" smooth="yes"/>
      <point x="368.5" y="615.0"/>
      <point x="377.75" y="181.5"/>
      <point x="387.75" y="-14.0" type="curve"/>
      <point x="466.5" y="-14.0"/>
      <point x="642.5" y="-4.5"/>
      <point x="723.25" y="8.25" type="curve"/>
      <point x="721.0" y="52.25"/>
      <point x="683.25" y="881.5"/>
      <point x="676.75" y="1053.5" type="curve"/>
      <point x="760.5" y="1051.25"/>
      <point x="919.0" y="1050.25"/>
      <point x="969.75" y="1049.5" type="curve"/>
      <point x="981.0" y="1097.5"/>
      <point x="990.0" y="1201.75"/>
      <point x="989.0" y="1312.25" type="curve"/>
      <point x="872.5" y="1328.25"/>
      <point x="727.75" y="1333.75"/>
      <point x="580.25" y="1333.75" type="curve" smooth="yes"/>
      <point x="384.5" y="1333.75"/>
      <point x="183.5" y="1324.0"/>
      <point x="34.0" y="1313.25" type="curve"/>
      <point x="34.0" y="1278.75"/>
      <point x="41.5" y="1095.25"/>
    </contour>
  </outline>
</glyph>
<glyph name="V" format="2">
  <advance width="1178.75"/>
  <unicode hex="0056"/>
  <anchor x="599.5" y="0.0" name="bottom"/>
  <anchor x="599.5" y="1291.0" name="top"/>
  <outline>
    <contour>
      <point x="632.25" y="-21.25" type="curve" smooth="yes"/>
      <point x="702.5" y="-21.25"/>
      <point x="770.25" y="-20.25"/>
      <point x="808.5" y="-16.0" type="curve"/>
      <point x="830.25" y="60.25"/>
      <point x="1026.5" y="729.5"/>
      <point x="1146.25" y="1307.25" type="curve"/>
      <point x="1042.25" y="1342.5"/>
      <point x="897.75" y="1363.0"/>
      <point x="790.75" y="1364.25" type="curve"/>
      <point x="785.25" y="1300.5"/>
      <point x="699.0" y="690.0"/>
      <point x="618.0" y="333.25" type="curve"/>
      <point x="529.25" y="741.75"/>
      <point x="401.25" y="1297.0"/>
      <point x="392.0" y="1359.5" type="curve"/>
      <point x="307.0" y="1359.5"/>
      <point x="124.5" y="1343.0"/>
      <point x="27.25" y="1312.5" type="curve"/>
      <point x="88.75" y="1006.5"/>
      <point x="307.25" y="255.25"/>
      <point x="435.25" y="-10.0" type="curve"/>
      <point x="476.0" y="-16.0"/>
      <point x="555.75" y="-21.25"/>
    </contour>
  </outline>
</glyph>
<glyph name="W" format="2">
  <advance width="1344.0"/>
  <unicode hex="0057"/>
  <anchor x="672.0" y="0.0" name="bottom"/>
  <anchor x="672.0" y="1291.0" name="top"/>
  <outline>
    <contour>
      <point x="801.75" y="-15.5" type="curve"/>
      <point x="1101.5" y="15.25" type="line"/>
      <point x="1126.5" y="114.75"/>
      <point x="1279.5" y="802.25"/>
      <point x="1279.5" y="1381.25" type="curve"/>
      <point x="965.25" y="1348.5" type="line"/>
      <point x="965.25" y="1118.75"/>
      <point x="945.5" y="685.0"/>
      <point x="905.75" y="399.5" type="curve"/>
      <point x="872.5" y="556.75"/>
      <point x="801.75" y="863.75"/>
      <point x="787.25" y="939.75" type="curve"/>
      <point x="574.0" y="919.75" type="line"/>
      <point x="546.25" y="850.0"/>
      <point x="439.0" y="606.25"/>
      <point x="398.0" y="472.0" type="curve"/>
      <point x="397.25" y="731.5"/>
      <point x="407.5" y="1096.25"/>
      <point x="407.5" y="1340.0" type="curve"/>
      <point x="59.75" y="1353.0" type="line"/>
      <point x="59.75" y="836.0"/>
      <point x="128.25" y="279.25"/>
      <point x="158.0" y="13.75" type="curve"/>
      <point x="482.25" y="0.25" type="line"/>
      <point x="517.0" y="87.5"/>
      <point x="632.5" y="386.25"/>
      <point x="665.5" y="497.5" type="curve"/>
      <point x="693.25" y="375.75"/>
      <point x="762.5" y="117.25"/>
    </contour>
  </outline>
</glyph>
<glyph name="X" format="2">
  <advance width="1218.0"/>
  <unicode hex="0058"/>
  <anchor x="614.0" y="0.0" name="bottom"/>
  <anchor x="614.0" y="1291.0" name="top"/>
  <outline>
    <contour>
      <point x="448.75" y="640.75" type="curve"/>
      <point x="348.25" y="463.25"/>
      <point x="174.25" y="218.0"/>
      <point x="44.5" y="51.75" type="curve"/>
      <point x="180.0" y="12.25"/>
      <point x="265.75" y="-12.25"/>
      <point x="372.5" y="-23.0" type="curve"/>
      <point x="396.25" y="4.0"/>
      <point x="548.0" y="230.0"/>
      <point x="635.75" y="388.0" type="curve"/>
      <point x="744.75" y="211.75"/>
      <point x="809.5" y="66.25"/>
      <point x="850.25" y="-44.25" type="curve"/>
      <point x="935.25" y="-29.0"/>
      <point x="1077.0" y="11.25"/>
      <point x="1159.25" y="63.25" type="curve"/>
      <point x="1109.5" y="171.25"/>
      <point x="907.5" y="513.5"/>
      <point x="789.75" y="667.0" type="curve"/>
      <point x="884.25" y="794.0"/>
      <point x="1080.5" y="1061.75"/>
      <point x="1145.25" y="1212.75" type="curve"/>
      <point x="1095.75" y="1252.0"/>
      <point x="961.25" y="1300.5"/>
      <point x="816.25" y="1323.0" type="curve"/>
      <point x="784.0" y="1219.5"/>
      <point x="714.75" y="1038.75"/>
      <point x="631.0" y="899.25" type="curve"/>
      <point x="573.5" y="1010.0"/>
      <point x="446.5" y="1256.75"/>
      <point x="383.0" y="1342.25" type="curve"/>
      <point x="295.0" y="1329.75"/>
      <point x="107.5" y="1269.25"/>
      <point x="28.5" y="1229.5" type="curve"/>
      <point x="75.0" y="1178.5"/>
      <point x="311.25" y="891.0"/>
    </contour>
  </outline>
</glyph>
<glyph name="Y" format="2">
  <advance width="1065.0"/>
  <unicode hex="0059"/>
  <anchor x="580.5" y="0.0" name="bottom"/>
  <anchor x="580.5" y="1291.0" name="top"/>
  <anchor x="67.5" y="1291.0" name="topleft"/>
  <outline>
    <contour>
      <point x="425.0" y="559.5" type="curve"/>
      <point x="415.0" y="422.5"/>
      <point x="402.25" y="149.25"/>
      <point x="402.25" y="15.5" type="curve"/>
      <point x="445.5" y="7.25"/>
      <point x="515.75" y="1.75"/>
      <point x="580.5" y="1.75" type="curve" smooth="yes"/>
      <point x="641.5" y="1.75"/>
      <point x="698.5" y="7.25"/>
      <point x="715.0" y="13.5" type="curve"/>
      <point x="715.75" y="35.0"/>
      <point x="716.5" y="151.5"/>
      <point x="716.5" y="240.5" type="curve" smooth="yes"/>
      <point x="716.5" y="314.75"/>
      <point x="712.75" y="472.0"/>
      <point x="708.25" y="581.75" type="curve"/>
      <point x="841.75" y="847.5"/>
      <point x="984.0" y="1085.75"/>
      <point x="1072.0" y="1204.25" type="curve"/>
      <point x="1002.75" y="1246.5"/>
      <point x="881.5" y="1299.25"/>
      <point x="771.5" y="1307.5" type="curve"/>
      <point x="719.0" y="1219.0"/>
      <point x="586.75" y="950.75"/>
      <point x="552.75" y="876.75" type="curve"/>
      <point x="496.5" y="987.5"/>
      <point x="382.0" y="1258.5"/>
      <point x="358.25" y="1323.25" type="curve"/>
      <point x="285.5" y="1322.0"/>
      <point x="164.25" y="1306.75"/>
      <point x="41.5" y="1260.5" type="curve"/>
      <point x="141.75" y="1024.5"/>
      <point x="314.25" y="713.5"/>
    </contour>
  </outline>
</glyph>
<glyph name="Z" format="2">
  <advance width="1044.0"/>
  <unicode hex="005A"/>
  <anchor x="522.0" y="0.0" name="bottom"/>
  <anchor x="522.0" y="646.0" name="center"/>
  <anchor x="522.0" y="1291.0" name="top"/>
  <outline>
    <contour>
      <point x="917.25" y="-14.0" type="curve"/>
      <point x="923.75" y="12.75"/>
      <point x="932.0" y="88.75"/>
      <point x="932.5" y="160.75" type="curve" smooth="yes"/>
      <point x="933.0" y="221.25"/>
      <point x="930.25" y="284.75"/>
      <point x="927.25" y="319.0" type="curve"/>
      <point x="835.75" y="314.75"/>
      <point x="738.75" y="310.75"/>
      <point x="656.0" y="310.75" type="curve" smooth="yes"/>
      <point x="545.75" y="310.75"/>
      <point x="437.5" y="314.0"/>
      <point x="390.5" y="319.25" type="curve"/>
      <point x="487.25" y="433.25"/>
      <point x="835.0" y="890.25"/>
      <point x="945.0" y="1069.25" type="curve"/>
      <point x="948.5" y="1087.5"/>
      <point x="952.0" y="1142.75"/>
      <point x="952.0" y="1202.0" type="curve" smooth="yes"/>
      <point x="952.0" y="1247.75"/>
      <point x="949.75" y="1296.75"/>
      <point x="943.5" y="1330.0" type="curve"/>
      <point x="909.75" y="1333.0"/>
      <point x="802.75" y="1333.75"/>
      <point x="758.5" y="1333.5" type="curve" smooth="yes"/>
      <point x="555.75" y="1332.0"/>
      <point x="231.0" y="1306.25"/>
      <point x="97.75" y="1294.0" type="curve"/>
      <point x="94.5" y="1263.5"/>
      <point x="92.25" y="1215.75"/>
      <point x="92.25" y="1164.0" type="curve" smooth="yes"/>
      <point x="92.25" y="1118.5"/>
      <point x="95.25" y="1062.5"/>
      <point x="98.5" y="1029.0" type="curve"/>
      <point x="257.75" y="1040.0"/>
      <point x="548.25" y="1057.25"/>
      <point x="615.0" y="1057.25" type="curve"/>
      <point x="551.0" y="948.5"/>
      <point x="198.25" y="490.75"/>
      <point x="43.25" y="315.0" type="curve"/>
      <point x="43.25" y="242.5"/>
      <point x="47.5" y="84.0"/>
      <point x="51.5" y="22.0" type="curve"/>
      <point x="394.75" y="-3.5"/>
      <point x="681.25" y="-14.0"/>
    </contour>
  </outline>
</glyph>
<glyph name="bracketleft" format="2">
  <advance width="735.0"/>
  <unicode hex="005B"/>
  <outline>
    <contour>
      <point x="344.0" y="-526.25" type="curve" smooth="yes"/>
      <point x="471.0" y="-526.25"/>
      <point x="572.75" y="-518.75"/>
      <point x="636.0" y="-511.25" type="curve"/>
      <point x="643.25" y="-463.25"/>
      <point x="654.5" y="-339.75"/>
      <point x="654.5" y="-259.25" type="curve"/>
      <point x="613.5" y="-259.75"/>
      <point x="546.0" y="-259.0"/>
      <point x="495.25" y="-257.5" type="curve" smooth="yes"/>
      <point x="433.75" y="-255.25"/>
      <point x="383.5" y="-253.0"/>
      <point x="364.25" y="-248.75" type="curve"/>
      <point x="352.5" y="-79.25"/>
      <point x="345.5" y="163.5"/>
      <point x="345.5" y="415.0" type="curve" smooth="yes"/>
      <point x="345.5" y="749.0"/>
      <point x="359.25" y="1105.5"/>
      <point x="394.5" y="1407.75" type="curve"/>
      <point x="490.25" y="1415.75"/>
      <point x="639.25" y="1425.0"/>
      <point x="682.25" y="1425.75" type="curve"/>
      <point x="685.75" y="1441.5"/>
      <point x="694.75" y="1486.5"/>
      <point x="701.5" y="1540.25" type="curve" smooth="yes"/>
      <point x="706.0" y="1578.0"/>
      <point x="709.5" y="1619.25"/>
      <point x="709.0" y="1657.0" type="curve"/>
      <point x="497.25" y="1655.5"/>
      <point x="249.0" y="1639.5"/>
      <point x="113.0" y="1613.0" type="curve"/>
      <point x="76.0" y="1402.75"/>
      <point x="47.0" y="986.5"/>
      <point x="47.0" y="524.25" type="curve" smooth="yes"/>
      <point x="47.0" y="178.0"/>
      <point x="62.25" y="-192.25"/>
      <point x="101.0" y="-517.5" type="curve"/>
      <point x="186.75" y="-523.5"/>
      <point x="268.75" y="-526.25"/>
    </contour>
  </outline>
</glyph>
<glyph name="backslash" format="2">
  <advance width="725.0"/>
  <unicode hex="005C"/>
  <outline>
    <contour>
      <point x="744.25" y="13.25" type="curve"/>
      <point x="492.5" y="472.5"/>
      <point x="327.75" y="939.0"/>
      <point x="243.25" y="1474.75" type="curve"/>
      <point x="133.5" y="1467.25"/>
      <point x="10.75" y="1434.0"/>
      <point x="-28.5" y="1388.0" type="curve"/>
      <point x="54.25" y="844.0"/>
      <point x="201.5" y="408.0"/>
      <point x="480.25" y="-110.0" type="curve"/>
      <point x="563.0" y="-90.25"/>
      <point x="655.5" y="-48.25"/>
    </contour>
  </outline>
</glyph>
<glyph name="bracketright" format="2">
  <advance width="619.0"/>
  <unicode hex="005D"/>
  <outline>
    <contour>
      <point x="608.5" y="560.25" type="curve" smooth="yes"/>
      <point x="608.5" y="952.5"/>
      <point x="579.0" y="1334.5"/>
      <point x="518.0" y="1635.0" type="curve"/>
      <point x="395.25" y="1657.25"/>
      <point x="266.5" y="1666.0"/>
      <point x="128.0" y="1666.0" type="curve" smooth="yes"/>
      <point x="88.25" y="1666.0"/>
      <point x="35.5" y="1665.25"/>
      <point x="7.0" y="1663.75" type="curve"/>
      <point x="-1.0" y="1620.5"/>
      <point x="-5.75" y="1537.5"/>
      <point x="-5.75" y="1469.25" type="curve"/>
      <point x="-3.0" y="1453.5"/>
      <point x="3.25" y="1438.5"/>
      <point x="12.5" y="1425.0" type="curve" smooth="yes"/>
      <point x="82.0" y="1423.5"/>
      <point x="171.25" y="1423.0"/>
      <point x="243.0" y="1418.75" type="curve"/>
      <point x="273.25" y="1275.75"/>
      <point x="293.0" y="939.25"/>
      <point x="293.0" y="589.0" type="curve" smooth="yes"/>
      <point x="293.0" y="293.75"/>
      <point x="278.5" y="-11.75"/>
      <point x="245.5" y="-220.25" type="curve"/>
      <point x="204.5" y="-230.5"/>
      <point x="71.5" y="-244.25"/>
      <point x="17.75" y="-244.25" type="curve"/>
      <point x="17.25" y="-305.25"/>
      <point x="19.75" y="-422.5"/>
      <point x="23.5" y="-493.25" type="curve"/>
      <point x="154.0" y="-493.25"/>
      <point x="375.0" y="-486.0"/>
      <point x="530.0" y="-450.25" type="curve"/>
      <point x="574.5" y="-224.0"/>
      <point x="608.5" y="154.0"/>
    </contour>
  </outline>
</glyph>
<glyph name="asciicircum" format="2">
  <advance width="1032.0"/>
  <unicode hex="005E"/>
  <outline>
    <contour>
      <point x="668.75" y="1325.0" type="curve"/>
      <point x="646.5" y="1332.25"/>
      <point x="601.0" y="1335.5"/>
      <point x="552.75" y="1335.5" type="curve" smooth="yes"/>
      <point x="507.5" y="1335.5"/>
      <point x="460.25" y="1331.5"/>
      <point x="428.75" y="1326.0" type="curve"/>
      <point x="312.75" y="1217.0"/>
      <point x="128.0" y="976.0"/>
      <point x="17.0" y="812.0" type="curve"/>
      <point x="88.25" y="744.5"/>
      <point x="172.75" y="704.5"/>
      <point x="247.5" y="692.5" type="curve"/>
      <point x="309.75" y="808.25"/>
      <point x="470.5" y="1040.25"/>
      <point x="626.0" y="1166.75" type="curve"/>
      <point x="480.0" y="1173.5" type="line"/>
      <point x="601.25" y="1040.25"/>
      <point x="698.75" y="878.0"/>
      <point x="752.75" y="715.75" type="curve"/>
      <point x="868.75" y="737.25"/>
      <point x="947.5" y="766.25"/>
      <point x="993.0" y="805.0" type="curve"/>
      <point x="915.0" y="1010.0"/>
      <point x="767.5" y="1218.0"/>
    </contour>
  </outline>
</glyph>
<glyph name="underscore" format="2">
  <advance width="1549.0"/>
  <unicode hex="005F"/>
  <outline>
    <contour>
      <point x="341.5" y="23.75" type="curve" smooth="yes"/>
      <point x="280.75" y="23.75"/>
      <point x="79.75" y="23.75"/>
      <point x="25.5" y="25.75" type="curve"/>
      <point x="30.75" y="-44.25"/>
      <point x="45.0" y="-200.5"/>
      <point x="50.0" y="-240.25" type="curve"/>
      <point x="353.5" y="-247.5"/>
      <point x="760.0" y="-251.25"/>
      <point x="990.5" y="-251.25" type="curve" smooth="yes"/>
      <point x="1210.75" y="-251.25"/>
      <point x="1359.25" y="-248.0"/>
      <point x="1438.0" y="-245.0" type="curve"/>
      <point x="1448.5" y="-177.75"/>
      <point x="1456.0" y="-60.75"/>
      <point x="1456.0" y="53.5" type="curve"/>
      <point x="1243.0" y="43.75"/>
      <point x="802.75" y="23.75"/>
    </contour>
  </outline>
</glyph>
<glyph name="a" format="2">
  <advance width="1295.0"/>
  <unicode hex="0061"/>
  <anchor x="605.0" y="0.0" name="bottom"/>
  <anchor x="1166.0" y="1.75" name="ogonek"/>
  <anchor x="605.0" y="1063.0" name="top"/>
  <outline>
    <contour>
      <point x="510.25" y="-17.25" type="curve" smooth="yes"/>
      <point x="722.25" y="-17.25"/>
      <point x="862.5" y="63.75"/>
      <point x="895.0" y="140.5" type="curve"/>
      <point x="905.75" y="55.5"/>
      <point x="1010.25" y="-8.25"/>
      <point x="1126.0" y="-8.25" type="curve" smooth="yes"/>
      <point x="1230.5" y="-8.25"/>
      <point x="1302.0" y="38.5"/>
      <point x="1317.0" y="100.25" type="curve"/>
      <point x="1213.0" y="299.25" type="line"/>
      <point x="1204.75" y="266.0"/>
      <point x="1175.25" y="245.75"/>
      <point x="1139.5" y="245.75" type="curve" smooth="yes"/>
      <point x="1103.25" y="245.75"/>
      <point x="1082.0" y="266.0"/>
      <point x="1079.75" y="367.5" type="curve" smooth="yes"/>
      <point x="1077.75" y="437.5"/>
      <point x="1075.0" y="514.0"/>
      <point x="1069.75" y="603.0" type="curve" smooth="yes"/>
      <point x="1061.5" y="707.25"/>
      <point x="1040.5" y="784.25"/>
      <point x="1007.0" y="850.5" type="curve" smooth="yes"/>
      <point x="935.5" y="990.0"/>
      <point x="793.25" y="1070.75"/>
      <point x="557.0" y="1070.75" type="curve" smooth="yes"/>
      <point x="342.5" y="1070.75"/>
      <point x="146.75" y="983.0"/>
      <point x="57.0" y="857.25" type="curve"/>
      <point x="301.0" y="699.5" type="line"/>
      <point x="345.25" y="764.0"/>
      <point x="435.75" y="825.0"/>
      <point x="549.5" y="825.0" type="curve" smooth="yes"/>
      <point x="661.5" y="825.0"/>
      <point x="726.75" y="783.5"/>
      <point x="766.5" y="729.0" type="curve" smooth="yes"/>
      <point x="789.75" y="701.75"/>
      <point x="802.5" y="659.25"/>
      <point x="804.25" y="624.5" type="curve"/>
      <point x="772.25" y="644.25"/>
      <point x="669.5" y="672.5"/>
      <point x="567.0" y="672.5" type="curve" smooth="yes"/>
      <point x="299.25" y="672.5"/>
      <point x="61.5" y="576.0"/>
      <point x="61.5" y="325.5" type="curve" smooth="yes"/>
      <point x="61.5" y="74.75"/>
      <point x="262.75" y="-17.25"/>
    </contour>
    <contour>
      <point x="576.75" y="217.75" type="curve" smooth="yes"/>
      <point x="454.25" y="217.75"/>
      <point x="376.25" y="248.75"/>
      <point x="376.25" y="341.0" type="curve" smooth="yes"/>
      <point x="376.25" y="426.0"/>
      <point x="489.0" y="463.75"/>
      <point x="609.5" y="463.75" type="curve" smooth="yes"/>
      <point x="699.0" y="463.75"/>
      <point x="792.25" y="446.0"/>
      <point x="822.0" y="434.0" type="curve"/>
      <point x="820.75" y="403.0"/>
      <point x="822.75" y="355.5"/>
      <point x="825.75" y="313.75" type="curve"/>
      <point x="782.75" y="268.5"/>
      <point x="671.75" y="217.75"/>
    </contour>
  </outline>
</glyph>
<glyph name="b" format="2">
  <advance width="1200.0"/>
  <unicode hex="0062"/>
  <anchor x="615.0" y="0.0" name="bottom"/>
  <anchor x="615.0" y="1470.0" name="top"/>
  <outline>
    <contour>
      <point x="123.25" y="-7.0" type="curve"/>
      <point x="206.75" y="-16.75"/>
      <point x="327.0" y="-20.0"/>
      <point x="441.75" y="-19.0" type="curve"/>
      <point x="441.0" y="-3.75"/>
      <point x="436.75" y="74.75"/>
      <point x="434.5" y="113.75" type="curve"/>
      <point x="466.5" y="73.75"/>
      <point x="566.75" y="1.5"/>
      <point x="711.0" y="1.5" type="curve" smooth="yes"/>
      <point x="954.75" y="1.5"/>
      <point x="1108.75" y="170.5"/>
      <point x="1108.75" y="442.0" type="curve" smooth="yes"/>
      <point x="1108.75" y="753.5"/>
      <point x="953.5" y="919.25"/>
      <point x="719.5" y="919.25" type="curve" smooth="yes"/>
      <point x="582.0" y="919.25"/>
      <point x="456.75" y="836.75"/>
      <point x="399.0" y="775.5" type="curve"/>
      <point x="384.25" y="1034.0"/>
      <point x="380.5" y="1319.75"/>
      <point x="380.5" y="1447.0" type="curve"/>
      <point x="221.25" y="1423.0"/>
      <point x="100.25" y="1400.75"/>
      <point x="82.25" y="1397.0" type="curve"/>
      <point x="82.25" y="1185.0"/>
      <point x="111.25" y="157.0"/>
    </contour>
    <contour>
      <point x="425.75" y="338.25" type="curve"/>
      <point x="423.75" y="364.5"/>
      <point x="415.25" y="505.0"/>
      <point x="414.5" y="532.25" type="curve"/>
      <point x="452.5" y="581.5"/>
      <point x="529.75" y="663.25"/>
      <point x="659.0" y="663.25" type="curve" smooth="yes"/>
      <point x="774.5" y="663.25"/>
      <point x="823.0" y="572.25"/>
      <point x="823.0" y="464.0" type="curve" smooth="yes"/>
      <point x="823.0" y="344.25"/>
      <point x="763.0" y="278.5"/>
      <point x="625.25" y="278.5" type="curve" smooth="yes"/>
      <point x="538.0" y="278.5"/>
      <point x="456.75" y="316.5"/>
    </contour>
  </outline>
</glyph>
<glyph name="c" format="2">
  <advance width="1026.0"/>
  <unicode hex="0063"/>
  <anchor x="513.0" y="0.0" name="bottom"/>
  <anchor x="513.0" y="1063.0" name="top"/>
  <outline>
    <contour>
      <point x="976.25" y="212.0" type="curve"/>
      <point x="763.25" y="437.25" type="line"/>
      <point x="749.75" y="415.75"/>
      <point x="664.5" y="313.0"/>
      <point x="536.5" y="313.0" type="curve" smooth="yes"/>
      <point x="379.0" y="313.0"/>
      <point x="330.25" y="463.0"/>
      <point x="330.25" y="591.5" type="curve" smooth="yes"/>
      <point x="330.25" y="746.75"/>
      <point x="407.75" y="845.25"/>
      <point x="553.25" y="845.25" type="curve" smooth="yes"/>
      <point x="679.25" y="845.25"/>
      <point x="721.25" y="760.5"/>
      <point x="730.25" y="738.5" type="curve"/>
      <point x="947.75" y="861.25" type="line"/>
      <point x="869.25" y="1003.25"/>
      <point x="727.5" y="1095.5"/>
      <point x="540.5" y="1095.5" type="curve" smooth="yes"/>
      <point x="228.5" y="1095.5"/>
      <point x="32.0" y="856.75"/>
      <point x="32.0" y="541.75" type="curve" smooth="yes"/>
      <point x="32.0" y="241.25"/>
      <point x="223.25" y="-10.0"/>
      <point x="527.0" y="-10.0" type="curve" smooth="yes"/>
      <point x="760.25" y="-10.0"/>
      <point x="915.75" y="107.0"/>
    </contour>
  </outline>
</glyph>
<glyph name="d" format="2">
  <advance width="1195.0"/>
  <unicode hex="0064"/>
  <anchor x="598.0" y="0.0" name="bottom"/>
  <anchor x="851.25" y="1198.25" name="center"/>
  <anchor x="598.0" y="1470.0" name="top"/>
  <anchor x="1125.0" y="1048.5" name="topright"/>
  <outline>
    <contour>
      <point x="788.5" y="3.0" type="curve"/>
      <point x="851.25" y="-3.25"/>
      <point x="1011.25" y="-5.75"/>
      <point x="1057.5" y="-5.75" type="curve"/>
      <point x="1057.5" y="516.0"/>
      <point x="1067.5" y="958.5"/>
      <point x="1102.0" y="1418.25" type="curve"/>
      <point x="1027.75" y="1437.25"/>
      <point x="920.25" y="1446.0"/>
      <point x="843.25" y="1446.0" type="curve"/>
      <point x="836.5" y="1391.25"/>
      <point x="802.5" y="1031.0"/>
      <point x="794.25" y="847.75" type="curve"/>
      <point x="756.75" y="899.0"/>
      <point x="641.5" y="959.0"/>
      <point x="492.0" y="959.0" type="curve" smooth="yes"/>
      <point x="192.25" y="959.0"/>
      <point x="44.75" y="724.25"/>
      <point x="44.75" y="464.75" type="curve" smooth="yes"/>
      <point x="44.75" y="201.0"/>
      <point x="197.75" y="-0.25"/>
      <point x="451.25" y="-0.25" type="curve" smooth="yes"/>
      <point x="653.25" y="-0.25"/>
      <point x="751.5" y="96.25"/>
      <point x="784.0" y="140.75" type="curve"/>
      <point x="784.0" y="106.5"/>
      <point x="785.5" y="31.0"/>
    </contour>
    <contour>
      <point x="534.0" y="290.5" type="curve" smooth="yes"/>
      <point x="404.0" y="290.5"/>
      <point x="331.75" y="360.25"/>
      <point x="331.75" y="491.5" type="curve" smooth="yes"/>
      <point x="331.75" y="615.75"/>
      <point x="409.0" y="701.75"/>
      <point x="538.75" y="701.75" type="curve" smooth="yes"/>
      <point x="633.25" y="701.75"/>
      <point x="735.75" y="657.25"/>
      <point x="779.5" y="616.25" type="curve"/>
      <point x="777.5" y="575.0"/>
      <point x="776.75" y="462.0"/>
      <point x="776.75" y="408.0" type="curve"/>
      <point x="734.5" y="352.75"/>
      <point x="649.25" y="290.5"/>
    </contour>
  </outline>
</glyph>
<glyph name="e" format="2">
  <advance width="1115.25"/>
  <unicode hex="0065"/>
  <anchor x="568.0" y="10.0" name="bottom"/>
  <anchor x="766.25" y="23.75" name="ogonek"/>
  <anchor x="613.25" y="1064.75" name="top"/>
  <outline>
    <contour>
      <point x="1047.5" y="179.0" type="curve"/>
      <point x="1009.5" y="266.75"/>
      <point x="876.25" y="401.5"/>
      <point x="859.25" y="414.75" type="curve"/>
      <point x="798.25" y="355.75"/>
      <point x="719.5" y="287.0"/>
      <point x="596.0" y="287.0" type="curve" smooth="yes"/>
      <point x="493.5" y="287.0"/>
      <point x="401.75" y="334.5"/>
      <point x="375.5" y="417.25" type="curve" smooth="yes"/>
      <point x="369.25" y="437.75"/>
      <point x="365.75" y="462.0"/>
      <point x="365.5" y="485.75" type="curve"/>
      <point x="438.75" y="497.75"/>
      <point x="555.0" y="510.75"/>
      <point x="670.75" y="510.75" type="curve" smooth="yes"/>
      <point x="740.0" y="510.75"/>
      <point x="1002.25" y="504.5"/>
      <point x="1041.75" y="502.5" type="curve"/>
      <point x="1049.25" y="548.25"/>
      <point x="1051.75" y="584.75"/>
      <point x="1050.75" y="633.5" type="curve" smooth="yes"/>
      <point x="1044.0" y="903.0"/>
      <point x="876.5" y="1064.75"/>
      <point x="603.25" y="1064.75" type="curve" smooth="yes"/>
      <point x="277.25" y="1064.75"/>
      <point x="59.5" y="843.25"/>
      <point x="59.5" y="505.75" type="curve" smooth="yes"/>
      <point x="59.5" y="168.75"/>
      <point x="272.25" y="-5.25"/>
      <point x="575.75" y="-5.25" type="curve" smooth="yes"/>
      <point x="823.5" y="-5.25"/>
      <point x="974.0" y="87.75"/>
    </contour>
    <contour>
      <point x="376.75" y="672.5" type="curve"/>
      <point x="382.0" y="773.25"/>
      <point x="461.75" y="869.25"/>
      <point x="590.75" y="869.25" type="curve" smooth="yes"/>
      <point x="691.5" y="869.25"/>
      <point x="752.0" y="803.0"/>
      <point x="770.0" y="734.5" type="curve" smooth="yes"/>
      <point x="774.0" y="718.5"/>
      <point x="776.25" y="702.75"/>
      <point x="776.25" y="688.5" type="curve"/>
      <point x="756.0" y="689.75"/>
      <point x="703.0" y="692.25"/>
      <point x="640.75" y="692.25" type="curve" smooth="yes"/>
      <point x="525.0" y="692.25"/>
      <point x="437.25" y="682.25"/>
    </contour>
  </outline>
</glyph>
<glyph name="f" format="2">
  <advance width="896.0"/>
  <unicode hex="0066"/>
  <anchor x="448.0" y="0.0" name="bottom"/>
  <anchor x="448.0" y="1470.0" name="top"/>
  <outline>
    <contour>
      <point x="247.25" y="-10.75" type="curve"/>
      <point x="347.5" y="-10.5"/>
      <point x="509.5" y="-6.0"/>
      <point x="589.25" y="7.75" type="curve"/>
      <point x="578.5" y="53.75"/>
      <point x="514.25" y="399.5"/>
      <point x="498.5" y="502.0" type="curve"/>
      <point x="566.5" y="509.25"/>
      <point x="705.25" y="515.0"/>
      <point x="724.25" y="515.0" type="curve"/>
      <point x="724.25" y="591.75"/>
      <point x="721.25" y="699.75"/>
      <point x="712.75" y="769.75" type="curve"/>
      <point x="665.25" y="774.25"/>
      <point x="525.0" y="774.25"/>
      <point x="462.75" y="771.75" type="curve"/>
      <point x="454.75" y="806.0"/>
      <point x="451.5" y="846.75"/>
      <point x="451.5" y="879.0" type="curve" smooth="yes"/>
      <point x="451.5" y="974.5"/>
      <point x="486.5" y="1052.25"/>
      <point x="582.25" y="1052.25" type="curve" smooth="yes"/>
      <point x="655.0" y="1052.25"/>
      <point x="712.25" y="979.0"/>
      <point x="741.75" y="935.0" type="curve"/>
      <point x="770.0" y="972.5"/>
      <point x="857.75" y="1109.25"/>
      <point x="900.25" y="1186.25" type="curve"/>
      <point x="867.75" y="1240.5"/>
      <point x="778.75" y="1359.75"/>
      <point x="553.25" y="1359.75" type="curve" smooth="yes"/>
      <point x="278.75" y="1359.75"/>
      <point x="148.0" y="1142.25"/>
      <point x="148.0" y="904.25" type="curve" smooth="yes"/>
      <point x="148.0" y="847.25"/>
      <point x="153.25" y="785.0"/>
      <point x="161.25" y="725.5" type="curve"/>
      <point x="135.75" y="720.5"/>
      <point x="42.25" y="698.25"/>
      <point x="18.0" y="689.0" type="curve"/>
      <point x="18.75" y="595.5"/>
      <point x="31.0" y="482.75"/>
      <point x="51.0" y="418.75" type="curve"/>
      <point x="92.0" y="433.75"/>
      <point x="153.0" y="450.25"/>
      <point x="181.5" y="455.5" type="curve"/>
      <point x="205.25" y="260.75"/>
      <point x="240.25" y="32.25"/>
    </contour>
  </outline>
</glyph>
<glyph name="g" format="2">
  <advance width="1231.0"/>
  <unicode hex="0067"/>
  <anchor x="616.0" y="-530.0" name="bottom"/>
  <anchor x="616.0" y="1063.0" name="top"/>
  <outline>
    <contour>
      <point x="654.0" y="256.75" type="curve" smooth="yes"/>
      <point x="925.5" y="256.75"/>
      <point x="1109.0" y="398.25"/>
      <point x="1109.0" y="668.5" type="curve" smooth="yes"/>
      <point x="1109.0" y="744.75"/>
      <point x="1092.0" y="811.5"/>
      <point x="1058.0" y="866.25" type="curve"/>
      <point x="1095.75" y="916.5"/>
      <point x="1153.5" y="959.75"/>
      <point x="1197.5" y="981.25" type="curve"/>
      <point x="1158.5" y="1029.25"/>
      <point x="1083.5" y="1135.5"/>
      <point x="1055.5" y="1176.75" type="curve"/>
      <point x="993.25" y="1146.5"/>
      <point x="919.25" y="1076.25"/>
      <point x="877.0" y="1010.75" type="curve"/>
      <point x="809.75" y="1040.0"/>
      <point x="726.5" y="1056.0"/>
      <point x="628.5" y="1056.0" type="curve" smooth="yes"/>
      <point x="330.0" y="1056.0"/>
      <point x="108.75" y="917.0"/>
      <point x="108.75" y="656.75" type="curve" smooth="yes"/>
      <point x="108.75" y="562.0"/>
      <point x="138.75" y="468.25"/>
      <point x="212.25" y="395.0" type="curve"/>
      <point x="167.25" y="368.5"/>
      <point x="126.75" y="317.25"/>
      <point x="126.75" y="249.25" type="curve" smooth="yes"/>
      <point x="126.75" y="193.5"/>
      <point x="157.25" y="142.5"/>
      <point x="238.75" y="103.5" type="curve"/>
      <point x="116.25" y="45.25"/>
      <point x="46.5" y="-50.0"/>
      <point x="46.5" y="-157.0" type="curve" smooth="yes"/>
      <point x="46.5" y="-426.0"/>
      <point x="297.0" y="-499.0"/>
      <point x="608.5" y="-499.0" type="curve" smooth="yes"/>
      <point x="917.5" y="-499.0"/>
      <point x="1151.75" y="-396.5"/>
      <point x="1151.75" y="-123.25" type="curve" smooth="yes"/>
      <point x="1151.75" y="83.5"/>
      <point x="1001.75" y="173.25"/>
      <point x="789.75" y="173.25" type="curve" smooth="yes"/>
      <point x="663.75" y="173.25"/>
      <point x="577.25" y="170.25"/>
      <point x="490.75" y="165.75" type="curve"/>
      <point x="418.25" y="167.5"/>
      <point x="378.0" y="203.5"/>
      <point x="378.0" y="240.25" type="curve" smooth="yes"/>
      <point x="378.0" y="258.75"/>
      <point x="388.75" y="278.25"/>
      <point x="412.5" y="294.25" type="curve"/>
      <point x="478.0" y="270.25"/>
      <point x="557.75" y="256.75"/>
    </contour>
    <contour>
      <point x="618.25" y="-305.25" type="curve" smooth="yes"/>
      <point x="471.0" y="-305.25"/>
      <point x="365.25" y="-264.0"/>
      <point x="365.25" y="-171.25" type="curve" smooth="yes"/>
      <point x="365.25" y="-78.5"/>
      <point x="429.75" y="-56.5"/>
      <point x="503.75" y="-56.5" type="curve" smooth="yes"/>
      <point x="689.5" y="-56.5" type="line" smooth="yes"/>
      <point x="769.5" y="-56.5"/>
      <point x="853.75" y="-82.25"/>
      <point x="853.75" y="-168.25" type="curve" smooth="yes"/>
      <point x="853.75" y="-265.5"/>
      <point x="752.5" y="-305.25"/>
    </contour>
    <contour>
      <point x="626.75" y="495.0" type="curve" smooth="yes"/>
      <point x="513.5" y="495.0"/>
      <point x="429.0" y="554.75"/>
      <point x="429.0" y="664.75" type="curve" smooth="yes"/>
      <point x="429.0" y="782.5"/>
      <point x="530.0" y="824.0"/>
      <point x="640.0" y="824.0" type="curve" smooth="yes"/>
      <point x="739.25" y="824.0"/>
      <point x="823.5" y="761.0"/>
      <point x="823.5" y="668.75" type="curve" smooth="yes"/>
      <point x="823.5" y="556.5"/>
      <point x="755.0" y="495.0"/>
    </contour>
  </outline>
</glyph>
<glyph name="h" format="2">
  <advance width="1123.0"/>
  <unicode hex="0068"/>
  <anchor x="569.5" y="0.0" name="bottom"/>
  <anchor x="337.25" y="1208.0" name="center"/>
  <anchor x="222.0" y="1427.75" name="top"/>
  <outline>
    <contour>
      <point x="390.25" y="-11.0" type="curve"/>
      <point x="407.25" y="87.75"/>
      <point x="424.75" y="308.5"/>
      <point x="424.75" y="515.25" type="curve"/>
      <point x="456.5" y="557.5"/>
      <point x="540.0" y="641.75"/>
      <point x="636.5" y="641.75" type="curve" smooth="yes"/>
      <point x="722.0" y="641.75"/>
      <point x="754.25" y="574.5"/>
      <point x="754.25" y="458.0" type="curve" smooth="yes"/>
      <point x="754.25" y="350.0"/>
      <point x="726.75" y="124.5"/>
      <point x="707.75" y="4.0" type="curve"/>
      <point x="751.25" y="-4.5"/>
      <point x="805.25" y="-9.5"/>
      <point x="859.5" y="-9.5" type="curve" smooth="yes"/>
      <point x="909.25" y="-9.5"/>
      <point x="959.75" y="-5.75"/>
      <point x="1006.0" y="1.75" type="curve"/>
      <point x="1029.0" y="143.25"/>
      <point x="1050.5" y="354.5"/>
      <point x="1050.5" y="514.75" type="curve" smooth="yes"/>
      <point x="1050.5" y="768.5"/>
      <point x="990.25" y="912.0"/>
      <point x="748.25" y="912.0" type="curve" smooth="yes"/>
      <point x="625.25" y="912.0"/>
      <point x="494.0" y="853.0"/>
      <point x="426.0" y="778.0" type="curve"/>
      <point x="419.25" y="1048.5"/>
      <point x="397.75" y="1292.0"/>
      <point x="367.0" y="1443.0" type="curve"/>
      <point x="309.0" y="1442.5"/>
      <point x="97.25" y="1411.5"/>
      <point x="77.5" y="1404.5" type="curve"/>
      <point x="91.0" y="1189.0"/>
      <point x="106.75" y="891.0"/>
      <point x="106.75" y="620.5" type="curve" smooth="yes"/>
      <point x="106.75" y="357.25"/>
      <point x="91.75" y="116.75"/>
      <point x="77.25" y="-4.25" type="curve"/>
      <point x="105.5" y="-15.0"/>
      <point x="170.5" y="-19.25"/>
      <point x="239.5" y="-19.25" type="curve" smooth="yes"/>
      <point x="298.75" y="-19.25"/>
      <point x="358.25" y="-16.25"/>
    </contour>
  </outline>
</glyph>
<glyph name="i" format="2">
  <advance width="610.0"/>
  <unicode hex="0069"/>
  <anchor x="294.75" y="0.0" name="bottom"/>
  <outline>
    <contour>
      <point x="428.75" y="1.5" type="curve"/>
      <point x="449.75" y="85.5"/>
      <point x="464.25" y="421.0"/>
      <point x="464.25" y="664.25" type="curve" smooth="yes"/>
      <point x="464.25" y="777.5"/>
      <point x="459.5" y="875.5"/>
      <point x="452.5" y="917.75" type="curve"/>
      <point x="388.75" y="917.75"/>
      <point x="213.0" y="910.75"/>
      <point x="159.0" y="906.75" type="curve"/>
      <point x="159.0" y="700.0"/>
      <point x="123.25" y="90.25"/>
      <point x="108.25" y="3.25" type="curve"/>
      <point x="159.0" y="-3.25"/>
      <point x="212.5" y="-6.0"/>
      <point x="264.0" y="-6.0" type="curve" smooth="yes"/>
      <point x="334.0" y="-6.0"/>
      <point x="406.25" y="-0.5"/>
    </contour>
    <contour>
      <point x="316.75" y="1046.75" type="curve" smooth="yes"/>
      <point x="421.5" y="1046.75"/>
      <point x="500.25" y="1128.0"/>
      <point x="500.25" y="1232.5" type="curve" smooth="yes"/>
      <point x="500.25" y="1345.75"/>
      <point x="418.75" y="1426.25"/>
      <point x="307.5" y="1426.25" type="curve" smooth="yes"/>
      <point x="203.25" y="1426.25"/>
      <point x="105.0" y="1355.25"/>
      <point x="105.0" y="1237.75" type="curve" smooth="yes"/>
      <point x="105.0" y="1123.0"/>
      <point x="196.5" y="1046.75"/>
    </contour>
  </outline>
</glyph>
<glyph name="j" format="2">
  <advance width="690.25"/>
  <unicode hex="006A"/>
  <outline>
    <contour>
      <point x="595.75" y="228.0" type="curve" smooth="yes"/>
      <point x="595.75" y="474.75"/>
      <point x="538.5" y="806.5"/>
      <point x="509.25" y="910.5" type="curve"/>
      <point x="175.75" y="894.25" type="line"/>
      <point x="221.25" y="704.5"/>
      <point x="262.5" y="400.75"/>
      <point x="262.5" y="188.25" type="curve" smooth="yes"/>
      <point x="262.5" y="12.0"/>
      <point x="239.75" y="-236.25"/>
      <point x="121.5" y="-236.25" type="curve" smooth="yes"/>
      <point x="37.75" y="-236.25"/>
      <point x="-19.5" y="-157.75"/>
      <point x="-45.75" y="-75.25" type="curve"/>
      <point x="-123.5" y="-100.25"/>
      <point x="-273.0" y="-155.5"/>
      <point x="-355.25" y="-214.0" type="curve"/>
      <point x="-300.5" y="-392.0"/>
      <point x="-94.75" y="-514.0"/>
      <point x="122.25" y="-514.0" type="curve" smooth="yes"/>
      <point x="462.25" y="-514.0"/>
      <point x="595.75" y="-251.25"/>
    </contour>
    <contour>
      <point x="282.0" y="1426.0" type="curve" smooth="yes"/>
      <point x="161.5" y="1426.0"/>
      <point x="70.0" y="1333.0"/>
      <point x="70.0" y="1213.25" type="curve" smooth="yes"/>
      <point x="70.0" y="1100.0"/>
      <point x="171.5" y="1025.75"/>
      <point x="279.0" y="1025.75" type="curve" smooth="yes"/>
      <point x="392.25" y="1025.75"/>
      <point x="497.75" y="1118.5"/>
      <point x="497.75" y="1230.0" type="curve" smooth="yes"/>
      <point x="497.75" y="1334.75"/>
      <point x="404.75" y="1426.0"/>
    </contour>
  </outline>
</glyph>
<glyph name="k" format="2">
  <advance width="1156.0"/>
  <unicode hex="006B"/>
  <anchor x="583.0" y="0.0" name="bottom"/>
  <anchor x="583.0" y="1470.0" name="top"/>
  <outline>
    <contour>
      <point x="834.25" y="-52.0" type="curve"/>
      <point x="889.5" y="-37.5"/>
      <point x="1089.0" y="38.5"/>
      <point x="1128.25" y="63.0" type="curve"/>
      <point x="1005.5" y="265.25"/>
      <point x="813.25" y="478.5"/>
      <point x="726.75" y="537.0" type="curve"/>
      <point x="799.5" y="591.75"/>
      <point x="1005.0" y="724.25"/>
      <point x="1110.75" y="791.0" type="curve"/>
      <point x="1076.5" y="849.75"/>
      <point x="981.25" y="983.0"/>
      <point x="939.25" y="1024.25" type="curve"/>
      <point x="800.5" y="932.75"/>
      <point x="554.75" y="774.5"/>
      <point x="417.5" y="633.0" type="curve"/>
      <point x="427.75" y="750.5"/>
      <point x="446.25" y="1171.75"/>
      <point x="446.25" y="1432.5" type="curve"/>
      <point x="395.0" y="1447.75"/>
      <point x="335.0" y="1454.0"/>
      <point x="271.75" y="1454.0" type="curve" smooth="yes"/>
      <point x="227.75" y="1454.0"/>
      <point x="182.25" y="1451.0"/>
      <point x="139.0" y="1447.25" type="curve"/>
      <point x="139.0" y="1264.5"/>
      <point x="81.75" y="88.0"/>
      <point x="75.0" y="-22.0" type="curve"/>
      <point x="117.25" y="-27.25"/>
      <point x="176.25" y="-32.25"/>
      <point x="241.25" y="-32.25" type="curve" smooth="yes"/>
      <point x="289.0" y="-32.25"/>
      <point x="339.75" y="-29.5"/>
      <point x="389.25" y="-23.75" type="curve"/>
      <point x="394.0" y="33.0"/>
      <point x="402.5" y="180.75"/>
      <point x="404.75" y="296.0" type="curve"/>
      <point x="417.75" y="308.75"/>
      <point x="475.5" y="355.5"/>
      <point x="503.5" y="375.0" type="curve"/>
      <point x="595.5" y="322.5"/>
      <point x="785.25" y="48.5"/>
    </contour>
  </outline>
</glyph>
<glyph name="l" format="2">
  <advance width="645.0"/>
  <unicode hex="006C"/>
  <anchor x="313.0" y="0.0" name="bottom"/>
  <anchor x="313.0" y="735.0" name="center"/>
  <anchor x="313.0" y="1470.0" name="top"/>
  <anchor x="445.0" y="1031.75" name="topright"/>
  <outline>
    <contour>
      <point x="647.0" y="46.75" type="curve"/>
      <point x="637.25" y="72.5"/>
      <point x="560.0" y="263.25"/>
      <point x="542.75" y="295.0" type="curve"/>
      <point x="523.5" y="262.0"/>
      <point x="497.5" y="240.0"/>
      <point x="451.5" y="240.0" type="curve" smooth="yes"/>
      <point x="371.25" y="240.0"/>
      <point x="360.5" y="355.75"/>
      <point x="360.5" y="484.75" type="curve" smooth="yes"/>
      <point x="360.5" y="654.0"/>
      <point x="386.75" y="1134.25"/>
      <point x="404.75" y="1426.0" type="curve"/>
      <point x="344.0" y="1431.25"/>
      <point x="295.25" y="1434.0"/>
      <point x="244.0" y="1434.0" type="curve" smooth="yes"/>
      <point x="206.75" y="1434.0"/>
      <point x="159.25" y="1432.25"/>
      <point x="112.5" y="1429.0" type="curve"/>
      <point x="98.25" y="1174.75"/>
      <point x="79.0" y="784.0"/>
      <point x="79.0" y="421.75" type="curve" smooth="yes"/>
      <point x="79.0" y="142.75"/>
      <point x="126.75" y="-40.25"/>
      <point x="372.25" y="-40.25" type="curve" smooth="yes"/>
      <point x="497.25" y="-40.25"/>
      <point x="609.0" y="7.5"/>
    </contour>
  </outline>
</glyph>
<glyph name="m" format="2">
  <advance width="1858.0"/>
  <unicode hex="006D"/>
  <anchor x="929.0" y="0.0" name="bottom"/>
  <anchor x="929.0" y="1063.0" name="top"/>
  <outline>
    <contour>
      <point x="134.0" y="-7.75" type="curve"/>
      <point x="173.0" y="-12.5"/>
      <point x="267.0" y="-16.75"/>
      <point x="351.75" y="-16.75" type="curve" smooth="yes"/>
      <point x="386.25" y="-16.75"/>
      <point x="444.25" y="-14.75"/>
      <point x="458.5" y="-13.75" type="curve"/>
      <point x="455.0" y="18.0"/>
      <point x="436.5" y="270.0"/>
      <point x="424.5" y="589.25" type="curve"/>
      <point x="445.5" y="673.5"/>
      <point x="542.0" y="774.0"/>
      <point x="647.75" y="774.0" type="curve" smooth="yes"/>
      <point x="800.25" y="774.0"/>
      <point x="816.5" y="548.0"/>
      <point x="816.5" y="243.75" type="curve" smooth="yes"/>
      <point x="816.5" y="159.5"/>
      <point x="816.0" y="82.5"/>
      <point x="817.5" y="-7.0" type="curve"/>
      <point x="843.5" y="-11.0"/>
      <point x="909.0" y="-13.0"/>
      <point x="972.0" y="-13.0" type="curve" smooth="yes"/>
      <point x="1024.75" y="-13.0"/>
      <point x="1078.0" y="-11.0"/>
      <point x="1104.75" y="-9.0" type="curve"/>
      <point x="1104.75" y="74.75"/>
      <point x="1107.75" y="156.5"/>
      <point x="1110.75" y="231.5" type="curve" smooth="yes"/>
      <point x="1120.5" y="528.0"/>
      <point x="1155.5" y="770.25"/>
      <point x="1339.25" y="770.25" type="curve" smooth="yes"/>
      <point x="1439.75" y="770.25"/>
      <point x="1478.0" y="669.5"/>
      <point x="1478.0" y="484.5" type="curve" smooth="yes"/>
      <point x="1478.0" y="357.5"/>
      <point x="1458.75" y="188.5"/>
      <point x="1432.25" y="-9.75" type="curve"/>
      <point x="1486.0" y="-14.75"/>
      <point x="1540.0" y="-16.5"/>
      <point x="1593.25" y="-16.5" type="curve" smooth="yes"/>
      <point x="1643.75" y="-16.5"/>
      <point x="1697.5" y="-14.5"/>
      <point x="1746.0" y="-11.25" type="curve"/>
      <point x="1754.25" y="119.75"/>
      <point x="1762.5" y="266.0"/>
      <point x="1762.5" y="390.25" type="curve" smooth="yes"/>
      <point x="1762.5" y="809.0"/>
      <point x="1688.5" y="1044.75"/>
      <point x="1367.75" y="1044.75" type="curve" smooth="yes"/>
      <point x="1168.0" y="1044.75"/>
      <point x="1033.25" y="898.5"/>
      <point x="988.5" y="754.25" type="curve"/>
      <point x="984.0" y="785.75"/>
      <point x="977.5" y="819.75"/>
      <point x="965.75" y="852.0" type="curve" smooth="yes"/>
      <point x="928.25" y="949.25"/>
      <point x="855.75" y="1036.75"/>
      <point x="719.25" y="1036.75" type="curve" smooth="yes"/>
      <point x="527.0" y="1036.75"/>
      <point x="426.5" y="907.75"/>
      <point x="410.0" y="857.25" type="curve"/>
      <point x="410.0" y="885.25"/>
      <point x="408.0" y="982.75"/>
      <point x="406.0" y="1027.0" type="curve"/>
      <point x="340.0" y="1026.75"/>
      <point x="169.0" y="1006.5"/>
      <point x="105.5" y="989.5" type="curve"/>
      <point x="105.5" y="786.0"/>
      <point x="116.0" y="207.25"/>
    </contour>
  </outline>
</glyph>
<glyph name="n" format="2">
  <advance width="1330.0"/>
  <unicode hex="006E"/>
  <anchor x="682.5" y="0.0" name="bottom"/>
  <anchor x="682.5" y="1063.0" name="top"/>
  <outline>
    <contour>
      <point x="407.0" y="-13.5" type="curve"/>
      <point x="421.25" y="100.0"/>
      <point x="443.0" y="328.0"/>
      <point x="446.0" y="644.0" type="curve"/>
      <point x="509.0" y="701.75"/>
      <point x="618.0" y="775.75"/>
      <point x="738.0" y="775.75" type="curve" smooth="yes"/>
      <point x="883.25" y="775.75"/>
      <point x="912.75" y="665.75"/>
      <point x="912.75" y="499.0" type="curve" smooth="yes"/>
      <point x="912.75" y="323.25"/>
      <point x="879.25" y="108.25"/>
      <point x="858.0" y="-3.0" type="curve"/>
      <point x="887.0" y="-6.25"/>
      <point x="955.0" y="-8.0"/>
      <point x="1022.75" y="-8.0" type="curve" smooth="yes"/>
      <point x="1086.5" y="-8.0"/>
      <point x="1150.0" y="-6.0"/>
      <point x="1178.0" y="-3.0" type="curve"/>
      <point x="1199.5" y="173.25"/>
      <point x="1210.25" y="380.0"/>
      <point x="1210.25" y="507.75" type="curve" smooth="yes"/>
      <point x="1210.25" y="875.5"/>
      <point x="1139.25" y="1060.0"/>
      <point x="834.75" y="1060.0" type="curve" smooth="yes"/>
      <point x="669.5" y="1060.0"/>
      <point x="503.5" y="956.25"/>
      <point x="452.0" y="880.75" type="curve"/>
      <point x="453.5" y="932.25"/>
      <point x="453.5" y="1017.5"/>
      <point x="452.75" y="1036.25" type="curve"/>
      <point x="417.5" y="1042.0"/>
      <point x="368.75" y="1044.25"/>
      <point x="319.5" y="1044.25" type="curve" smooth="yes"/>
      <point x="249.0" y="1044.25"/>
      <point x="175.25" y="1039.75"/>
      <point x="124.5" y="1033.0" type="curve"/>
      <point x="124.5" y="559.0"/>
      <point x="114.75" y="217.75"/>
      <point x="90.75" y="-4.75" type="curve"/>
      <point x="115.75" y="-7.75"/>
      <point x="193.75" y="-11.0"/>
      <point x="242.75" y="-12.5" type="curve" smooth="yes"/>
      <point x="303.5" y="-14.0"/>
      <point x="366.0" y="-13.75"/>
    </contour>
  </outline>
</glyph>
<glyph name="o" format="2">
  <advance width="1170.5"/>
  <unicode hex="006F"/>
  <anchor x="590.0" y="0.0" name="bottom"/>
  <anchor x="590.0" y="532.0" name="center"/>
  <anchor x="750.0" y="0.0" name="ogonek"/>
  <anchor x="590.0" y="1063.0" name="top"/>
  <anchor x="884.0" y="941.0" name="topright"/>
  <outline>
    <contour>
      <point x="600.25" y="-22.5" type="curve" smooth="yes"/>
      <point x="920.5" y="-22.5"/>
      <point x="1100.0" y="173.5"/>
      <point x="1100.0" y="475.5" type="curve" smooth="yes"/>
      <point x="1100.0" y="821.0"/>
      <point x="937.5" y="1062.75"/>
      <point x="610.75" y="1062.75" type="curve" smooth="yes"/>
      <point x="288.5" y="1062.75"/>
      <point x="66.75" y="883.25"/>
      <point x="66.75" y="527.0" type="curve" smooth="yes"/>
      <point x="66.75" y="169.75"/>
      <point x="246.75" y="-22.5"/>
    </contour>
    <contour>
      <point x="589.25" y="264.5" type="curve" smooth="yes"/>
      <point x="445.0" y="264.5"/>
      <point x="369.25" y="383.75"/>
      <point x="369.25" y="548.25" type="curve" smooth="yes"/>
      <point x="369.25" y="694.25"/>
      <point x="436.5" y="830.25"/>
      <point x="594.75" y="830.25" type="curve" smooth="yes"/>
      <point x="739.25" y="830.25"/>
      <point x="818.25" y="705.25"/>
      <point x="818.25" y="527.25" type="curve" smooth="yes"/>
      <point x="818.25" y="374.5"/>
      <point x="735.75" y="264.5"/>
    </contour>
  </outline>
</glyph>
<glyph name="p" format="2">
  <advance width="1221.5"/>
  <unicode hex="0070"/>
  <anchor x="600.0" y="0.0" name="bottom"/>
  <anchor x="600.0" y="1063.0" name="top"/>
  <outline>
    <contour>
      <point x="53.5" y="-448.5" type="curve"/>
      <point x="116.25" y="-448.5"/>
      <point x="254.25" y="-442.75"/>
      <point x="361.0" y="-421.5" type="curve"/>
      <point x="374.0" y="-302.75"/>
      <point x="391.75" y="84.25"/>
      <point x="392.75" y="166.0" type="curve"/>
      <point x="429.0" y="120.0"/>
      <point x="573.0" y="65.75"/>
      <point x="693.5" y="65.75" type="curve" smooth="yes"/>
      <point x="963.25" y="65.75"/>
      <point x="1160.5" y="263.5"/>
      <point x="1160.5" y="585.75" type="curve" smooth="yes"/>
      <point x="1160.5" y="890.75"/>
      <point x="1033.0" y="1072.25"/>
      <point x="762.75" y="1072.25" type="curve" smooth="yes"/>
      <point x="578.5" y="1072.25"/>
      <point x="453.5" y="968.25"/>
      <point x="415.5" y="917.75" type="curve"/>
      <point x="415.5" y="965.75"/>
      <point x="412.25" y="1029.25"/>
      <point x="408.75" y="1073.0" type="curve"/>
      <point x="308.0" y="1073.0"/>
      <point x="192.0" y="1062.25"/>
      <point x="109.0" y="1036.25" type="curve"/>
      <point x="109.0" y="836.75"/>
      <point x="94.25" y="96.5"/>
    </contour>
    <contour>
      <point x="645.5" y="376.25" type="curve" smooth="yes"/>
      <point x="515.0" y="376.25"/>
      <point x="445.25" y="435.25"/>
      <point x="410.5" y="470.0" type="curve"/>
      <point x="412.0" y="516.75"/>
      <point x="416.75" y="662.0"/>
      <point x="417.25" y="700.0" type="curve"/>
      <point x="452.0" y="745.0"/>
      <point x="540.75" y="814.25"/>
      <point x="665.25" y="814.25" type="curve" smooth="yes"/>
      <point x="799.0" y="814.25"/>
      <point x="857.25" y="740.5"/>
      <point x="857.25" y="609.75" type="curve" smooth="yes"/>
      <point x="857.25" y="462.75"/>
      <point x="784.5" y="376.25"/>
    </contour>
  </outline>
</glyph>
<glyph name="q" format="2">
  <advance width="1207.0"/>
  <unicode hex="0071"/>
  <anchor x="604.0" y="0.0" name="bottom"/>
  <anchor x="604.0" y="1063.0" name="top"/>
  <outline>
    <contour>
      <point x="1083.75" y="-459.75" type="curve"/>
      <point x="1070.0" y="-342.5"/>
      <point x="1045.75" y="-104.5"/>
      <point x="1045.75" y="126.75" type="curve" smooth="yes"/>
      <point x="1045.75" y="418.5"/>
      <point x="1067.25" y="779.75"/>
      <point x="1104.5" y="1050.25" type="curve"/>
      <point x="1005.75" y="1075.5"/>
      <point x="927.75" y="1089.0"/>
      <point x="821.75" y="1089.5" type="curve"/>
      <point x="817.5" y="1068.0"/>
      <point x="805.25" y="990.0"/>
      <point x="804.75" y="950.5" type="curve"/>
      <point x="721.5" y="1035.75"/>
      <point x="601.5" y="1084.5"/>
      <point x="448.0" y="1084.5" type="curve" smooth="yes"/>
      <point x="164.0" y="1084.5"/>
      <point x="60.75" y="827.25"/>
      <point x="60.75" y="529.5" type="curve" smooth="yes"/>
      <point x="60.75" y="221.75"/>
      <point x="210.5" y="10.0"/>
      <point x="502.25" y="10.0" type="curve" smooth="yes"/>
      <point x="639.25" y="10.0"/>
      <point x="740.75" y="65.75"/>
      <point x="765.0" y="106.25" type="curve"/>
      <point x="765.0" y="-89.25"/>
      <point x="771.75" y="-277.25"/>
      <point x="791.0" y="-445.25" type="curve"/>
      <point x="860.5" y="-452.25"/>
      <point x="961.0" y="-459.75"/>
    </contour>
    <contour>
      <point x="552.5" y="324.0" type="curve" smooth="yes"/>
      <point x="422.75" y="324.0"/>
      <point x="354.25" y="427.5"/>
      <point x="354.25" y="565.75" type="curve" smooth="yes"/>
      <point x="354.25" y="703.25"/>
      <point x="416.5" y="794.0"/>
      <point x="547.0" y="794.0" type="curve" smooth="yes"/>
      <point x="655.5" y="794.0"/>
      <point x="755.25" y="725.5"/>
      <point x="784.25" y="703.75" type="curve"/>
      <point x="778.5" y="624.75"/>
      <point x="768.5" y="470.0"/>
      <point x="765.0" y="394.75" type="curve"/>
      <point x="730.75" y="368.0"/>
      <point x="647.0" y="324.0"/>
    </contour>
  </outline>
</glyph>
<glyph name="r" format="2">
  <advance width="853.0"/>
  <unicode hex="0072"/>
  <anchor x="427.0" y="0.0" name="bottom"/>
  <anchor x="427.0" y="1063.0" name="top"/>
  <outline>
    <contour>
      <point x="359.0" y="895.75" type="curve"/>
      <point x="357.25" y="943.5"/>
      <point x="332.25" y="1031.5"/>
      <point x="316.0" y="1069.0" type="curve"/>
      <point x="289.25" y="1067.25"/>
      <point x="140.25" y="1042.25"/>
      <point x="45.25" y="1015.25" type="curve"/>
      <point x="98.75" y="788.5"/>
      <point x="137.75" y="274.75"/>
      <point x="137.75" y="-5.5" type="curve"/>
      <point x="250.5" y="-6.25"/>
      <point x="382.75" y="-3.5"/>
      <point x="477.0" y="8.5" type="curve"/>
      <point x="477.0" y="105.5"/>
      <point x="433.5" y="472.0"/>
      <point x="405.75" y="629.25" type="curve"/>
      <point x="461.75" y="705.5"/>
      <point x="547.5" y="754.5"/>
      <point x="641.25" y="754.5" type="curve" smooth="yes"/>
      <point x="701.0" y="754.5"/>
      <point x="748.25" y="736.0"/>
      <point x="777.75" y="724.0" type="curve"/>
      <point x="840.0" y="1042.0" type="line"/>
      <point x="811.25" y="1060.75"/>
      <point x="742.5" y="1075.25"/>
      <point x="681.5" y="1075.25" type="curve" smooth="yes"/>
      <point x="533.75" y="1075.25"/>
      <point x="404.0" y="985.5"/>
    </contour>
  </outline>
</glyph>
<glyph name="s" format="2">
  <advance width="989.75"/>
  <unicode hex="0073"/>
  <anchor x="502.5" y="-67.5" name="bottom"/>
  <anchor x="507.5" y="1116.25" name="top"/>
  <outline>
    <contour>
      <point x="493.0" y="-78.75" type="curve" smooth="yes"/>
      <point x="734.0" y="-78.75"/>
      <point x="939.25" y="41.0"/>
      <point x="939.25" y="289.25" type="curve" smooth="yes"/>
      <point x="939.25" y="493.75"/>
      <point x="745.5" y="602.0"/>
      <point x="586.25" y="663.5" type="curve" smooth="yes"/>
      <point x="464.0" y="712.75"/>
      <point x="390.5" y="748.5"/>
      <point x="390.5" y="808.5" type="curve" smooth="yes"/>
      <point x="390.5" y="871.0"/>
      <point x="466.25" y="890.25"/>
      <point x="534.5" y="890.25" type="curve" smooth="yes"/>
      <point x="624.5" y="890.25"/>
      <point x="713.25" y="837.5"/>
      <point x="767.5" y="790.75" type="curve"/>
      <point x="829.0" y="864.25"/>
      <point x="886.75" y="974.75"/>
      <point x="898.75" y="1014.25" type="curve"/>
      <point x="808.75" y="1083.5"/>
      <point x="654.5" y="1123.75"/>
      <point x="516.5" y="1123.75" type="curve" smooth="yes"/>
      <point x="300.0" y="1123.75"/>
      <point x="99.0" y="1017.5"/>
      <point x="99.0" y="817.75" type="curve" smooth="yes"/>
      <point x="99.0" y="621.5"/>
      <point x="243.75" y="533.75"/>
      <point x="406.0" y="466.75" type="curve" smooth="yes"/>
      <point x="523.25" y="419.25"/>
      <point x="641.75" y="351.75"/>
      <point x="641.75" y="280.0" type="curve" smooth="yes"/>
      <point x="641.75" y="216.0"/>
      <point x="581.0" y="186.25"/>
      <point x="501.0" y="186.25" type="curve" smooth="yes"/>
      <point x="397.25" y="186.25"/>
      <point x="266.5" y="272.25"/>
      <point x="171.75" y="356.25" type="curve"/>
      <point x="122.25" y="307.5"/>
      <point x="31.75" y="135.0"/>
      <point x="16.25" y="86.25" type="curve"/>
      <point x="75.0" y="22.5"/>
      <point x="257.25" y="-78.75"/>
    </contour>
  </outline>
</glyph>
<glyph name="t" format="2">
  <advance width="964.0"/>
  <unicode hex="0074"/>
  <anchor x="605.5" y="-39.75" name="bottom"/>
  <anchor x="467.0" y="532.0" name="center"/>
  <anchor x="401.0" y="1423.5" name="top"/>
  <anchor x="593.0" y="1350.5" name="topright"/>
  <outline>
    <contour>
      <point x="914.25" y="130.75" type="curve"/>
      <point x="893.5" y="155.25"/>
      <point x="785.25" y="282.75"/>
      <point x="750.5" y="331.0" type="curve"/>
      <point x="730.0" y="291.75"/>
      <point x="698.25" y="227.0"/>
      <point x="636.0" y="227.0" type="curve" smooth="yes"/>
      <point x="540.75" y="227.0"/>
      <point x="531.25" y="326.75"/>
      <point x="531.25" y="458.5" type="curve" smooth="yes"/>
      <point x="531.25" y="575.75"/>
      <point x="539.0" y="796.25"/>
      <point x="543.25" y="866.25" type="curve"/>
      <point x="577.75" y="869.5"/>
      <point x="647.25" y="874.0"/>
      <point x="696.0" y="876.25" type="curve" smooth="yes"/>
      <point x="766.25" y="879.25"/>
      <point x="856.0" y="881.75"/>
      <point x="869.25" y="881.25" type="curve"/>
      <point x="869.25" y="955.0"/>
      <point x="867.25" y="1065.25"/>
      <point x="858.5" y="1129.25" type="curve"/>
      <point x="843.25" y="1129.75"/>
      <point x="780.25" y="1130.75"/>
      <point x="696.0" y="1127.0" type="curve" smooth="yes"/>
      <point x="661.25" y="1125.5"/>
      <point x="592.25" y="1121.75"/>
      <point x="548.5" y="1119.75" type="curve"/>
      <point x="546.75" y="1172.5"/>
      <point x="546.25" y="1229.25"/>
      <point x="546.25" y="1270.75" type="curve" smooth="yes"/>
      <point x="546.25" y="1353.5"/>
      <point x="545.0" y="1417.25"/>
      <point x="544.75" y="1433.25" type="curve"/>
      <point x="249.0" y="1406.75" type="line"/>
      <point x="252.25" y="1377.0"/>
      <point x="256.5" y="1321.5"/>
      <point x="258.0" y="1271.75" type="curve" smooth="yes"/>
      <point x="259.5" y="1217.0"/>
      <point x="261.75" y="1137.5"/>
      <point x="263.25" y="1105.0" type="curve"/>
      <point x="166.25" y="1100.25"/>
      <point x="77.5" y="1091.0"/>
      <point x="0.25" y="1081.25" type="curve"/>
      <point x="0.25" y="1060.25"/>
      <point x="4.75" y="924.25"/>
      <point x="25.0" y="812.75" type="curve"/>
      <point x="58.5" y="820.25"/>
      <point x="159.0" y="835.5"/>
      <point x="263.5" y="846.0" type="curve"/>
      <point x="258.75" y="770.0"/>
      <point x="245.75" y="509.5"/>
      <point x="245.75" y="325.0" type="curve" smooth="yes"/>
      <point x="245.75" y="122.0"/>
      <point x="350.25" y="-48.0"/>
      <point x="593.25" y="-48.0" type="curve" smooth="yes"/>
      <point x="777.0" y="-48.0"/>
      <point x="875.5" y="57.0"/>
    </contour>
  </outline>
</glyph>
<glyph name="u" format="2">
  <advance width="1178.0"/>
  <unicode hex="0075"/>
  <anchor x="574.0" y="0.0" name="bottom"/>
  <anchor x="798.5" y="0.0" name="ogonek"/>
  <anchor x="574.0" y="1063.0" name="top"/>
  <anchor x="1032.75" y="911.5" name="topright"/>
  <outline>
    <contour>
      <point x="733.5" y="978.25" type="curve"/>
      <point x="751.5" y="889.5"/>
      <point x="763.75" y="769.25"/>
      <point x="763.75" y="653.0" type="curve" smooth="yes"/>
      <point x="763.75" y="419.5"/>
      <point x="715.25" y="235.25"/>
      <point x="583.5" y="235.25" type="curve" smooth="yes"/>
      <point x="443.5" y="235.25"/>
      <point x="396.5" y="438.25"/>
      <point x="396.5" y="702.75" type="curve" smooth="yes"/>
      <point x="396.5" y="808.25"/>
      <point x="404.5" y="916.25"/>
      <point x="414.25" y="1007.25" type="curve"/>
      <point x="374.75" y="1018.75"/>
      <point x="300.75" y="1026.25"/>
      <point x="234.0" y="1027.0" type="curve" smooth="yes"/>
      <point x="187.0" y="1027.75"/>
      <point x="123.0" y="1025.5"/>
      <point x="87.5" y="1022.5" type="curve"/>
      <point x="80.0" y="922.5"/>
      <point x="74.5" y="821.0"/>
      <point x="74.5" y="724.25" type="curve" smooth="yes"/>
      <point x="74.5" y="283.25"/>
      <point x="170.25" y="-58.25"/>
      <point x="575.0" y="-58.25" type="curve" smooth="yes"/>
      <point x="953.5" y="-58.25"/>
      <point x="1078.25" y="266.5"/>
      <point x="1078.25" y="660.25" type="curve" smooth="yes"/>
      <point x="1078.25" y="767.0"/>
      <point x="1067.75" y="877.75"/>
      <point x="1051.25" y="985.5" type="curve"/>
      <point x="1013.25" y="991.75"/>
      <point x="945.5" y="996.25"/>
      <point x="896.0" y="996.25" type="curve" smooth="yes"/>
      <point x="836.5" y="996.25"/>
      <point x="766.5" y="989.0"/>
    </contour>
  </outline>
</glyph>
<glyph name="v" format="2">
  <advance width="1007.0"/>
  <unicode hex="0076"/>
  <anchor x="504.0" y="0.0" name="bottom"/>
  <anchor x="504.0" y="1063.0" name="top"/>
  <outline>
    <contour>
      <point x="684.0" y="1091.0" type="curve"/>
      <point x="632.75" y="805.5"/>
      <point x="566.5" y="567.25"/>
      <point x="508.0" y="384.5" type="curve"/>
      <point x="458.5" y="514.75"/>
      <point x="328.5" y="903.0"/>
      <point x="280.5" y="1092.0" type="curve"/>
      <point x="212.25" y="1072.0"/>
      <point x="47.75" y="1032.75"/>
      <point x="8.25" y="1026.0" type="curve"/>
      <point x="116.0" y="666.5"/>
      <point x="238.0" y="309.5"/>
      <point x="377.0" y="19.25" type="curve"/>
      <point x="410.25" y="15.0"/>
      <point x="460.25" y="10.25"/>
      <point x="510.5" y="10.25" type="curve" smooth="yes"/>
      <point x="558.75" y="10.25"/>
      <point x="607.0" y="13.5"/>
      <point x="640.75" y="19.25" type="curve"/>
      <point x="765.25" y="307.0"/>
      <point x="905.75" y="752.0"/>
      <point x="970.5" y="1019.25" type="curve"/>
      <point x="952.25" y="1025.75"/>
      <point x="825.5" y="1066.25"/>
    </contour>
  </outline>
</glyph>
<glyph name="w" format="2">
  <advance width="1520.0"/>
  <unicode hex="0077"/>
  <anchor x="760.0" y="0.0" name="bottom"/>
  <anchor x="760.0" y="1063.0" name="top"/>
  <outline>
    <contour>
      <point x="437.25" y="7.0" type="curve" smooth="yes"/>
      <point x="597.25" y="7.0"/>
      <point x="695.75" y="116.25"/>
      <point x="738.5" y="237.25" type="curve"/>
      <point x="772.75" y="119.25"/>
      <point x="847.5" y="14.75"/>
      <point x="1013.5" y="14.75" type="curve" smooth="yes"/>
      <point x="1318.5" y="14.75"/>
      <point x="1436.0" y="309.5"/>
      <point x="1436.0" y="727.0" type="curve" smooth="yes"/>
      <point x="1436.0" y="803.25"/>
      <point x="1428.75" y="952.5"/>
      <point x="1422.5" y="1034.5" type="curve"/>
      <point x="1389.25" y="1037.25"/>
      <point x="1319.25" y="1041.25"/>
      <point x="1276.5" y="1041.25" type="curve" smooth="yes"/>
      <point x="1232.5" y="1041.25"/>
      <point x="1189.25" y="1041.25"/>
      <point x="1145.0" y="1041.0" type="curve"/>
      <point x="1148.5" y="943.0"/>
      <point x="1149.25" y="835.5"/>
      <point x="1149.25" y="752.75" type="curve" smooth="yes"/>
      <point x="1149.25" y="479.75"/>
      <point x="1112.25" y="268.75"/>
      <point x="1000.75" y="268.75" type="curve" smooth="yes"/>
      <point x="879.25" y="268.75"/>
      <point x="872.25" y="501.75"/>
      <point x="872.25" y="889.25" type="curve" smooth="yes"/>
      <point x="872.25" y="1036.0" type="line"/>
      <point x="808.0" y="1039.0"/>
      <point x="664.0" y="1040.75"/>
      <point x="605.75" y="1040.75" type="curve"/>
      <point x="609.25" y="942.0"/>
      <point x="610.5" y="829.75"/>
      <point x="610.5" y="739.0" type="curve" smooth="yes"/>
      <point x="610.5" y="494.25"/>
      <point x="568.25" y="302.75"/>
      <point x="469.75" y="302.75" type="curve" smooth="yes"/>
      <point x="385.5" y="302.75"/>
      <point x="360.0" y="426.25"/>
      <point x="360.0" y="617.5" type="curve" smooth="yes"/>
      <point x="360.0" y="737.5"/>
      <point x="368.75" y="885.25"/>
      <point x="382.75" y="1047.0" type="curve"/>
      <point x="295.25" y="1053.5"/>
      <point x="177.75" y="1059.5"/>
      <point x="93.5" y="1059.5" type="curve"/>
      <point x="80.0" y="922.0"/>
      <point x="67.75" y="774.5"/>
      <point x="67.75" y="637.5" type="curve" smooth="yes"/>
      <point x="67.75" y="298.25"/>
      <point x="140.25" y="7.0"/>
    </contour>
  </outline>
</glyph>
<glyph name="x" format="2">
  <advance width="1142.0"/>
  <unicode hex="0078"/>
  <anchor x="576.0" y="0.0" name="bottom"/>
  <anchor x="576.0" y="1063.0" name="top"/>
  <outline>
    <contour>
      <point x="217.5" y="-33.0" type="curve"/>
      <point x="292.25" y="36.0"/>
      <point x="411.5" y="170.25"/>
      <point x="554.5" y="357.5" type="curve"/>
      <point x="645.25" y="248.0"/>
      <point x="748.5" y="90.5"/>
      <point x="823.5" y="-19.5" type="curve"/>
      <point x="903.5" y="24.25"/>
      <point x="995.5" y="76.5"/>
      <point x="1062.5" y="130.0" type="curve"/>
      <point x="951.75" y="290.0"/>
      <point x="849.0" y="450.25"/>
      <point x="743.0" y="576.75" type="curve"/>
      <point x="861.5" y="705.5"/>
      <point x="1008.5" y="912.5"/>
      <point x="1074.5" y="1026.25" type="curve"/>
      <point x="1011.5" y="1065.5"/>
      <point x="896.75" y="1123.75"/>
      <point x="812.5" y="1161.0" type="curve"/>
      <point x="729.5" y="1015.75"/>
      <point x="652.25" y="890.5"/>
      <point x="568.5" y="773.75" type="curve"/>
      <point x="501.25" y="867.75"/>
      <point x="313.5" y="1084.5"/>
      <point x="233.5" y="1162.25" type="curve"/>
      <point x="178.5" y="1132.5"/>
      <point x="32.75" y="1018.75"/>
      <point x="12.25" y="992.0" type="curve"/>
      <point x="88.25" y="915.5"/>
      <point x="219.5" y="784.75"/>
      <point x="400.0" y="580.75" type="curve"/>
      <point x="286.5" y="454.0"/>
      <point x="63.25" y="217.0"/>
      <point x="12.75" y="167.5" type="curve"/>
      <point x="60.5" y="102.25"/>
      <point x="156.75" y="14.75"/>
    </contour>
  </outline>
</glyph>
<glyph name="y" format="2">
  <advance width="1079.0"/>
  <unicode hex="0079"/>
  <anchor x="540.0" y="0.0" name="bottom"/>
  <anchor x="540.0" y="1063.0" name="top"/>
  <outline>
    <contour>
      <point x="441.75" y="-526.75" type="curve" smooth="yes"/>
      <point x="777.5" y="-526.75"/>
      <point x="942.0" y="-286.75"/>
      <point x="960.0" y="56.0" type="curve" smooth="yes"/>
      <point x="971.75" y="273.25"/>
      <point x="979.0" y="499.5"/>
      <point x="979.0" y="683.75" type="curve" smooth="yes"/>
      <point x="979.0" y="779.5"/>
      <point x="977.25" y="866.5"/>
      <point x="973.75" y="941.75" type="curve"/>
      <point x="912.5" y="955.25"/>
      <point x="853.75" y="961.5"/>
      <point x="792.0" y="961.5" type="curve" smooth="yes"/>
      <point x="761.25" y="961.5"/>
      <point x="729.75" y="959.75"/>
      <point x="698.75" y="957.0" type="curve"/>
      <point x="701.0" y="934.0"/>
      <point x="701.75" y="822.75"/>
      <point x="697.5" y="723.0" type="curve" smooth="yes"/>
      <point x="690.5" y="484.5"/>
      <point x="633.5" y="324.0"/>
      <point x="496.25" y="324.0" type="curve" smooth="yes"/>
      <point x="373.75" y="324.0"/>
      <point x="350.25" y="501.75"/>
      <point x="350.25" y="669.75" type="curve" smooth="yes"/>
      <point x="350.25" y="799.75"/>
      <point x="367.25" y="932.75"/>
      <point x="373.75" y="965.5" type="curve"/>
      <point x="348.25" y="971.25"/>
      <point x="267.25" y="975.75"/>
      <point x="194.0" y="975.75" type="curve" smooth="yes"/>
      <point x="141.0" y="975.75"/>
      <point x="91.5" y="973.25"/>
      <point x="68.5" y="968.25" type="curve"/>
      <point x="62.5" y="860.25"/>
      <point x="58.5" y="760.25"/>
      <point x="58.5" y="668.25" type="curve" smooth="yes"/>
      <point x="58.5" y="313.0"/>
      <point x="142.0" y="37.75"/>
      <point x="450.25" y="37.75" type="curve" smooth="yes"/>
      <point x="574.0" y="37.75"/>
      <point x="671.5" y="108.0"/>
      <point x="716.0" y="183.75" type="curve"/>
      <point x="711.5" y="-20.0"/>
      <point x="644.75" y="-247.0"/>
      <point x="452.0" y="-247.0" type="curve" smooth="yes"/>
      <point x="317.5" y="-247.0"/>
      <point x="172.25" y="-172.25"/>
      <point x="103.25" y="-126.5" type="curve"/>
      <point x="68.25" y="-174.25"/>
      <point x="-8.25" y="-318.75"/>
      <point x="-31.25" y="-382.75" type="curve"/>
      <point x="72.25" y="-451.75"/>
      <point x="238.25" y="-526.75"/>
    </contour>
  </outline>
</glyph>
<glyph name="z" format="2">
  <advance width="1074.0"/>
  <unicode hex="007A"/>
  <anchor x="537.0" y="0.0" name="bottom"/>
  <anchor x="537.0" y="532.0" name="center"/>
  <anchor x="537.0" y="1063.0" name="top"/>
  <outline>
    <contour>
      <point x="972.5" y="3.25" type="curve"/>
      <point x="979.25" y="37.75"/>
      <point x="985.5" y="249.25"/>
      <point x="985.5" y="276.5" type="curve"/>
      <point x="905.5" y="268.75"/>
      <point x="747.25" y="258.5"/>
      <point x="622.25" y="258.5" type="curve" smooth="yes"/>
      <point x="557.25" y="258.5"/>
      <point x="460.5" y="259.5"/>
      <point x="430.75" y="262.5" type="curve"/>
      <point x="501.5" y="355.5"/>
      <point x="821.5" y="701.25"/>
      <point x="966.0" y="832.25" type="curve"/>
      <point x="966.0" y="867.0"/>
      <point x="961.25" y="1024.5"/>
      <point x="957.0" y="1042.75" type="curve"/>
      <point x="848.25" y="1044.25"/>
      <point x="688.25" y="1044.75"/>
      <point x="552.5" y="1044.75" type="curve" smooth="yes"/>
      <point x="394.25" y="1044.75"/>
      <point x="167.5" y="1048.5"/>
      <point x="82.0" y="1051.0" type="curve"/>
      <point x="69.25" y="809.0" type="line"/>
      <point x="80.25" y="809.75"/>
      <point x="166.0" y="811.75"/>
      <point x="241.25" y="811.75" type="curve" smooth="yes"/>
      <point x="349.5" y="811.75"/>
      <point x="539.25" y="814.0"/>
      <point x="587.5" y="815.5" type="curve"/>
      <point x="436.25" y="673.0"/>
      <point x="141.75" y="352.75"/>
      <point x="60.0" y="238.75" type="curve"/>
      <point x="46.25" y="12.0" type="line"/>
      <point x="165.5" y="-3.5"/>
      <point x="346.75" y="-9.0"/>
      <point x="524.75" y="-9.0" type="curve" smooth="yes"/>
      <point x="696.75" y="-9.0"/>
      <point x="867.5" y="-3.25"/>
    </contour>
  </outline>
</glyph>
<glyph name="braceleft" format="2">
  <advance width="665.0"/>
  <unicode hex="007B"/>
  <outline>
    <contour>
      <point x="526.75" y="-437.75" type="curve"/>
      <point x="568.5" y="-371.5"/>
      <point x="604.75" y="-302.25"/>
      <point x="639.25" y="-225.0" type="curve"/>
      <point x="527.75" y="-201.5"/>
      <point x="471.5" y="-102.5"/>
      <point x="471.5" y="20.75" type="curve" smooth="yes"/>
      <point x="471.5" y="71.25"/>
      <point x="478.75" y="113.5"/>
      <point x="489.0" y="157.0" type="curve" smooth="yes"/>
      <point x="499.5" y="202.75"/>
      <point x="507.25" y="249.25"/>
      <point x="507.25" y="307.75" type="curve" smooth="yes"/>
      <point x="507.25" y="503.0"/>
      <point x="350.75" y="573.0"/>
      <point x="179.25" y="583.75" type="curve"/>
      <point x="178.5" y="562.25" type="line"/>
      <point x="345.5" y="567.25"/>
      <point x="468.5" y="695.5"/>
      <point x="468.5" y="859.25" type="curve" smooth="yes"/>
      <point x="468.5" y="914.75"/>
      <point x="460.75" y="953.5"/>
      <point x="450.5" y="992.25" type="curve" smooth="yes"/>
      <point x="440.5" y="1029.5"/>
      <point x="433.25" y="1067.5"/>
      <point x="433.25" y="1118.5" type="curve" smooth="yes"/>
      <point x="433.25" y="1235.0"/>
      <point x="488.0" y="1341.75"/>
      <point x="611.25" y="1368.5" type="curve"/>
      <point x="610.5" y="1456.75"/>
      <point x="559.75" y="1560.5"/>
      <point x="523.0" y="1588.5" type="curve"/>
      <point x="264.0" y="1568.25"/>
      <point x="142.0" y="1339.75"/>
      <point x="142.0" y="1134.5" type="curve" smooth="yes"/>
      <point x="142.0" y="1070.25"/>
      <point x="153.5" y="1029.25"/>
      <point x="168.0" y="990.0" type="curve" smooth="yes"/>
      <point x="182.5" y="950.5"/>
      <point x="195.0" y="912.0"/>
      <point x="195.0" y="851.75" type="curve" smooth="yes"/>
      <point x="195.0" y="767.25"/>
      <point x="141.5" y="698.75"/>
      <point x="40.75" y="683.25" type="curve"/>
      <point x="35.0" y="656.75"/>
      <point x="32.5" y="608.5"/>
      <point x="32.5" y="568.0" type="curve" smooth="yes"/>
      <point x="32.5" y="525.0"/>
      <point x="35.75" y="474.25"/>
      <point x="42.75" y="448.75" type="curve"/>
      <point x="161.75" y="425.25"/>
      <point x="236.25" y="358.75"/>
      <point x="236.25" y="267.25" type="curve" smooth="yes"/>
      <point x="236.25" y="235.0"/>
      <point x="230.0" y="199.25"/>
      <point x="220.5" y="160.25" type="curve" smooth="yes"/>
      <point x="208.5" y="110.5"/>
      <point x="197.25" y="54.75"/>
      <point x="197.25" y="-4.25" type="curve" smooth="yes"/>
      <point x="197.25" y="-228.75"/>
      <point x="314.75" y="-409.75"/>
    </contour>
  </outline>
</glyph>
<glyph name="bar" format="2">
  <advance width="487.0"/>
  <unicode hex="007C"/>
  <outline>
    <contour>
      <point x="354.75" y="-555.5" type="curve"/>
      <point x="381.75" y="-401.25"/>
      <point x="392.0" y="-100.25"/>
      <point x="392.0" y="236.5" type="curve" smooth="yes"/>
      <point x="392.0" y="678.5"/>
      <point x="377.0" y="1211.0"/>
      <point x="356.5" y="1537.5" type="curve"/>
      <point x="277.25" y="1537.5"/>
      <point x="126.25" y="1530.5"/>
      <point x="81.75" y="1527.5" type="curve"/>
      <point x="67.0" y="1089.25"/>
      <point x="63.0" y="663.25"/>
      <point x="63.0" y="321.0" type="curve" smooth="yes"/>
      <point x="63.0" y="-45.75"/>
      <point x="68.75" y="-338.5"/>
      <point x="74.75" y="-536.25" type="curve"/>
      <point x="161.0" y="-553.25"/>
      <point x="276.0" y="-555.5"/>
    </contour>
  </outline>
</glyph>
<glyph name="braceright" format="2">
  <advance width="614.0"/>
  <unicode hex="007D"/>
  <outline>
    <contour>
      <point x="159.0" y="-449.5" type="curve"/>
      <point x="349.25" y="-417.75"/>
      <point x="493.75" y="-224.75"/>
      <point x="493.75" y="-25.0" type="curve" smooth="yes"/>
      <point x="493.75" y="34.0"/>
      <point x="481.25" y="84.0"/>
      <point x="465.25" y="134.5" type="curve" smooth="yes"/>
      <point x="449.25" y="185.5"/>
      <point x="435.5" y="237.5"/>
      <point x="435.5" y="300.25" type="curve" smooth="yes"/>
      <point x="435.5" y="399.25"/>
      <point x="483.75" y="460.75"/>
      <point x="580.75" y="476.25" type="curve"/>
      <point x="595.0" y="501.25"/>
      <point x="602.75" y="552.0"/>
      <point x="602.75" y="591.25" type="curve" smooth="yes"/>
      <point x="602.75" y="631.75"/>
      <point x="594.5" y="682.0"/>
      <point x="578.75" y="713.25" type="curve"/>
      <point x="468.75" y="719.0"/>
      <point x="392.75" y="772.75"/>
      <point x="392.75" y="900.25" type="curve" smooth="yes"/>
      <point x="392.75" y="953.25"/>
      <point x="405.75" y="1006.75"/>
      <point x="421.25" y="1057.0" type="curve" smooth="yes"/>
      <point x="436.0" y="1105.0"/>
      <point x="447.5" y="1151.0"/>
      <point x="447.5" y="1197.5" type="curve" smooth="yes"/>
      <point x="447.5" y="1383.25"/>
      <point x="315.75" y="1577.0"/>
      <point x="128.75" y="1615.25" type="curve"/>
      <point x="82.75" y="1560.25"/>
      <point x="17.75" y="1473.5"/>
      <point x="-19.25" y="1404.75" type="curve"/>
      <point x="110.5" y="1371.75"/>
      <point x="162.75" y="1270.0"/>
      <point x="162.75" y="1140.75" type="curve" smooth="yes"/>
      <point x="162.75" y="1084.25"/>
      <point x="154.25" y="1042.25"/>
      <point x="144.75" y="1002.5" type="curve" smooth="yes"/>
      <point x="135.25" y="963.0"/>
      <point x="127.25" y="925.25"/>
      <point x="127.25" y="870.0" type="curve" smooth="yes"/>
      <point x="127.25" y="669.5"/>
      <point x="311.75" y="564.25"/>
      <point x="460.5" y="560.75" type="curve"/>
      <point x="463.5" y="597.5" type="line"/>
      <point x="307.0" y="596.25"/>
      <point x="173.5" y="466.75"/>
      <point x="173.5" y="309.75" type="curve" smooth="yes"/>
      <point x="173.5" y="246.0"/>
      <point x="188.5" y="192.0"/>
      <point x="206.0" y="138.25" type="curve" smooth="yes"/>
      <point x="222.75" y="86.25"/>
      <point x="237.75" y="35.25"/>
      <point x="237.75" y="-23.75" type="curve" smooth="yes"/>
      <point x="237.75" y="-113.5"/>
      <point x="183.5" y="-181.25"/>
      <point x="69.25" y="-228.75" type="curve"/>
      <point x="85.0" y="-324.75"/>
      <point x="130.25" y="-414.75"/>
    </contour>
  </outline>
</glyph>
<glyph name="asciitilde" format="2">
  <advance width="1050.0"/>
  <unicode hex="007E"/>
  <outline>
    <contour>
      <point x="99.0" y="742.0" type="curve"/>
      <point x="248.5" y="617.25" type="line"/>
      <point x="266.75" y="658.75"/>
      <point x="311.75" y="738.0"/>
      <point x="390.0" y="738.0" type="curve" smooth="yes"/>
      <point x="429.0" y="738.0"/>
      <point x="467.25" y="708.5"/>
      <point x="507.75" y="674.25" type="curve" smooth="yes"/>
      <point x="556.75" y="632.5"/>
      <point x="613.5" y="586.75"/>
      <point x="685.0" y="586.75" type="curve" smooth="yes"/>
      <point x="840.75" y="586.75"/>
      <point x="928.0" y="736.5"/>
      <point x="941.25" y="799.25" type="curve"/>
      <point x="786.25" y="895.0" type="line"/>
      <point x="768.25" y="839.25"/>
      <point x="729.5" y="784.25"/>
      <point x="670.5" y="784.25" type="curve" smooth="yes"/>
      <point x="622.25" y="784.25"/>
      <point x="585.5" y="815.25"/>
      <point x="547.5" y="849.75" type="curve" smooth="yes"/>
      <point x="502.75" y="889.75"/>
      <point x="451.75" y="931.0"/>
      <point x="374.75" y="931.0" type="curve" smooth="yes"/>
      <point x="243.25" y="931.0"/>
      <point x="131.25" y="833.5"/>
    </contour>
  </outline>
</glyph>
<glyph name="exclamdown" format="2">
  <advance width="708.0"/>
  <unicode hex="00A1"/>
  <outline>
    <contour>
      <point x="193.25" y="629.0" type="curve"/>
      <point x="185.0" y="378.0"/>
      <point x="138.0" y="-255.75"/>
      <point x="121.25" y="-391.25" type="curve"/>
      <point x="490.0" y="-406.75" type="line"/>
      <point x="495.5" y="-109.5"/>
      <point x="484.25" y="299.5"/>
      <point x="464.0" y="615.25" type="curve"/>
      <point x="398.5" y="623.25"/>
      <point x="252.5" y="629.0"/>
    </contour>
    <contour>
      <point x="316.5" y="1092.25" type="curve" smooth="yes"/>
      <point x="199.5" y="1092.25"/>
      <point x="110.5" y="1014.0"/>
      <point x="110.5" y="890.75" type="curve" smooth="yes"/>
      <point x="110.5" y="785.5"/>
      <point x="204.25" y="708.25"/>
      <point x="320.0" y="708.25" type="curve" smooth="yes"/>
      <point x="435.25" y="708.25"/>
      <point x="531.0" y="778.0"/>
      <point x="531.0" y="893.0" type="curve" smooth="yes"/>
      <point x="531.0" y="1009.25"/>
      <point x="439.75" y="1092.25"/>
    </contour>
  </outline>
</glyph>
<glyph name="cent" format="2">
  <advance width="1026.0"/>
  <unicode hex="00A2"/>
  <anchor x="513.0" y="156.75" name="bottom"/>
  <anchor x="513.0" y="1219.75" name="top"/>
  <outline>
    <contour>
      <point x="570.0" y="1365.25" type="curve"/>
      <point x="543.0" y="1042.25"/>
      <point x="398.25" y="399.5"/>
      <point x="306.25" y="41.5" type="curve"/>
      <point x="366.75" y="3.25"/>
      <point x="424.0" y="-7.5"/>
      <point x="487.5" y="-9.25" type="curve"/>
      <point x="550.75" y="216.0"/>
      <point x="676.75" y="982.0"/>
      <point x="709.75" y="1330.0" type="curve"/>
      <point x="686.0" y="1350.0"/>
      <point x="621.25" y="1365.25"/>
    </contour>
    <component base="c" yOffset="156.75"/>
  </outline>
</glyph>
<glyph name="sterling" format="2">
  <advance width="1140.0"/>
  <unicode hex="00A3"/>
  <outline>
    <contour>
      <point x="164.25" y="518.75" type="curve" smooth="yes"/>
      <point x="343.75" y="518.75"/>
      <point x="687.75" y="536.25"/>
      <point x="775.0" y="562.25" type="curve"/>
      <point x="775.0" y="601.0"/>
      <point x="768.75" y="746.75"/>
      <point x="764.75" y="775.0" type="curve"/>
      <point x="677.75" y="756.5"/>
      <point x="359.5" y="742.0"/>
      <point x="177.75" y="742.0" type="curve" smooth="yes"/>
      <point x="122.5" y="742.0"/>
      <point x="75.75" y="743.0"/>
      <point x="42.75" y="745.75" type="curve"/>
      <point x="35.25" y="524.75" type="line"/>
      <point x="59.0" y="520.75"/>
      <point x="105.75" y="518.75"/>
    </contour>
    <component base="sterlira"/>
  </outline>
</glyph>
<glyph name="currency" format="2">
  <advance width="974.0"/>
  <unicode hex="00A4"/>
  <outline>
    <contour>
      <point x="176.75" y="52.0" type="curve"/>
      <point x="228.5" y="104.0"/>
      <point x="375.5" y="277.75"/>
      <point x="411.0" y="326.25" type="curve"/>
      <point x="228.5" y="448.0" type="line"/>
      <point x="157.0" y="381.0"/>
      <point x="61.25" y="288.25"/>
      <point x="-10.75" y="218.25" type="curve"/>
      <point x="15.25" y="190.0"/>
      <point x="144.0" y="77.25"/>
    </contour>
    <contour>
      <point x="795.0" y="76.5" type="curve"/>
      <point x="820.75" y="101.75"/>
      <point x="925.75" y="209.25"/>
      <point x="947.5" y="235.0" type="curve"/>
      <point x="898.25" y="283.0"/>
      <point x="791.0" y="375.75"/>
      <point x="718.25" y="438.25" type="curve"/>
      <point x="566.25" y="317.25" type="line"/>
      <point x="601.0" y="280.75"/>
      <point x="723.0" y="148.5"/>
    </contour>
    <contour>
      <point x="222.25" y="654.5" type="curve"/>
      <point x="365.0" y="797.0" type="line"/>
      <point x="305.75" y="873.25"/>
      <point x="223.5" y="969.25"/>
      <point x="167.25" y="1024.25" type="curve"/>
      <point x="128.0" y="998.25"/>
      <point x="20.25" y="895.25"/>
      <point x="5.0" y="873.25" type="curve"/>
      <point x="68.0" y="803.25"/>
      <point x="145.25" y="720.75"/>
    </contour>
    <contour>
      <point x="723.0" y="656.75" type="line"/>
      <point x="795.75" y="717.5"/>
      <point x="898.25" y="821.25"/>
      <point x="962.75" y="891.25" type="curve"/>
      <point x="937.0" y="916.5"/>
      <point x="815.5" y="1033.5"/>
      <point x="797.0" y="1059.5" type="curve"/>
      <point x="729.5" y="995.0"/>
      <point x="617.25" y="876.25"/>
      <point x="555.5" y="810.5" type="curve"/>
    </contour>
    <component base="degree" xOffset="106.0" yOffset="-656.0"/>
  </outline>
</glyph>
<glyph name="yen" format="2">
  <advance width="1065.0"/>
  <unicode hex="00A5"/>
  <anchor x="608.0" y="0.0" name="bottom"/>
  <anchor x="608.0" y="1291.0" name="top"/>
  <anchor x="95.0" y="1291.0" name="topleft"/>
  <outline>
    <contour>
      <point x="159.0" y="500.0" type="curve"/>
      <point x="256.0" y="502.25"/>
      <point x="906.75" y="511.25"/>
      <point x="1000.75" y="511.25" type="curve"/>
      <point x="1000.75" y="566.0"/>
      <point x="991.5" y="644.25"/>
      <point x="980.5" y="710.75" type="curve"/>
      <point x="894.75" y="720.75"/>
      <point x="766.25" y="725.5"/>
      <point x="625.0" y="725.5" type="curve" smooth="yes"/>
      <point x="466.5" y="725.5"/>
      <point x="322.5" y="720.5"/>
      <point x="181.5" y="709.75" type="curve"/>
      <point x="175.0" y="678.5"/>
      <point x="159.25" y="575.5"/>
    </contour>
    <contour>
      <point x="1005.75" y="216.0" type="curve"/>
      <point x="1006.5" y="285.0"/>
      <point x="992.75" y="376.5"/>
      <point x="986.75" y="409.5" type="curve"/>
      <point x="892.25" y="416.75"/>
      <point x="755.0" y="421.5"/>
      <point x="617.25" y="421.5" type="curve" smooth="yes"/>
      <point x="438.75" y="421.5"/>
      <point x="280.75" y="415.75"/>
      <point x="166.5" y="407.25" type="curve"/>
      <point x="155.75" y="347.25"/>
      <point x="147.0" y="290.75"/>
      <point x="147.0" y="225.5" type="curve"/>
      <point x="241.0" y="226.0"/>
      <point x="893.5" y="218.25"/>
    </contour>
    <component base="Y" xOffset="27.5"/>
  </outline>
</glyph>
<glyph name="brokenbar" format="2">
  <advance width="432.0"/>
  <unicode hex="00A6"/>
  <outline>
    <contour>
      <point x="64.0" y="279.25" type="curve"/>
      <point x="64.0" y="130.5"/>
      <point x="88.25" y="-295.75"/>
      <point x="102.5" y="-437.75" type="curve"/>
      <point x="169.25" y="-437.75"/>
      <point x="309.0" y="-431.0"/>
      <point x="349.0" y="-414.75" type="curve"/>
      <point x="342.25" y="-290.25"/>
      <point x="338.0" y="198.0"/>
      <point x="338.0" y="289.0" type="curve"/>
      <point x="258.75" y="289.0"/>
      <point x="143.25" y="286.75"/>
    </contour>
    <contour>
      <point x="72.5" y="780.25" type="curve"/>
      <point x="95.25" y="777.25"/>
      <point x="232.0" y="769.0"/>
      <point x="347.5" y="769.75" type="curve"/>
      <point x="344.5" y="894.0"/>
      <point x="345.75" y="1332.0"/>
      <point x="348.25" y="1475.5" type="curve"/>
      <point x="302.75" y="1498.25"/>
      <point x="169.25" y="1502.0"/>
      <point x="98.75" y="1502.0" type="curve"/>
      <point x="91.0" y="1386.0"/>
      <point x="72.5" y="1027.0"/>
    </contour>
  </outline>
</glyph>
<glyph name="section" format="2">
  <advance width="1000.0"/>
  <unicode hex="00A7"/>
  <outline>
    <contour>
      <point x="518.0" y="681.25" type="curve"/>
      <point x="305.5" y="809.5" type="line"/>
      <point x="182.5" y="765.25"/>
      <point x="87.75" y="674.5"/>
      <point x="87.75" y="541.0" type="curve" smooth="yes"/>
      <point x="87.75" y="345.75"/>
      <point x="240.25" y="262.5"/>
      <point x="409.25" y="200.5" type="curve" smooth="yes"/>
      <point x="561.0" y="145.25"/>
      <point x="670.75" y="82.25"/>
      <point x="670.75" y="15.5" type="curve" smooth="yes"/>
      <point x="670.75" y="-61.0"/>
      <point x="604.25" y="-98.0"/>
      <point x="509.5" y="-98.0" type="curve" smooth="yes"/>
      <point x="402.0" y="-98.0"/>
      <point x="261.75" y="-29.5"/>
      <point x="155.0" y="47.0" type="curve"/>
      <point x="111.25" y="6.5"/>
      <point x="24.75" y="-135.0"/>
      <point x="-1.25" y="-185.5" type="curve"/>
      <point x="63.75" y="-249.25"/>
      <point x="253.75" y="-355.5"/>
      <point x="501.5" y="-355.5" type="curve" smooth="yes"/>
      <point x="750.5" y="-355.5"/>
      <point x="946.5" y="-215.75"/>
      <point x="946.5" y="15.0" type="curve" smooth="yes"/>
      <point x="946.5" y="214.5"/>
      <point x="764.5" y="320.25"/>
      <point x="600.0" y="381.75" type="curve" smooth="yes"/>
      <point x="472.5" y="431.0"/>
      <point x="371.75" y="481.5"/>
      <point x="371.75" y="549.0" type="curve" smooth="yes"/>
      <point x="371.75" y="635.25"/>
      <point x="462.75" y="675.0"/>
    </contour>
    <contour>
      <point x="560.0" y="377.75" type="curve"/>
      <point x="706.5" y="196.25" type="line"/>
      <point x="852.25" y="251.0"/>
      <point x="961.5" y="368.75"/>
      <point x="961.5" y="530.75" type="curve" smooth="yes"/>
      <point x="961.5" y="730.25"/>
      <point x="764.5" y="833.5"/>
      <point x="600.0" y="895.0" type="curve" smooth="yes"/>
      <point x="472.5" y="944.25"/>
      <point x="384.25" y="987.5"/>
      <point x="384.25" y="1047.5" type="curve" smooth="yes"/>
      <point x="384.25" y="1110.0"/>
      <point x="467.25" y="1129.25"/>
      <point x="537.0" y="1129.25" type="curve" smooth="yes"/>
      <point x="622.5" y="1129.25"/>
      <point x="738.25" y="1084.0"/>
      <point x="794.75" y="1037.25" type="curve"/>
      <point x="860.0" y="1111.5"/>
      <point x="911.75" y="1233.25"/>
      <point x="917.75" y="1253.25" type="curve"/>
      <point x="815.0" y="1322.5"/>
      <point x="660.75" y="1362.75"/>
      <point x="517.5" y="1362.75" type="curve" smooth="yes"/>
      <point x="313.75" y="1362.75"/>
      <point x="115.25" y="1256.5"/>
      <point x="115.25" y="1056.75" type="curve" smooth="yes"/>
      <point x="115.25" y="860.5"/>
      <point x="240.25" y="776.25"/>
      <point x="409.25" y="713.75" type="curve" smooth="yes"/>
      <point x="561.0" y="658.0"/>
      <point x="685.75" y="604.75"/>
      <point x="685.75" y="531.25" type="curve" smooth="yes"/>
      <point x="685.75" y="448.25"/>
      <point x="630.5" y="390.5"/>
    </contour>
  </outline>
</glyph>
<glyph name="copyright" format="2">
  <advance width="1745.0"/>
  <unicode hex="00A9"/>
  <outline>
    <contour>
      <point x="868.75" y="-68.0" type="curve" smooth="yes"/>
      <point x="1336.75" y="-68.0"/>
      <point x="1669.0" y="196.25"/>
      <point x="1669.0" y="585.75" type="curve" smooth="yes"/>
      <point x="1669.0" y="1089.5"/>
      <point x="1378.5" y="1350.0"/>
      <point x="908.5" y="1350.0" type="curve" smooth="yes"/>
      <point x="400.75" y="1350.0"/>
      <point x="54.75" y="1063.75"/>
      <point x="54.75" y="570.0" type="curve" smooth="yes"/>
      <point x="54.75" y="150.75"/>
      <point x="394.75" y="-68.0"/>
    </contour>
    <contour>
      <point x="852.5" y="170.25" type="curve" smooth="yes"/>
      <point x="561.75" y="170.25"/>
      <point x="370.0" y="330.75"/>
      <point x="370.0" y="621.5" type="curve" smooth="yes"/>
      <point x="370.0" y="917.5"/>
      <point x="614.5" y="1119.0"/>
      <point x="903.0" y="1119.0" type="curve" smooth="yes"/>
      <point x="1228.0" y="1119.0"/>
      <point x="1372.5" y="934.75"/>
      <point x="1372.5" y="609.25" type="curve" smooth="yes"/>
      <point x="1372.5" y="324.75"/>
      <point x="1163.0" y="170.25"/>
    </contour>
    <contour>
      <point x="856.75" y="287.5" type="curve" smooth="yes"/>
      <point x="1009.75" y="287.5"/>
      <point x="1169.75" y="361.5"/>
      <point x="1236.0" y="498.5" type="curve"/>
      <point x="1181.25" y="543.75"/>
      <point x="1111.25" y="592.25"/>
      <point x="1054.25" y="620.0" type="curve"/>
      <point x="1007.25" y="550.0"/>
      <point x="946.0" y="513.25"/>
      <point x="880.0" y="513.25" type="curve" smooth="yes"/>
      <point x="806.5" y="513.25"/>
      <point x="736.5" y="547.5"/>
      <point x="736.5" y="639.5" type="curve" smooth="yes"/>
      <point x="736.5" y="733.25"/>
      <point x="811.0" y="787.5"/>
      <point x="889.25" y="787.5" type="curve" smooth="yes"/>
      <point x="947.75" y="787.5"/>
      <point x="1008.75" y="764.25"/>
      <point x="1029.5" y="737.5" type="curve"/>
      <point x="1064.75" y="768.25"/>
      <point x="1122.25" y="834.25"/>
      <point x="1172.75" y="904.5" type="curve"/>
      <point x="1121.0" y="963.5"/>
      <point x="1039.0" y="992.5"/>
      <point x="926.75" y="992.5" type="curve" smooth="yes"/>
      <point x="688.0" y="992.5"/>
      <point x="518.0" y="831.25"/>
      <point x="518.0" y="611.25" type="curve" smooth="yes"/>
      <point x="518.0" y="410.0"/>
      <point x="646.0" y="287.5"/>
    </contour>
  </outline>
</glyph>
<glyph name="ordfeminine" format="2">
  <advance width="750.0"/>
  <unicode hex="00AA"/>
  <outline>
    <contour>
      <point x="480.0" y="725.5" type="curve"/>
      <point x="509.0" y="720.5"/>
      <point x="571.75" y="718.5"/>
      <point x="614.75" y="718.5" type="curve" smooth="yes"/>
      <point x="631.0" y="718.5"/>
      <point x="666.0" y="718.75"/>
      <point x="672.0" y="719.75" type="curve"/>
      <point x="681.0" y="780.75"/>
      <point x="694.75" y="890.25"/>
      <point x="694.75" y="1007.0" type="curve" smooth="yes"/>
      <point x="694.75" y="1270.25"/>
      <point x="615.5" y="1428.75"/>
      <point x="348.0" y="1428.75" type="curve" smooth="yes"/>
      <point x="212.0" y="1428.75"/>
      <point x="108.0" y="1389.25"/>
      <point x="36.25" y="1331.5" type="curve"/>
      <point x="149.0" y="1188.25" type="line"/>
      <point x="181.0" y="1215.25"/>
      <point x="260.5" y="1242.25"/>
      <point x="334.25" y="1242.25" type="curve" smooth="yes"/>
      <point x="412.75" y="1242.25"/>
      <point x="453.0" y="1218.0"/>
      <point x="473.0" y="1186.0" type="curve" smooth="yes"/>
      <point x="485.0" y="1171.0"/>
      <point x="492.5" y="1149.0"/>
      <point x="493.5" y="1129.5" type="curve"/>
      <point x="479.0" y="1144.25"/>
      <point x="393.75" y="1158.25"/>
      <point x="342.25" y="1158.25" type="curve" smooth="yes"/>
      <point x="179.25" y="1158.25"/>
      <point x="30.0" y="1090.75"/>
      <point x="30.0" y="930.75" type="curve" smooth="yes"/>
      <point x="30.0" y="789.75"/>
      <point x="137.75" y="725.75"/>
      <point x="294.75" y="725.75" type="curve" smooth="yes"/>
      <point x="370.25" y="725.75"/>
      <point x="455.5" y="755.25"/>
      <point x="488.75" y="787.75" type="curve"/>
      <point x="487.0" y="767.75"/>
      <point x="482.0" y="733.5"/>
    </contour>
    <contour>
      <point x="366.75" y="893.25" type="curve" smooth="yes"/>
      <point x="297.25" y="893.25"/>
      <point x="256.75" y="909.25"/>
      <point x="256.75" y="955.5" type="curve" smooth="yes"/>
      <point x="256.75" y="998.75"/>
      <point x="317.5" y="1018.25"/>
      <point x="377.0" y="1018.25" type="curve" smooth="yes"/>
      <point x="421.75" y="1018.25"/>
      <point x="477.25" y="1010.25"/>
      <point x="493.25" y="1004.0" type="curve"/>
      <point x="494.5" y="995.0"/>
      <point x="494.75" y="977.5"/>
      <point x="494.75" y="969.25" type="curve" smooth="yes"/>
      <point x="494.75" y="960.75"/>
      <point x="494.25" y="949.0"/>
      <point x="493.5" y="936.0" type="curve"/>
      <point x="466.25" y="912.75"/>
      <point x="421.5" y="893.25"/>
    </contour>
  </outline>
</glyph>
<glyph name="guillemetleft" format="2">
  <advance width="1214.0"/>
  <unicode hex="00AB"/>
  <outline>
    <contour>
      <point x="1013.25" y="1135.0" type="curve"/>
      <point x="829.5" y="972.5"/>
      <point x="651.25" y="782.75"/>
      <point x="471.25" y="574.0" type="curve"/>
      <point x="1031.25" y="135.25" type="line"/>
      <point x="1055.5" y="227.0"/>
      <point x="1075.25" y="346.0"/>
      <point x="1075.5" y="408.5" type="curve"/>
      <point x="1022.25" y="453.5"/>
      <point x="872.0" y="545.0"/>
      <point x="773.25" y="602.0" type="curve"/>
      <point x="1150.0" y="944.75" type="line"/>
      <point x="1131.0" y="1002.5"/>
      <point x="1080.25" y="1093.75"/>
    </contour>
    <contour>
      <point x="522.25" y="1120.0" type="curve"/>
      <point x="338.25" y="928.0"/>
      <point x="172.25" y="735.0"/>
      <point x="16.25" y="539.75" type="curve"/>
      <point x="209.25" y="334.75"/>
      <point x="423.5" y="158.5"/>
      <point x="643.25" y="0.0" type="curve"/>
      <point x="670.0" y="66.25"/>
      <point x="709.5" y="170.5"/>
      <point x="720.5" y="215.0" type="curve"/>
      <point x="690.5" y="232.0"/>
      <point x="472.25" y="419.0"/>
      <point x="315.5" y="555.75" type="curve"/>
      <point x="681.0" y="971.0" type="line"/>
      <point x="644.5" y="1011.5"/>
      <point x="576.0" y="1080.0"/>
    </contour>
  </outline>
</glyph>
<glyph name="logicalnot" format="2">
  <advance width="1000.0"/>
  <unicode hex="00AC"/>
  <outline>
    <contour>
      <point x="945.5" y="864.75" type="curve"/>
      <point x="782.25" y="864.75"/>
      <point x="198.0" y="844.25"/>
      <point x="51.5" y="830.5" type="curve"/>
      <point x="49.5" y="762.25"/>
      <point x="50.25" y="643.25"/>
      <point x="51.0" y="579.0" type="curve"/>
      <point x="158.75" y="583.0"/>
      <point x="517.5" y="599.75"/>
      <point x="710.5" y="611.0" type="curve"/>
      <point x="706.0" y="545.0"/>
      <point x="697.0" y="348.25"/>
      <point x="695.0" y="260.0" type="curve"/>
      <point x="748.5" y="257.75"/>
      <point x="874.0" y="257.25"/>
      <point x="918.5" y="258.5" type="curve"/>
      <point x="922.0" y="386.25"/>
      <point x="935.0" y="740.0"/>
    </contour>
  </outline>
</glyph>
<glyph name="softhyphen" format="2">
  <advance width="780.25"/>
  <unicode hex="00AD"/>
  <outline>
    <contour>
      <point x="730.0" y="815.5" type="curve"/>
      <point x="652.0" y="826.5"/>
      <point x="552.0" y="830.25"/>
      <point x="427.0" y="830.25" type="curve" smooth="yes"/>
      <point x="305.75" y="830.25"/>
      <point x="162.25" y="818.25"/>
      <point x="48.75" y="802.5" type="curve"/>
      <point x="41.25" y="761.0"/>
      <point x="30.25" y="595.75"/>
      <point x="31.0" y="521.75" type="curve"/>
      <point x="190.25" y="533.5"/>
      <point x="637.75" y="548.75"/>
      <point x="742.5" y="548.75" type="curve"/>
      <point x="742.75" y="621.5"/>
      <point x="742.0" y="732.75"/>
    </contour>
  </outline>
</glyph>
<glyph name="registered" format="2">
  <advance width="1400.0"/>
  <unicode hex="00AE"/>
  <outline>
    <contour>
      <point x="726.75" y="266.0" type="curve" smooth="yes"/>
      <point x="1073.25" y="266.0"/>
      <point x="1341.75" y="446.5"/>
      <point x="1341.75" y="812.0" type="curve" smooth="yes"/>
      <point x="1341.75" y="1158.75"/>
      <point x="1088.75" y="1321.0"/>
      <point x="726.25" y="1321.0" type="curve" smooth="yes"/>
      <point x="377.25" y="1321.0"/>
      <point x="75.5" y="1126.75"/>
      <point x="75.5" y="768.75" type="curve" smooth="yes"/>
      <point x="75.5" y="379.5"/>
      <point x="385.25" y="266.0"/>
    </contour>
    <contour>
      <point x="717.0" y="449.5" type="curve" smooth="yes"/>
      <point x="533.5" y="449.5"/>
      <point x="325.0" y="490.5"/>
      <point x="325.0" y="784.0" type="curve" smooth="yes"/>
      <point x="325.0" y="1028.0"/>
      <point x="520.0" y="1142.25"/>
      <point x="720.75" y="1142.25" type="curve" smooth="yes"/>
      <point x="945.5" y="1142.25"/>
      <point x="1090.25" y="1042.5"/>
      <point x="1090.25" y="793.25" type="curve" smooth="yes"/>
      <point x="1090.25" y="538.75"/>
      <point x="906.75" y="449.5"/>
    </contour>
    <contour>
      <point x="694.75" y="542.75" type="curve"/>
      <point x="694.75" y="578.5"/>
      <point x="694.0" y="700.75"/>
      <point x="692.5" y="732.0" type="curve"/>
      <point x="699.25" y="732.75"/>
      <point x="709.75" y="734.0"/>
      <point x="713.75" y="734.75" type="curve"/>
      <point x="740.0" y="685.25"/>
      <point x="759.25" y="592.0"/>
      <point x="776.25" y="542.75" type="curve"/>
      <point x="844.75" y="542.75"/>
      <point x="908.5" y="550.75"/>
      <point x="944.25" y="571.0" type="curve"/>
      <point x="936.5" y="608.0"/>
      <point x="889.0" y="736.0"/>
      <point x="853.5" y="781.75" type="curve"/>
      <point x="909.0" y="799.75"/>
      <point x="945.25" y="852.75"/>
      <point x="945.25" y="914.0" type="curve" smooth="yes"/>
      <point x="945.25" y="1020.75"/>
      <point x="824.5" y="1052.5"/>
      <point x="709.0" y="1052.5" type="curve" smooth="yes"/>
      <point x="634.75" y="1052.5"/>
      <point x="573.75" y="1040.25"/>
      <point x="523.5" y="1010.75" type="curve"/>
      <point x="515.25" y="927.0"/>
      <point x="509.5" y="681.5"/>
      <point x="509.5" y="569.75" type="curve"/>
      <point x="555.25" y="555.25"/>
      <point x="631.75" y="542.75"/>
    </contour>
    <contour>
      <point x="682.25" y="854.75" type="curve"/>
      <point x="682.25" y="870.5"/>
      <point x="679.5" y="920.25"/>
      <point x="678.25" y="932.0" type="curve"/>
      <point x="691.25" y="934.25"/>
      <point x="708.5" y="935.75"/>
      <point x="724.25" y="935.75" type="curve" smooth="yes"/>
      <point x="752.0" y="935.75"/>
      <point x="776.25" y="930.25"/>
      <point x="776.25" y="902.75" type="curve" smooth="yes"/>
      <point x="776.25" y="865.5"/>
      <point x="727.25" y="854.75"/>
    </contour>
  </outline>
</glyph>
<glyph name="degree" format="2">
  <advance width="814.0"/>
  <unicode hex="00B0"/>
  <outline>
    <contour>
      <point x="373.75" y="873.75" type="curve" smooth="yes"/>
      <point x="571.0" y="873.75"/>
      <point x="737.25" y="1035.5"/>
      <point x="737.25" y="1227.5" type="curve" smooth="yes"/>
      <point x="737.25" y="1400.75"/>
      <point x="573.75" y="1526.25"/>
      <point x="371.5" y="1526.25" type="curve" smooth="yes"/>
      <point x="181.0" y="1526.25"/>
      <point x="20.5" y="1390.5"/>
      <point x="20.5" y="1198.5" type="curve" smooth="yes"/>
      <point x="20.5" y="1020.75"/>
      <point x="181.0" y="873.75"/>
    </contour>
    <contour>
      <point x="372.5" y="1093.25" type="curve" smooth="yes"/>
      <point x="306.25" y="1093.25"/>
      <point x="264.75" y="1139.5"/>
      <point x="264.75" y="1208.75" type="curve" smooth="yes"/>
      <point x="264.75" y="1266.5"/>
      <point x="316.25" y="1306.75"/>
      <point x="372.25" y="1306.75" type="curve" smooth="yes"/>
      <point x="454.5" y="1306.75"/>
      <point x="493.5" y="1258.25"/>
      <point x="493.5" y="1198.0" type="curve" smooth="yes"/>
      <point x="493.5" y="1139.75"/>
      <point x="436.75" y="1093.25"/>
    </contour>
  </outline>
</glyph>
<glyph name="twosuperior" format="2">
  <advance width="738.75"/>
  <unicode hex="00B2"/>
  <outline>
    <contour>
      <point x="634.5" y="737.0" type="curve"/>
      <point x="547.0" y="731.0"/>
      <point x="420.25" y="720.0"/>
      <point x="364.0" y="712.25" type="curve"/>
      <point x="388.75" y="723.5"/>
      <point x="466.25" y="791.0"/>
      <point x="519.75" y="854.25" type="curve" smooth="yes"/>
      <point x="598.25" y="946.0"/>
      <point x="626.25" y="1037.5"/>
      <point x="626.25" y="1108.5" type="curve" smooth="yes"/>
      <point x="626.25" y="1242.5"/>
      <point x="535.0" y="1325.25"/>
      <point x="387.0" y="1325.25" type="curve" smooth="yes"/>
      <point x="242.5" y="1325.25"/>
      <point x="98.0" y="1239.0"/>
      <point x="27.5" y="1124.25" type="curve"/>
      <point x="60.5" y="1091.0"/>
      <point x="147.75" y="1023.5"/>
      <point x="200.75" y="998.0" type="curve"/>
      <point x="226.5" y="1035.0"/>
      <point x="290.0" y="1086.5"/>
      <point x="350.75" y="1086.5" type="curve" smooth="yes"/>
      <point x="390.25" y="1086.5"/>
      <point x="414.0" y="1068.25"/>
      <point x="414.0" y="1035.75" type="curve" smooth="yes"/>
      <point x="414.0" y="985.5"/>
      <point x="342.75" y="913.25"/>
      <point x="247.5" y="842.5" type="curve" smooth="yes"/>
      <point x="155.75" y="775.75"/>
      <point x="83.0" y="720.75"/>
      <point x="38.0" y="697.0" type="curve"/>
      <point x="40.75" y="630.25"/>
      <point x="72.75" y="504.25"/>
      <point x="76.5" y="490.0" type="curve"/>
      <point x="642.75" y="516.0" type="line"/>
      <point x="643.5" y="542.5"/>
      <point x="642.75" y="694.75"/>
    </contour>
  </outline>
</glyph>
<glyph name="threesuperior" format="2">
  <advance width="786.5"/>
  <unicode hex="00B3"/>
  <outline>
    <contour>
      <point x="353.25" y="498.0" type="curve" smooth="yes"/>
      <point x="530.25" y="498.0"/>
      <point x="686.25" y="585.0"/>
      <point x="686.25" y="737.5" type="curve" smooth="yes"/>
      <point x="686.25" y="853.0"/>
      <point x="586.5" y="918.5"/>
      <point x="482.5" y="925.25" type="curve"/>
      <point x="571.25" y="950.5"/>
      <point x="639.0" y="1011.75"/>
      <point x="639.0" y="1097.75" type="curve" smooth="yes"/>
      <point x="639.0" y="1222.5"/>
      <point x="507.5" y="1296.25"/>
      <point x="365.25" y="1296.25" type="curve" smooth="yes"/>
      <point x="179.0" y="1296.25"/>
      <point x="56.25" y="1207.75"/>
      <point x="26.0" y="1178.75" type="curve"/>
      <point x="42.0" y="1156.5"/>
      <point x="140.75" y="1074.5"/>
      <point x="180.0" y="1042.0" type="curve"/>
      <point x="206.25" y="1064.25"/>
      <point x="290.5" y="1101.5"/>
      <point x="349.5" y="1101.5" type="curve" smooth="yes"/>
      <point x="401.0" y="1101.5"/>
      <point x="423.5" y="1078.25"/>
      <point x="423.5" y="1046.0" type="curve" smooth="yes"/>
      <point x="423.5" y="993.0"/>
      <point x="306.5" y="963.75"/>
      <point x="197.0" y="963.75" type="curve"/>
      <point x="197.0" y="911.25"/>
      <point x="206.0" y="842.25"/>
      <point x="215.25" y="816.5" type="curve"/>
      <point x="391.75" y="816.5"/>
      <point x="459.25" y="795.25"/>
      <point x="459.25" y="742.75" type="curve" smooth="yes"/>
      <point x="459.25" y="698.5"/>
      <point x="417.25" y="673.5"/>
      <point x="357.25" y="673.5" type="curve" smooth="yes"/>
      <point x="285.0" y="673.5"/>
      <point x="233.25" y="707.25"/>
      <point x="217.0" y="740.0" type="curve"/>
      <point x="169.0" y="721.0"/>
      <point x="84.25" y="671.75"/>
      <point x="39.0" y="641.25" type="curve"/>
      <point x="77.0" y="557.25"/>
      <point x="192.5" y="498.0"/>
    </contour>
  </outline>
</glyph>
<glyph name="micro" format="2">
  <advance width="1178.0"/>
  <unicode hex="00B5"/>
  <anchor x="574.0" y="0.0" name="bottom"/>
  <anchor x="798.5" y="0.0" name="ogonek"/>
  <anchor x="574.0" y="1063.0" name="top"/>
  <anchor x="1032.75" y="911.5" name="topright"/>
  <outline>
    <contour>
      <point x="134.5" y="-415.5" type="curve"/>
      <point x="226.0" y="-415.5"/>
      <point x="344.5" y="-408.25"/>
      <point x="412.25" y="-398.25" type="curve"/>
      <point x="401.5" y="-291.25"/>
      <point x="390.5" y="-120.0"/>
      <point x="389.25" y="21.0" type="curve" smooth="yes"/>
      <point x="387.25" y="253.0"/>
      <point x="388.25" y="460.0"/>
      <point x="396.5" y="702.75" type="curve"/>
      <point x="75.0" y="724.25" type="line"/>
      <point x="75.0" y="465.0"/>
      <point x="103.0" y="-108.25"/>
    </contour>
    <component base="u"/>
  </outline>
</glyph>
<glyph name="paragraph" format="2">
  <advance width="1210.0"/>
  <unicode hex="00B6"/>
  <outline>
    <contour>
      <point x="1072.5" y="-363.5" type="curve"/>
      <point x="1107.75" y="-84.25"/>
      <point x="1134.25" y="378.75"/>
      <point x="1134.25" y="716.75" type="curve" smooth="yes"/>
      <point x="1134.25" y="904.25"/>
      <point x="1127.0" y="1069.25"/>
      <point x="1111.5" y="1173.5" type="curve"/>
      <point x="987.75" y="1253.25"/>
      <point x="696.5" y="1314.0"/>
      <point x="514.75" y="1314.0" type="curve" smooth="yes"/>
      <point x="210.75" y="1314.0"/>
      <point x="55.75" y="1155.25"/>
      <point x="55.75" y="882.75" type="curve" smooth="yes"/>
      <point x="55.75" y="656.25"/>
      <point x="194.75" y="458.75"/>
      <point x="415.5" y="458.75" type="curve" smooth="yes"/>
      <point x="441.25" y="458.75"/>
      <point x="467.75" y="463.75"/>
      <point x="492.0" y="472.75" type="curve"/>
      <point x="486.75" y="399.5"/>
      <point x="458.5" y="-127.5"/>
      <point x="452.5" y="-304.5" type="curve"/>
      <point x="480.25" y="-306.0"/>
      <point x="658.0" y="-311.75"/>
      <point x="721.5" y="-311.25" type="curve"/>
      <point x="722.0" y="-225.25"/>
      <point x="754.75" y="512.5"/>
      <point x="775.75" y="1029.0" type="curve"/>
      <point x="816.25" y="1023.5"/>
      <point x="852.0" y="1013.75"/>
      <point x="886.75" y="1002.25" type="curve"/>
      <point x="892.25" y="925.5"/>
      <point x="895.25" y="841.25"/>
      <point x="895.25" y="753.25" type="curve" smooth="yes"/>
      <point x="895.25" y="418.5"/>
      <point x="864.25" y="-119.5"/>
      <point x="835.0" y="-336.75" type="curve"/>
      <point x="865.75" y="-341.75"/>
      <point x="1012.75" y="-363.5"/>
    </contour>
  </outline>
</glyph>
<glyph name="periodcentered" format="2">
  <advance width="450.0"/>
  <unicode hex="00B7"/>
  <outline>
    <contour>
      <point x="206.25" y="675.0" type="curve" smooth="yes"/>
      <point x="297.75" y="675.0"/>
      <point x="380.25" y="751.0"/>
      <point x="380.25" y="843.0" type="curve" smooth="yes"/>
      <point x="380.25" y="929.25"/>
      <point x="319.5" y="1009.0"/>
      <point x="219.0" y="1009.0" type="curve" smooth="yes"/>
      <point x="121.25" y="1009.0"/>
      <point x="38.25" y="936.75"/>
      <point x="38.25" y="843.0" type="curve" smooth="yes"/>
      <point x="38.25" y="751.0"/>
      <point x="85.5" y="675.0"/>
    </contour>
  </outline>
</glyph>
<glyph name="onesuperior" format="2">
  <advance width="562.0"/>
  <unicode hex="00B9"/>
  <outline>
    <contour>
      <point x="361.25" y="704.5" type="curve"/>
      <point x="368.25" y="802.25"/>
      <point x="370.75" y="904.75"/>
      <point x="370.75" y="984.25" type="curve" smooth="yes"/>
      <point x="370.75" y="1127.0"/>
      <point x="367.25" y="1227.75"/>
      <point x="362.5" y="1263.25" type="curve"/>
      <point x="321.25" y="1270.75"/>
      <point x="229.0" y="1274.75"/>
      <point x="187.0" y="1274.75" type="curve"/>
      <point x="141.0" y="1238.75"/>
      <point x="36.75" y="1147.5"/>
      <point x="6.5" y="1113.5" type="curve"/>
      <point x="24.0" y="1072.25"/>
      <point x="54.75" y="1015.75"/>
      <point x="82.5" y="972.75" type="curve"/>
      <point x="96.0" y="984.25"/>
      <point x="150.0" y="1028.0"/>
      <point x="169.25" y="1039.5" type="curve"/>
      <point x="169.25" y="969.0"/>
      <point x="168.75" y="765.0"/>
      <point x="168.25" y="695.25" type="curve"/>
      <point x="145.75" y="692.75"/>
      <point x="85.75" y="685.5"/>
      <point x="58.5" y="679.25" type="curve"/>
      <point x="51.75" y="636.75"/>
      <point x="49.75" y="543.5"/>
      <point x="50.0" y="493.0" type="curve"/>
      <point x="97.25" y="498.25"/>
      <point x="378.0" y="505.0"/>
      <point x="443.75" y="505.0" type="curve"/>
      <point x="449.0" y="538.25"/>
      <point x="455.5" y="666.5"/>
      <point x="455.75" y="696.0" type="curve"/>
      <point x="432.0" y="701.0"/>
      <point x="388.75" y="704.5"/>
    </contour>
  </outline>
</glyph>
<glyph name="ordmasculine" format="2">
  <advance width="750.0"/>
  <unicode hex="00BA"/>
  <outline>
    <contour>
      <point x="378.25" y="759.25" type="curve" smooth="yes"/>
      <point x="584.0" y="759.25"/>
      <point x="698.0" y="881.25"/>
      <point x="698.0" y="1068.25" type="curve" smooth="yes"/>
      <point x="698.0" y="1280.25"/>
      <point x="592.75" y="1431.5"/>
      <point x="386.5" y="1431.5" type="curve" smooth="yes"/>
      <point x="180.25" y="1431.5"/>
      <point x="36.75" y="1321.75"/>
      <point x="36.75" y="1097.5" type="curve" smooth="yes"/>
      <point x="36.75" y="877.25"/>
      <point x="154.25" y="759.25"/>
    </contour>
    <contour>
      <point x="370.5" y="966.0" type="curve" smooth="yes"/>
      <point x="293.75" y="966.0"/>
      <point x="253.5" y="1030.75"/>
      <point x="253.5" y="1116.25" type="curve" smooth="yes"/>
      <point x="253.5" y="1187.0"/>
      <point x="287.25" y="1265.75"/>
      <point x="375.0" y="1265.75" type="curve" smooth="yes"/>
      <point x="450.25" y="1265.75"/>
      <point x="496.0" y="1200.75"/>
      <point x="496.0" y="1106.25" type="curve" smooth="yes"/>
      <point x="496.0" y="1017.75"/>
      <point x="445.0" y="966.0"/>
    </contour>
  </outline>
</glyph>
